<svg width="180" height="180" viewBox="0 0 180 180" fill="none" xmlns="http://www.w3.org/2000/svg">
<circle cx="90" cy="90.0039" r="90" fill="url(#paint0_linear_10_418)"/>
<path fill-rule="evenodd" clip-rule="evenodd" d="M99.7913 76.7459C96.1997 80.3374 89.6546 80.3389 86.0616 76.7459L84.5884 75.2728L81.6422 78.219L83.1153 79.6922C85.7287 82.3055 89.3261 83.6107 92.925 83.6122L74.7479 101.789L77.6942 104.736L95.8712 86.5585C95.8727 90.1574 97.1779 93.7548 99.7913 96.3681L101.264 97.8413L104.211 94.895L102.738 93.4218C99.1445 89.8289 99.146 83.2837 102.738 79.6922L104.211 78.2191L101.264 75.2728L99.7913 76.7459Z" fill="white"/>
<path d="M92.993 15.0039L96.4227 15.4927L98.7856 24.8463L98.9398 24.8683L103.822 16.547L107.251 17.0358L105.377 30.1892L102.679 29.8048L103.899 21.2435L103.79 21.228L99.1752 29.2399L97.3384 28.9782L95.1499 19.9639L95.0407 19.9483L93.8161 28.5418L91.1186 28.1573L92.993 15.0039Z" fill="white"/>
<path d="M112.201 33.0926C111.265 32.7191 110.535 32.1972 110.011 31.5271C109.492 30.8544 109.191 30.0869 109.107 29.2244C109.024 28.3579 109.172 27.4506 109.55 26.5026C109.932 25.5466 110.45 24.7848 111.105 24.2173C111.761 23.6458 112.509 23.2966 113.346 23.1699C114.189 23.0407 115.079 23.1629 116.015 23.5364C116.951 23.9099 117.678 24.433 118.197 25.1056C118.721 25.7758 119.024 26.5442 119.107 27.4107C119.191 28.2732 119.042 29.1824 118.661 30.1384C118.282 31.0864 117.765 31.8462 117.108 32.4177C116.454 32.9853 115.704 33.3336 114.861 33.4628C114.024 33.5895 113.137 33.4661 112.201 33.0926ZM113.007 31.1091C113.432 31.279 113.836 31.3004 114.217 31.1732C114.6 31.042 114.948 30.7943 115.261 30.4302C115.578 30.0678 115.844 29.6174 116.059 29.0792C116.274 28.5409 116.391 28.0312 116.411 27.5501C116.434 27.0706 116.353 26.6515 116.165 26.2926C115.978 25.9338 115.671 25.6694 115.245 25.4995C114.816 25.3279 114.405 25.3062 114.014 25.4342C113.627 25.5638 113.275 25.8098 112.958 26.1723C112.645 26.5363 112.381 26.9875 112.167 27.5258C111.952 28.064 111.832 28.5729 111.809 29.0524C111.789 29.5335 111.875 29.9543 112.066 30.3147C112.263 30.6728 112.577 30.9375 113.007 31.1091Z" fill="white"/>
<path d="M118.734 35.8851L123.815 27.3132L126.12 28.6794L125.233 30.1751L125.323 30.228C125.794 29.7886 126.295 29.5423 126.824 29.489C127.356 29.432 127.861 29.5458 128.341 29.8303C128.46 29.9009 128.584 29.9844 128.713 30.0809C128.842 30.1774 128.951 30.2695 129.039 30.3573L127.789 32.4668C127.697 32.3671 127.56 32.2458 127.379 32.1029C127.197 31.96 127.024 31.84 126.86 31.743C126.511 31.5357 126.153 31.4267 125.787 31.416C125.427 31.4038 125.088 31.4843 124.769 31.6573C124.454 31.8325 124.193 32.095 123.986 32.4448L121.111 37.2943L118.734 35.8851Z" fill="white"/>
<path d="M128.466 42.7337C127.673 42.0838 127.123 41.3638 126.814 40.5738C126.512 39.7832 126.449 38.9657 126.627 38.1215C126.807 37.2739 127.231 36.4438 127.897 35.6311C128.547 34.8385 129.271 34.269 130.07 33.9227C130.869 33.5763 131.684 33.4649 132.517 33.5885C133.353 33.7148 134.149 34.0878 134.905 34.7076C135.413 35.1244 135.819 35.5944 136.123 36.1175C136.433 36.6401 136.619 37.1979 136.68 37.7911C136.745 38.387 136.668 39.0061 136.449 39.6486C136.233 40.2877 135.856 40.935 135.318 41.5905L134.837 42.1774L128.33 36.8421L129.416 35.5177L133.911 39.2035C134.164 38.8958 134.32 38.5684 134.381 38.2213C134.442 37.8741 134.409 37.5363 134.281 37.2078C134.159 36.8787 133.943 36.5867 133.632 36.3316C133.307 36.0656 132.958 35.905 132.584 35.8498C132.216 35.794 131.859 35.834 131.512 35.9696C131.169 36.1019 130.871 36.3189 130.618 36.6205L129.586 37.8796C129.273 38.2609 129.073 38.6479 128.986 39.0406C128.902 39.4361 128.929 39.8161 129.066 40.1805C129.204 40.5449 129.451 40.8738 129.809 41.1673C130.047 41.362 130.291 41.5068 130.544 41.6017C130.796 41.6966 131.047 41.7348 131.297 41.7162C131.547 41.6976 131.789 41.6215 132.021 41.4878L133.891 43.239C133.401 43.6316 132.855 43.8777 132.254 43.9771C131.658 44.076 131.035 44.0239 130.385 43.8208C129.741 43.6171 129.101 43.2548 128.466 42.7337Z" fill="white"/>
<path d="M138.17 52.3252L136.458 49.8487L149.996 46.0687L152.054 49.0469L143.728 60.3682L142.016 57.8918L148.557 49.3266L148.498 49.2412L138.17 52.3252ZM142.359 49.2014L146.401 55.0509L144.597 56.2975L140.555 50.448L142.359 49.2014Z" fill="white"/>
<path d="M144.608 62.3774L156.898 57.3307L157.948 59.8872L153.327 61.7847L153.359 61.8627C153.653 61.8728 153.972 61.9314 154.315 62.0383C154.664 62.1475 154.995 62.3389 155.308 62.6123C155.627 62.8881 155.892 63.2841 156.104 63.8002C156.38 64.4723 156.459 65.1647 156.34 65.8774C156.225 66.5884 155.886 67.2586 155.321 67.8878C154.761 68.5153 153.952 69.046 152.896 69.4797C151.868 69.9019 150.932 70.0923 150.087 70.051C149.248 70.0121 148.53 69.7833 147.933 69.3647C147.341 68.9484 146.901 68.3902 146.614 67.6901C146.41 67.194 146.319 66.7382 146.34 66.3228C146.363 65.9114 146.453 65.5447 146.611 65.2228C146.772 64.8993 146.957 64.6269 147.166 64.4057L147.119 64.2917L145.643 64.8979L144.608 62.3774ZM150.244 62.9874C149.696 63.2125 149.249 63.4848 148.904 63.8044C148.558 64.124 148.33 64.4746 148.221 64.8563C148.115 65.2364 148.147 65.6325 148.316 66.0446C148.487 66.4606 148.745 66.7659 149.091 66.9603C149.442 67.1531 149.851 67.2397 150.32 67.2202C150.795 67.203 151.3 67.0843 151.836 66.8642C152.368 66.6457 152.806 66.3795 153.149 66.0655C153.493 65.7516 153.719 65.4037 153.829 65.022C153.939 64.6403 153.907 64.2395 153.735 63.8194C153.564 63.4033 153.309 63.0964 152.971 62.8987C152.634 62.705 152.233 62.6151 151.766 62.629C151.3 62.6429 150.792 62.7623 150.244 62.9874Z" fill="white"/>
<path d="M149.607 78.1078C149.413 77.1191 149.454 76.2227 149.732 75.4186C150.015 74.6179 150.496 73.9479 151.175 73.4088C151.858 72.8689 152.7 72.5003 153.701 72.3031C154.711 72.1043 155.632 72.1257 156.464 72.3674C157.301 72.6083 158 73.0459 158.561 73.6804C159.127 74.3182 159.508 75.1315 159.703 76.1203C159.897 77.109 159.853 78.0037 159.57 78.8044C159.292 79.6085 158.811 80.2806 158.129 80.8205C157.45 81.3596 156.606 81.7286 155.596 81.9274C154.594 82.1246 153.675 82.1028 152.839 81.8619C152.007 81.6202 151.308 81.1804 150.741 80.5426C150.18 79.9082 149.802 79.0966 149.607 78.1078ZM151.71 77.707C151.799 78.1568 152 78.5073 152.314 78.7585C152.632 79.0088 153.029 79.1665 153.505 79.2315C153.981 79.3008 154.504 79.2795 155.072 79.1675C155.641 79.0556 156.133 78.8772 156.547 78.6325C156.963 78.392 157.27 78.0956 157.47 77.7434C157.669 77.3911 157.725 76.9901 157.636 76.5403C157.547 76.0862 157.342 75.7298 157.022 75.471C156.703 75.2164 156.306 75.0545 155.829 74.9852C155.354 74.9201 154.831 74.9436 154.263 75.0555C153.694 75.1675 153.202 75.3437 152.787 75.5842C152.372 75.8289 152.065 76.1296 151.867 76.4861C151.673 76.846 151.621 77.2529 151.71 77.707Z" fill="white"/>
<path d="M155.206 91.5765L160.928 91.5561L160.938 94.3198L150.973 94.3553L150.963 91.7019L152.773 91.6955L152.773 91.5917C152.188 91.3689 151.718 90.9964 151.361 90.4744C151.005 89.9567 150.825 89.3237 150.823 88.5755C150.82 87.9094 150.969 87.3229 151.27 86.8158C151.571 86.3087 152 85.9114 152.557 85.624C153.114 85.3408 153.782 85.1957 154.56 85.1886L160.905 85.166L160.915 87.9297L155.063 87.9505C154.475 87.9569 154.011 88.1165 153.67 88.4291C153.329 88.7417 153.16 89.1597 153.162 89.683C153.163 90.016 153.24 90.3271 153.392 90.6164C153.549 90.9056 153.779 91.1383 154.083 91.3145C154.386 91.4951 154.76 91.5824 155.206 91.5765Z" fill="white"/>
<path d="M159.653 103.765L157.601 103.449L158.515 97.5179L160.566 97.8338L159.653 103.765ZM162.719 99.5436L162.298 102.275L153.116 100.861C152.864 100.822 152.661 100.831 152.509 100.886C152.36 100.942 152.247 101.034 152.171 101.162C152.093 101.295 152.041 101.453 152.012 101.636C151.992 101.765 151.983 101.895 151.985 102.026C151.991 102.158 151.995 102.26 151.997 102.33L149.899 102.447C149.877 102.303 149.857 102.103 149.84 101.847C149.818 101.59 149.828 101.283 149.87 100.926C149.946 100.264 150.122 99.7001 150.4 99.2352C150.676 98.7746 151.047 98.44 151.513 98.2316C151.978 98.0232 152.533 97.9708 153.178 98.0745L162.719 99.5436Z" fill="white"/>
<path d="M152.462 113.751L154.74 114.819L154.197 112.348L155.94 112.098L156.14 114.608L157.993 112.903L159.101 114.272L157.023 115.714L159.419 116.48L158.782 118.105L156.506 117.031L157.049 119.502L155.306 119.752L155.104 117.248L153.253 118.946L152.145 117.578L154.223 116.135L151.825 115.376L152.462 113.751Z" fill="white"/>
<path d="M152.352 131.1L150.185 133.803L140.932 131.074L140.834 131.196L145.511 139.634L143.344 142.337L132.978 134.027L134.682 131.901L141.429 137.31L141.498 137.224L136.952 129.173L138.112 127.725L146.985 130.431L147.054 130.345L140.281 124.916L141.985 122.79L152.352 131.1Z" fill="white"/>
<path d="M127.003 138.447C127.799 137.83 128.619 137.465 129.462 137.353C130.305 137.247 131.12 137.377 131.906 137.741C132.694 138.109 133.401 138.697 134.027 139.504C134.657 140.317 135.051 141.15 135.208 142.002C135.368 142.858 135.29 143.679 134.975 144.465C134.659 145.257 134.102 145.962 133.306 146.579C132.509 147.197 131.69 147.558 130.847 147.664C130.004 147.776 129.188 147.648 128.399 147.28C127.613 146.916 126.904 146.326 126.274 145.513C125.649 144.706 125.256 143.875 125.096 143.019C124.939 142.167 125.019 141.345 125.335 140.553C125.65 139.766 126.206 139.065 127.003 138.447ZM128.304 140.147C127.942 140.428 127.719 140.765 127.635 141.158C127.554 141.555 127.591 141.98 127.746 142.435C127.898 142.892 128.151 143.349 128.506 143.807C128.861 144.265 129.241 144.625 129.646 144.886C130.047 145.149 130.45 145.291 130.854 145.312C131.258 145.332 131.642 145.202 132.004 144.921C132.37 144.637 132.597 144.295 132.685 143.893C132.769 143.494 132.735 143.065 132.584 142.608C132.429 142.154 132.173 141.698 131.818 141.24C131.463 140.782 131.085 140.421 130.684 140.157C130.279 139.897 129.873 139.757 129.465 139.739C129.057 139.728 128.67 139.864 128.304 140.147Z" fill="white"/>
<path d="M121.299 142.657L126.121 151.377L123.776 152.674L122.935 151.152L122.844 151.202C122.984 151.832 122.943 152.388 122.721 152.871C122.501 153.359 122.147 153.737 121.659 154.007C121.538 154.074 121.403 154.139 121.255 154.201C121.106 154.263 120.972 154.311 120.851 154.343L119.665 152.197C119.797 152.168 119.971 152.111 120.186 152.027C120.401 151.942 120.592 151.854 120.759 151.762C121.115 151.565 121.39 151.312 121.584 151.002C121.776 150.698 121.879 150.365 121.891 150.002C121.899 149.642 121.805 149.283 121.608 148.928L118.881 143.994L121.299 142.657Z" fill="white"/>
<path d="M110.461 147.582C111.423 147.229 112.323 147.119 113.16 147.254C113.995 147.394 114.731 147.755 115.369 148.336C116.008 148.921 116.509 149.707 116.871 150.694C117.225 151.656 117.348 152.569 117.242 153.433C117.135 154.297 116.818 155.056 116.289 155.711C115.756 156.368 115.031 156.865 114.113 157.202C113.496 157.429 112.885 157.54 112.281 157.537C111.673 157.539 111.098 157.416 110.555 157.168C110.009 156.922 109.514 156.542 109.072 156.027C108.631 155.516 108.264 154.863 107.972 154.068L107.71 153.355L115.608 150.453L116.198 152.061L110.742 154.065C110.88 154.439 111.082 154.74 111.351 154.969C111.619 155.197 111.927 155.34 112.275 155.396C112.62 155.458 112.982 155.42 113.359 155.281C113.753 155.136 114.069 154.917 114.306 154.622C114.541 154.333 114.687 154.005 114.746 153.638C114.806 153.275 114.77 152.908 114.639 152.537L114.077 151.009C113.907 150.546 113.675 150.177 113.381 149.903C113.082 149.63 112.741 149.461 112.357 149.394C111.974 149.328 111.564 149.375 111.13 149.534C110.842 149.64 110.593 149.778 110.383 149.947C110.174 150.116 110.013 150.313 109.902 150.538C109.792 150.763 109.735 151.01 109.732 151.278L107.275 152.001C107.185 151.38 107.249 150.785 107.469 150.216C107.686 149.653 108.046 149.142 108.551 148.685C109.053 148.233 109.69 147.865 110.461 147.582Z" fill="white"/>
<path d="M97.2853 151.06L100.288 150.848L96.6509 164.425L93.0399 164.681L87.5331 151.751L90.5358 151.538L94.5793 161.528L94.6828 161.52L97.2853 151.06ZM97.8417 156.257L90.7492 156.759L90.5944 154.571L97.6869 154.069L97.8417 156.257Z" fill="white"/>
<path d="M85.2535 151.485L83.3546 164.635L80.6193 164.24L81.3332 159.296L81.2498 159.284C81.0916 159.532 80.8793 159.777 80.6128 160.018C80.3415 160.263 80.0085 160.451 79.6138 160.582C79.2142 160.716 78.7383 160.744 78.1861 160.664C77.4669 160.56 76.8306 160.276 76.2772 159.812C75.7231 159.351 75.3186 158.718 75.0635 157.912C74.8078 157.111 74.7616 156.145 74.9248 155.015C75.0837 153.915 75.3954 153.012 75.8601 152.305C76.3199 151.602 76.8819 151.1 77.546 150.798C78.2052 150.5 78.9093 150.405 79.6584 150.514C80.1892 150.59 80.6281 150.743 80.9752 150.973C81.318 151.201 81.5879 151.465 81.785 151.765C81.9815 152.068 82.1221 152.366 82.2066 152.658L82.3286 152.676L82.5567 151.096L85.2535 151.485ZM81.8639 156.03C81.9486 155.444 81.9411 154.92 81.8415 154.46C81.7419 154 81.5556 153.626 81.2826 153.337C81.0091 153.053 80.6518 152.879 80.2109 152.815C79.7657 152.751 79.3714 152.819 79.028 153.018C78.6839 153.222 78.4012 153.531 78.1798 153.945C77.9534 154.362 77.7988 154.857 77.716 155.431C77.6338 156 77.6407 156.513 77.7366 156.968C77.8326 157.423 78.017 157.795 78.29 158.083C78.563 158.372 78.9242 158.549 79.3736 158.613C79.8188 158.678 80.2125 158.614 80.5547 158.424C80.8926 158.232 81.1741 157.932 81.3992 157.523C81.6243 157.114 81.7792 156.616 81.8639 156.03Z" fill="white"/>
<path d="M69.1808 147.806C70.1314 148.14 70.8825 148.632 71.4341 149.279C71.9801 149.93 72.3131 150.684 72.4331 151.542C72.5516 152.405 72.4416 153.317 72.103 154.28C71.7615 155.251 71.2753 156.034 70.6446 156.628C70.0124 157.227 69.2805 157.606 68.4489 157.768C67.6118 157.932 66.718 157.847 65.7673 157.513C64.8167 157.178 64.0683 156.686 63.5223 156.035C62.9707 155.387 62.6357 154.632 62.5171 153.77C62.3972 152.912 62.5079 151.997 62.8494 151.026C63.1881 150.063 63.6735 149.283 64.3057 148.684C64.9364 148.09 65.6704 147.711 66.5074 147.547C67.339 147.385 68.2301 147.472 69.1808 147.806ZM68.4583 149.821C68.0258 149.669 67.6217 149.665 67.2459 149.808C66.8687 149.955 66.5313 150.217 66.2338 150.593C65.9322 150.969 65.6852 151.43 65.493 151.976C65.3007 152.523 65.2047 153.037 65.205 153.519C65.2012 153.999 65.3004 154.414 65.5026 154.765C65.7047 155.116 66.0221 155.367 66.4546 155.519C66.8911 155.673 67.3021 155.677 67.6875 155.533C68.0687 155.388 68.4102 155.127 68.7118 154.752C69.0093 154.375 69.2543 153.913 69.4465 153.367C69.6388 152.82 69.7368 152.307 69.7406 151.827C69.7403 151.345 69.637 150.928 69.4308 150.576C69.219 150.227 68.8949 149.975 68.4583 149.821Z" fill="white"/>
<path d="M54.7458 145.785L51.8501 150.72L49.4665 149.322L54.5093 140.727L56.7978 142.07L55.8818 143.631L55.9713 143.684C56.4608 143.294 57.0209 143.078 57.6518 143.037C58.2789 142.994 58.9151 143.162 59.5604 143.54C60.1349 143.877 60.5638 144.305 60.847 144.822C61.1302 145.339 61.2538 145.91 61.2176 146.536C61.1778 147.16 60.9627 147.808 60.5725 148.482L57.3616 153.954L54.978 152.556L57.9393 147.508C58.2332 146.999 58.3324 146.518 58.2367 146.066C58.141 145.613 57.8675 145.255 57.4161 144.99C57.1289 144.822 56.822 144.729 56.4955 144.713C56.1668 144.701 55.8493 144.78 55.5432 144.952C55.2333 145.121 54.9675 145.399 54.7458 145.785Z" fill="white"/>
<path d="M42.0383 143.436L43.3549 141.831L47.9946 145.636L46.6781 147.242L42.0383 143.436ZM44.1107 148.223L41.9739 146.471L47.8655 139.288C48.0274 139.091 48.1234 138.912 48.1538 138.752C48.1814 138.596 48.1595 138.452 48.0881 138.321C48.0134 138.187 47.9042 138.061 47.7604 137.943C47.6601 137.861 47.5529 137.787 47.4389 137.721C47.3221 137.659 47.2328 137.611 47.1711 137.577L48.1393 135.711C48.2737 135.766 48.4557 135.851 48.6853 135.966C48.9177 136.079 49.1767 136.244 49.4625 136.461C49.994 136.864 50.3892 137.302 50.6481 137.778C50.9038 138.25 51.0028 138.74 50.9453 139.246C50.8878 139.753 50.6503 140.257 50.2327 140.76L44.1107 148.223Z" fill="white"/>
<path d="M37.0978 132.176L35.0223 133.598L37.4273 134.383L36.7593 136.012L34.4941 134.912L35.0239 137.374L33.2828 137.635L33.093 135.112L31.2178 136.789L30.1406 135.416L32.22 133.999L29.815 133.215L30.483 131.586L32.7442 132.681L32.2184 130.224L33.9596 129.963L34.1494 132.486L36.0206 130.803L37.0978 132.176Z" fill="white"/>
<path d="M22.1923 123.295L20.9611 120.057L28.0049 113.464L27.9495 113.319L18.3052 113.071L17.0741 109.833L29.4931 105.111L30.4614 107.658L22.3781 110.731L22.4173 110.834L31.6619 110.998L32.3212 112.732L25.4902 119.008L25.5294 119.111L33.643 116.026L34.6113 118.573L22.1923 123.295Z" fill="white"/>
<path d="M28.7359 97.7321C28.8618 98.7319 28.7583 99.6233 28.4253 100.406C28.0875 101.186 27.5616 101.821 26.8475 102.312C26.1291 102.803 25.2635 103.113 24.2508 103.24C23.2295 103.369 22.3121 103.284 21.4986 102.985C20.6808 102.687 20.0138 102.202 19.4977 101.53C18.9767 100.855 18.6533 100.017 18.5274 99.0174C18.4015 98.0176 18.5075 97.1281 18.8453 96.3489C19.1783 95.5659 19.704 94.9287 20.4224 94.4372C21.1365 93.9462 22.0042 93.6364 23.0254 93.5079C24.0381 93.3804 24.9534 93.4656 25.7712 93.7637C26.5847 94.0623 27.252 94.5493 27.7729 95.2248C28.2891 95.8965 28.6101 96.7323 28.7359 97.7321ZM26.6102 97.9867C26.553 97.5318 26.3764 97.1683 26.0806 96.896C25.7805 96.6243 25.3954 96.4396 24.9254 96.3418C24.4548 96.2398 23.9321 96.225 23.357 96.2974C22.782 96.3698 22.2792 96.5137 21.8487 96.7292C21.4176 96.9404 21.0903 97.2148 20.8669 97.5525C20.6435 97.8901 20.5604 98.2863 20.6177 98.7412C20.6755 99.2003 20.855 99.57 21.1562 99.8503C21.4569 100.126 21.8425 100.315 22.313 100.417C22.7831 100.515 23.3056 100.528 23.8806 100.455C24.4556 100.383 24.9586 100.241 25.3898 100.03C25.8203 99.8145 26.1471 99.5358 26.3699 99.1939C26.5879 98.8482 26.668 98.4458 26.6102 97.9867Z" fill="white"/>
<path d="M28.0151 90.5847L18.0545 90.2947L18.1325 87.6165L19.8704 87.6671L19.8734 87.5633C19.2605 87.3638 18.8025 87.0454 18.4993 86.6082C18.1919 86.1709 18.0463 85.6734 18.0625 85.1157C18.0665 84.9774 18.0795 84.8285 18.1015 84.669C18.1234 84.5096 18.1513 84.3698 18.1851 84.2496L20.6363 84.321C20.5936 84.4495 20.5538 84.6279 20.5169 84.8562C20.48 85.0844 20.4587 85.2937 20.4532 85.4839C20.4413 85.8902 20.5194 86.256 20.6873 86.581C20.8511 86.9017 21.0859 87.1595 21.3917 87.3544C21.6977 87.545 22.0539 87.6463 22.4603 87.6581L28.0955 87.8222L28.0151 90.5847Z" fill="white"/>
<path d="M29.2845 78.7526C29.1004 79.7609 28.7377 80.5916 28.1964 81.2446C27.6517 81.8925 26.967 82.3434 26.1425 82.5973C25.3137 82.8505 24.3823 82.8827 23.3485 82.6939C22.3401 82.5098 21.4909 82.1525 20.8008 81.622C20.1107 81.0915 19.6178 80.4321 19.322 79.6439C19.0271 78.8515 18.9674 77.9745 19.143 77.0129C19.2611 76.3662 19.4752 75.7832 19.7855 75.2639C20.0922 74.7396 20.49 74.3066 20.9789 73.965C21.4685 73.6192 22.0474 73.3864 22.7155 73.2666C23.3794 73.146 24.1283 73.1618 24.9622 73.3141L25.7089 73.4504L24.1975 81.7278L22.5127 81.4202L23.5568 75.7019C23.1654 75.6305 22.8031 75.6522 22.4699 75.7673C22.1368 75.8823 21.8575 76.0753 21.6322 76.3463C21.4034 76.6123 21.2528 76.9431 21.1806 77.3388C21.1052 77.7515 21.1341 78.1349 21.2673 78.4889C21.3971 78.838 21.6051 79.131 21.8916 79.3679C22.1738 79.6041 22.5081 79.7597 22.8945 79.8346L24.4964 80.1271C24.9814 80.2157 25.4168 80.2028 25.8026 80.0886C26.1891 79.9702 26.5084 79.7625 26.7605 79.4656C27.0125 79.1687 27.1801 78.7926 27.2632 78.3374C27.3184 78.0353 27.3264 77.751 27.2871 77.4844C27.2478 77.2178 27.1594 76.9797 27.0219 76.7699C26.8843 76.5601 26.7007 76.3859 26.471 76.2473L27.0961 73.7631C27.6769 74.001 28.1567 74.359 28.5355 74.837C28.9107 75.31 29.1672 75.88 29.3048 76.5471C29.4389 77.209 29.4322 77.9442 29.2845 78.7526Z" fill="white"/>
<path d="M32.9898 65.6107L31.6446 68.3036L21.8083 58.2631L23.426 55.0247L37.3587 56.8645L36.0135 59.5575L25.3565 57.9542L25.3101 58.0471L32.9898 65.6107ZM28.2338 63.4453L31.4111 57.0844L33.3728 58.0643L30.1954 64.4251L28.2338 63.4453Z" fill="white"/>
<path d="M38.6931 55.1328L28.3418 46.8035L30.0743 44.6503L33.9662 47.7819L34.019 47.7162C33.886 47.4538 33.7836 47.1465 33.7116 46.7944C33.639 46.4362 33.6469 46.0539 33.7351 45.6475C33.8228 45.2351 34.0415 44.8115 34.3912 44.3768C34.8467 43.8108 35.4153 43.4078 36.0968 43.1679C36.775 42.9253 37.5258 42.8994 38.3493 43.0902C39.1694 43.2783 40.0243 43.7302 40.9139 44.446C41.7798 45.1428 42.3985 45.871 42.7699 46.6306C43.1406 47.3841 43.2868 48.1235 43.2084 48.8487C43.1293 49.5678 42.8526 50.2222 42.3781 50.8119C42.0419 51.2297 41.6868 51.5296 41.3127 51.7116C40.9414 51.8902 40.5767 51.9881 40.2187 52.0054C39.8573 52.0199 39.5294 51.9892 39.2351 51.9134L39.1579 52.0094L40.4012 53.0099L38.6931 55.1328ZM36.5073 49.9016C36.9689 50.2731 37.4231 50.533 37.8698 50.6816C38.3166 50.8301 38.7336 50.8603 39.1208 50.7722C39.5048 50.6815 39.8363 50.4626 40.1156 50.1155C40.3976 49.7651 40.5402 49.3913 40.5433 48.9941C40.5431 48.5942 40.4213 48.1937 40.1779 47.7925C39.9339 47.3851 39.5861 46.9998 39.1346 46.6365C38.6864 46.2759 38.242 46.021 37.8014 45.8718C37.3607 45.7226 36.9468 45.6921 36.5595 45.7802C36.1722 45.8682 35.8362 46.0892 35.5515 46.443C35.2696 46.7934 35.1236 47.1645 35.1137 47.5562C35.1065 47.9446 35.2216 48.3397 35.4589 48.7416C35.6962 49.1435 36.0457 49.5302 36.5073 49.9016Z" fill="white"/>
<path d="M50.036 43.1624C49.2657 43.8121 48.4615 44.2104 47.6234 44.3571C46.7858 44.4978 45.9668 44.4022 45.1663 44.0702C44.363 43.735 43.6323 43.1773 42.9742 42.397C42.3105 41.6102 41.8826 40.7943 41.6904 39.9493C41.4954 39.101 41.5393 38.2775 41.8219 37.479C42.1051 36.6743 42.6318 35.9472 43.4021 35.2974C44.1724 34.6477 44.9763 34.2525 45.8139 34.1119C46.652 33.9651 47.4727 34.0594 48.276 34.3946C49.0765 34.7265 49.8086 35.2859 50.4722 36.0727C51.1303 36.8529 51.5569 37.6672 51.7518 38.5155C51.9441 39.3605 51.8986 40.1854 51.6154 40.99C51.3327 41.7886 50.8063 42.5127 50.036 43.1624ZM48.6656 41.5176C49.016 41.222 49.2249 40.876 49.2924 40.4797C49.357 40.08 49.3024 39.6565 49.1286 39.2089C48.9582 38.7586 48.6861 38.312 48.3124 37.869C47.9388 37.426 47.5444 37.0825 47.1293 36.8385C46.7175 36.5918 46.3091 36.4666 45.9043 36.4629C45.4995 36.4592 45.1219 36.6052 44.7714 36.9007C44.4177 37.1991 44.2052 37.5509 44.134 37.9561C44.066 38.3586 44.1173 38.785 44.2878 39.2353C44.4615 39.6828 44.7353 40.128 45.1089 40.571C45.4826 41.014 45.8753 41.3589 46.2871 41.6057C46.7022 41.8496 47.1139 41.972 47.522 41.9729C47.9306 41.9677 48.3118 41.816 48.6656 41.5176Z" fill="white"/>
<path d="M59.0865 31.7401L56.2955 26.745L58.708 25.3969L63.5686 34.0959L61.2523 35.3901L60.3694 33.81L60.2788 33.8607C60.3673 34.4801 60.2696 35.0722 59.9857 35.6371C59.7056 36.1998 59.239 36.6637 58.5858 37.0286C58.0044 37.3535 57.419 37.5072 56.8295 37.4897C56.2401 37.4723 55.6848 37.2896 55.1634 36.9418C54.6459 36.5919 54.1954 36.0782 53.8118 35.4007L50.717 29.8619L53.1296 28.5139L55.9839 33.6222C56.2746 34.1336 56.6392 34.4625 57.0777 34.6089C57.5162 34.7552 57.9639 34.7008 58.4207 34.4455C58.7115 34.2831 58.9464 34.0651 59.1255 33.7916C59.3025 33.5144 59.3946 33.2004 59.4017 32.8496C59.4126 32.4967 59.3075 32.1268 59.0865 31.7401Z" fill="white"/>
<path d="M67.5625 21.9701L68.2782 23.9189L62.6452 25.9878L61.9295 24.0391L67.5625 21.9701ZM62.3852 21.3284L64.9794 20.3756L68.1824 29.096C68.2704 29.3355 68.3755 29.5088 68.4978 29.616C68.6186 29.7191 68.7536 29.7731 68.9029 29.7782C69.0563 29.7818 69.2202 29.7515 69.3948 29.6874C69.5166 29.6426 69.6347 29.5877 69.749 29.5227C69.8619 29.4536 69.9485 29.4011 70.009 29.365L71.1261 31.1456C71.0111 31.2339 70.8455 31.3477 70.6294 31.487C70.4148 31.6303 70.1413 31.7699 69.8088 31.9059C69.1925 32.1598 68.6139 32.2779 68.0729 32.2601C67.5359 32.2408 67.0637 32.0778 66.6563 31.7714C66.2488 31.4649 65.9345 31.0044 65.7134 30.3898L62.3852 21.3284Z" fill="white"/>
<path d="M79.7787 23.4372L79.6113 20.9269L77.7114 22.5974L76.6494 21.1931L78.75 19.8038L76.3611 19.0063L77.0228 17.3748L79.2907 18.4957L78.8018 16.0278L80.5319 15.7997L80.6929 18.3108L82.5928 16.6404L83.6548 18.0446L81.5607 19.4332L83.9431 20.2315L83.2814 21.863L81.0134 20.7421L81.5089 23.2091L79.7787 23.4372Z" fill="white"/>
<defs>
<linearGradient id="paint0_linear_10_418" x1="0" y1="90.0039" x2="180" y2="90.0039" gradientUnits="userSpaceOnUse">
<stop stop-color="#386BB7"/>
<stop offset="1" stop-color="#E24C4A"/>
</linearGradient>
</defs>
</svg>
