<svg width="119" height="41" viewBox="0 0 119 41" fill="none" xmlns="http://www.w3.org/2000/svg">
<g clip-path="url(#clip0_10_692)">
<path d="M50.0596 16.6275C50.4265 16.4807 50.8668 16.2606 51.2337 16.1138C51.6739 15.8937 52.0408 15.6735 52.4811 15.4534C53.2675 14.9954 53.9841 14.427 54.6092 13.7656H56.7372V27.6346H53.7286V17.5814C53.3136 17.869 52.8712 18.1148 52.4078 18.3152C51.9317 18.5423 51.4415 18.7384 50.9401 18.9023L50.0596 16.6275Z" fill="#333333"/>
<path d="M70.7528 20.5886C70.7528 22.9368 70.3126 24.698 69.432 25.9454C69.0048 26.515 68.4508 26.9773 67.814 27.2958C67.1772 27.6142 66.475 27.7799 65.763 27.7799C65.051 27.7799 64.3487 27.6142 63.7119 27.2958C63.0751 26.9773 62.5211 26.515 62.0939 25.9454C61.2134 24.698 60.7731 22.9368 60.7731 20.5886C60.7686 19.5502 60.8919 18.5151 61.14 17.5066C61.3469 16.6942 61.6946 15.9243 62.1673 15.2318C62.5769 14.6363 63.1328 14.1561 63.7817 13.8376C64.4189 13.5131 65.1214 13.3375 65.8363 13.3239C66.5532 13.2943 67.2658 13.447 67.9075 13.7679C68.5492 14.0887 69.099 14.5672 69.5054 15.1585C70.3859 16.4059 70.7528 18.3138 70.7528 20.5886ZM67.6709 20.5886C67.6845 19.9518 67.66 19.3147 67.5975 18.6807C67.5495 18.1829 67.4511 17.6911 67.3039 17.2131C67.1876 16.8527 66.9862 16.5255 66.7169 16.2592C66.4568 16.0205 66.1159 15.8894 65.763 15.8923C65.4126 15.9028 65.0762 16.0322 64.809 16.2592C64.5397 16.5255 64.3383 16.8527 64.222 17.2131C64.0399 17.6816 63.9406 18.1782 63.9284 18.6807C63.8644 19.3146 63.8399 19.9518 63.8551 20.5886C63.8399 21.2255 63.8644 21.8627 63.9284 22.4965C63.9689 22.9955 64.0674 23.488 64.222 23.9641C64.3383 24.3246 64.5397 24.6518 64.809 24.9181C65.0691 25.1567 65.41 25.2879 65.763 25.285C66.1133 25.2744 66.4497 25.1451 66.7169 24.9181C66.9862 24.6518 67.1876 24.3246 67.3039 23.9641C67.4511 23.4861 67.5495 22.9944 67.5975 22.4965C67.6631 21.8628 67.6876 21.2255 67.6709 20.5886Z" fill="#333333"/>
<path d="M82.3472 15.2332C82.494 15.7469 82.7141 16.4073 82.8609 17.0678C83.081 17.7282 83.2278 18.462 83.4479 19.1958L84.1084 21.3972C84.3285 22.131 84.5487 22.7915 84.7688 23.4519C84.9156 22.7915 85.1357 22.0576 85.2825 21.2505C85.4292 20.4433 85.6494 19.6361 85.7961 18.7555C85.9429 17.8749 86.0896 17.0678 86.2364 16.1872C86.3832 15.3066 86.5299 14.4994 86.6767 13.7656H89.9054C89.4652 16.1138 88.8781 18.462 88.2911 20.8102C87.704 23.2317 87.0436 25.4332 86.3098 27.6346H83.4479C83.0077 26.3871 82.494 24.9929 82.0537 23.5986C81.6134 22.2044 81.1731 20.8102 80.7329 19.3426C80.2926 20.7368 79.8523 22.131 79.4854 23.5986C79.1185 25.0663 78.6048 26.3137 78.1645 27.6346H75.3027C74.5689 25.5065 73.9085 23.2317 73.3214 20.8102C72.7344 18.3886 72.1473 16.0404 71.707 13.7656H75.0825L75.5228 16.1872C75.6696 17.0678 75.8164 17.8749 76.0365 18.7555C76.1833 19.6361 76.4034 20.4433 76.5502 21.2505C76.693 21.9974 76.8892 22.733 77.1372 23.4519C77.3573 22.7915 77.5775 22.131 77.871 21.3972L78.5314 19.1958C78.7516 18.462 78.9717 17.7282 79.1185 17.0678C79.2652 16.4073 79.4854 15.7469 79.6321 15.2332H82.3472Z" fill="#333333"/>
<path d="M90.6392 22.4233C90.5995 20.8834 91.1509 19.3867 92.1802 18.2406C92.6415 17.7903 93.1912 17.4405 93.7946 17.2133C94.3803 16.986 95.001 16.8619 95.6291 16.8464C96.282 16.8113 96.9347 16.9177 97.5427 17.1584C98.1506 17.399 98.6994 17.7682 99.1514 18.2406C100.107 19.3587 100.582 20.8096 100.472 22.2766V22.8636C100.484 23.0621 100.459 23.2611 100.399 23.4506H93.6478C93.6822 23.7437 93.7784 24.0261 93.9303 24.2792C94.0821 24.5322 94.286 24.75 94.5284 24.9183C95.1415 25.3029 95.861 25.4828 96.5831 25.4319C97.1239 25.4194 97.6632 25.3704 98.1974 25.2852C98.6509 25.2165 99.0944 25.0933 99.5183 24.9183L99.8852 27.3398C99.6731 27.4355 99.4518 27.5093 99.2248 27.56L98.3442 27.7801C98.0089 27.87 97.6639 27.9193 97.3169 27.9269C96.9533 27.9878 96.5846 28.0124 96.2161 28.0002C95.3638 28.0164 94.5165 27.8669 93.7212 27.56C93.0563 27.3003 92.4555 26.8997 91.9601 26.3859C91.4917 25.8819 91.1408 25.2805 90.9327 24.6247C90.7273 23.9093 90.6284 23.1676 90.6392 22.4233ZM97.6104 21.2492C97.597 20.9988 97.5476 20.7517 97.4636 20.5154C97.3699 20.2806 97.2466 20.0586 97.0967 19.855C96.9548 19.6476 96.7485 19.4928 96.5097 19.4147C96.2362 19.2826 95.9306 19.2317 95.6291 19.2679C95.3301 19.2749 95.0336 19.3243 94.7485 19.4147C94.54 19.5435 94.3435 19.6909 94.1615 19.855C93.9967 20.0487 93.872 20.2732 93.7946 20.5154C93.7212 20.8089 93.6478 21.0291 93.5744 21.2492H97.6104Z" fill="#333333"/>
<path d="M112.58 22.3506C112.577 23.1234 112.454 23.891 112.213 24.6254C111.99 25.2908 111.613 25.8942 111.112 26.3865C110.647 26.8846 110.068 27.2623 109.425 27.4872C108.666 27.7334 107.874 27.8573 107.076 27.8541C106.708 27.8663 106.339 27.8417 105.976 27.7808C105.609 27.7074 105.168 27.7074 104.802 27.634L103.701 27.4139C103.334 27.3405 103.04 27.2671 102.747 27.1937V12.5176L105.756 12.0039V17.2139C106.443 16.8837 107.194 16.7083 107.957 16.7003C108.634 16.7018 109.305 16.8261 109.938 17.0672C110.486 17.3493 110.982 17.7214 111.406 18.1679C111.8 18.6989 112.098 19.295 112.286 19.929C112.497 20.7186 112.595 21.5337 112.58 22.3506ZM109.571 22.2772C109.571 20.3693 108.837 19.4154 107.443 19.4154C107.145 19.4284 106.849 19.4777 106.563 19.5621C106.302 19.6149 106.054 19.7143 105.829 19.8556V25.2858C105.976 25.2858 106.196 25.3592 106.416 25.3592H107.15C107.497 25.3737 107.843 25.3085 108.161 25.1685C108.479 25.0286 108.76 24.8177 108.984 24.552C109.375 23.8581 109.578 23.0738 109.571 22.2772Z" fill="#333333"/>
<path d="M6.7228 13.6102L20.0746 0.258369C20.2407 0.0952801 20.4642 0.00390625 20.6969 0.00390625C20.9297 0.00390625 21.1532 0.0952801 21.3193 0.258369L40.5549 19.6072C40.718 19.7733 40.8094 19.9967 40.8094 20.2295C40.8094 20.4623 40.718 20.6858 40.5549 20.8518L40.4418 20.965C39.6744 21.7262 38.6373 22.1533 37.5564 22.1533C36.4756 22.1533 35.4385 21.7262 34.6711 20.965L21.093 7.38688C20.9269 7.22379 20.7034 7.13242 20.4706 7.13242C20.2379 7.13242 20.0144 7.22379 19.8483 7.38688L12.2672 14.968C11.4998 15.7292 10.4627 16.1563 9.38185 16.1563C8.30098 16.1563 7.26389 15.7292 6.4965 14.968C6.41831 14.7407 6.39805 14.4975 6.43757 14.2604C6.47708 14.0233 6.57512 13.7998 6.7228 13.6102Z" fill="url(#paint0_linear_10_692)"/>
<path d="M34.7842 26.3967L21.4324 39.7486C21.2663 39.9116 21.0429 40.003 20.8101 40.003C20.5773 40.003 20.3538 39.9116 20.1878 39.7486L0.838935 20.3997C0.675847 20.2337 0.584473 20.0102 0.584473 19.7774C0.584473 19.5446 0.675847 19.3212 0.838935 19.1551C1.60633 18.3939 2.64341 17.9668 3.72429 17.9668C4.80516 17.9668 5.84224 18.3939 6.60964 19.1551L20.0746 32.62C20.2407 32.7831 20.4642 32.8745 20.6969 32.8745C20.9297 32.8745 21.1532 32.7831 21.3193 32.62L28.9004 25.0389C29.6678 24.2778 30.7049 23.8506 31.7857 23.8506C32.8666 23.8506 33.9037 24.2778 34.6711 25.0389C34.7711 25.1183 34.8537 25.2173 34.914 25.3299C34.9742 25.4424 35.0108 25.5661 35.0214 25.6934C35.032 25.8206 35.0164 25.9486 34.9756 26.0696C34.9348 26.1906 34.8697 26.3019 34.7842 26.3967Z" fill="url(#paint1_linear_10_692)"/>
<path d="M22.1115 19.6075L18.8301 16.3261C18.3928 15.8467 18.1504 15.2211 18.1504 14.5722C18.1504 13.9233 18.3928 13.2978 18.8301 12.8184L18.9433 12.7052C19.1675 12.4643 19.4389 12.2721 19.7406 12.1407C20.0424 12.0092 20.368 11.9414 20.6971 11.9414C21.0262 11.9414 21.3518 12.0092 21.6536 12.1407C21.9553 12.2721 22.2268 12.4643 22.451 12.7052L29.24 19.4943C29.4031 19.6604 29.4945 19.8839 29.4945 20.1166C29.4945 20.3494 29.4031 20.5729 29.24 20.739L22.6773 27.3017C22.4531 27.5427 22.1817 27.7349 21.8799 27.8663C21.5781 27.9977 21.2526 28.0656 20.9234 28.0656C20.5943 28.0656 20.2687 27.9977 19.9669 27.8663C19.6652 27.7349 19.3938 27.5427 19.1696 27.3017C18.9286 27.0775 18.7364 26.8061 18.605 26.5044C18.4736 26.2026 18.4057 25.877 18.4057 25.5479C18.4057 25.2188 18.4736 24.8932 18.605 24.5914C18.7364 24.2896 18.9286 24.0182 19.1696 23.794L22.2247 20.739C22.3433 20.5677 22.3971 20.3597 22.3763 20.1524C22.3556 19.945 22.2617 19.7519 22.1115 19.6075Z" fill="url(#paint2_linear_10_692)"/>
<path d="M18.0377 19.2684L16.9062 18.1369C16.682 17.8959 16.4106 17.7037 16.1088 17.5723C15.8071 17.4409 15.4815 17.373 15.1523 17.373C14.8232 17.373 14.4976 17.4409 14.1958 17.5723C13.8941 17.7037 13.6227 17.8959 13.3985 18.1369C12.9612 18.6163 12.7187 19.2418 12.7188 19.8907C12.7187 20.5396 12.9612 21.1651 13.3985 21.6446C13.6227 21.8855 13.8941 22.0777 14.1958 22.2092C14.4976 22.3406 14.8232 22.4084 15.1523 22.4084C15.4815 22.4084 15.8071 22.3406 16.1088 22.2092C16.4106 22.0777 16.682 21.8855 16.9062 21.6446L18.0377 20.5131C18.2008 20.347 18.2921 20.1235 18.2921 19.8907C18.2921 19.658 18.2008 19.4345 18.0377 19.2684Z" fill="url(#paint3_linear_10_692)"/>
</g>
<defs>
<linearGradient id="paint0_linear_10_692" x1="6.41791" y1="11.0786" x2="40.8094" y2="11.0786" gradientUnits="userSpaceOnUse">
<stop stop-color="#386BB7"/>
<stop offset="1" stop-color="#E24C4A"/>
</linearGradient>
<linearGradient id="paint1_linear_10_692" x1="0.584473" y1="28.9849" x2="35.0246" y2="28.9849" gradientUnits="userSpaceOnUse">
<stop stop-color="#386BB7"/>
<stop offset="1" stop-color="#E24C4A"/>
</linearGradient>
<linearGradient id="paint2_linear_10_692" x1="18.1504" y1="20.0035" x2="29.4945" y2="20.0035" gradientUnits="userSpaceOnUse">
<stop stop-color="#386BB7"/>
<stop offset="1" stop-color="#E24C4A"/>
</linearGradient>
<linearGradient id="paint3_linear_10_692" x1="12.7188" y1="19.8907" x2="18.2921" y2="19.8907" gradientUnits="userSpaceOnUse">
<stop stop-color="#386BB7"/>
<stop offset="1" stop-color="#E24C4A"/>
</linearGradient>
<clipPath id="clip0_10_692">
<rect width="118" height="40" fill="white" transform="translate(0.584473 0.433594)"/>
</clipPath>
</defs>
</svg>
