<svg width="136" height="40" viewBox="0 0 136 40" fill="none" xmlns="http://www.w3.org/2000/svg">
<path fill-rule="evenodd" clip-rule="evenodd" d="M89.1216 15.6168C90.2336 15.6168 91.1062 15.9635 91.7422 16.6579C92.3788 17.3513 92.7184 18.3408 92.7644 19.625C92.774 19.7497 92.7791 19.9177 92.7805 20.1294L92.781 20.2617C92.781 20.5368 92.776 20.7548 92.7644 20.9151C92.7184 22.1549 92.3743 23.1294 91.7339 23.8405C91.0917 24.5516 90.2202 24.9071 89.1216 24.9071C88.0096 24.9071 87.1786 24.5283 86.6296 23.7717V27.5735C86.6296 27.7 86.5891 27.8031 86.5088 27.883C86.4291 27.964 86.326 28.0039 86.1997 28.0039H83.983C83.8577 28.0039 83.7508 27.964 83.6656 27.883C83.5791 27.8031 83.5359 27.7 83.5359 27.5735V16.2186C83.5359 16.0927 83.5791 15.989 83.6656 15.9097C83.7508 15.8287 83.8577 15.7882 83.983 15.7882H86.0279C86.1537 15.7882 86.2573 15.8287 86.3365 15.9097C86.418 15.989 86.4573 16.0927 86.4573 16.2186V16.8382C87.0767 16.0234 87.9637 15.6168 89.1216 15.6168ZM55.9559 12.5199C56.9647 12.5199 57.8373 12.6946 58.577 13.0446C59.3155 13.3946 59.8834 13.83 60.2773 14.3514C60.6734 14.8739 60.8817 15.387 60.9055 15.8918C60.9055 15.9949 60.8701 16.0837 60.802 16.1586C60.7332 16.2335 60.6479 16.2706 60.5449 16.2706H58.1382C57.8866 16.2706 57.6916 16.1669 57.5547 15.9606C57.4861 15.7198 57.3072 15.5163 57.0218 15.3499C56.7354 15.1834 56.3803 15.1002 55.9559 15.1002C55.475 15.1002 55.1032 15.1862 54.8389 15.3582C54.5758 15.5307 54.4445 15.7825 54.4445 16.1153C54.4445 16.4487 54.6151 16.7088 54.9597 16.8985C55.3032 17.0877 55.9453 17.2801 56.8833 17.4748C57.9603 17.6701 58.8174 17.9136 59.4523 18.2059C60.0889 18.4982 60.5587 18.877 60.8624 19.3413C61.1659 19.8061 61.3183 20.3935 61.3183 21.1047C61.3183 21.8851 61.0945 22.5618 60.6479 23.1348C60.2008 23.7089 59.5826 24.1476 58.7914 24.451C58.0007 24.755 57.0961 24.907 56.0766 24.907C54.9647 24.907 54.0195 24.7461 53.2406 24.4255C52.4616 24.1043 51.871 23.68 51.4716 23.152C51.0699 22.625 50.8571 22.0509 50.835 21.4319C50.835 21.3287 50.8732 21.2428 50.9469 21.174C51.0211 21.1047 51.1103 21.0702 51.2128 21.0702H53.4993C53.6361 21.0702 53.748 21.093 53.8334 21.1396C53.9203 21.185 54.014 21.2655 54.117 21.3803C54.2655 21.6555 54.4982 21.8823 54.814 22.0593C55.1281 22.2384 55.5492 22.326 56.0766 22.326C56.6944 22.326 57.1703 22.2318 57.5027 22.0426C57.8346 21.8535 58.0007 21.5928 58.0007 21.2599C58.0007 21.0187 57.9155 20.8212 57.7437 20.6664C57.5714 20.5112 57.296 20.3736 56.9187 20.2537C56.5409 20.1329 55.9957 19.9986 55.286 19.8489C53.8987 19.5737 52.8627 19.1549 52.1762 18.5925C51.4882 18.0312 51.1441 17.228 51.1441 16.1846C51.1441 15.473 51.3424 14.8395 51.7369 14.2832C52.1331 13.7274 52.6937 13.2942 53.4206 12.9847C54.1497 12.6741 54.9941 12.5199 55.9559 12.5199ZM120.397 15.6168C121.383 15.6168 122.216 15.8143 122.898 16.2103C123.58 16.6058 124.089 17.1505 124.428 17.8444C124.764 18.5389 124.934 19.3271 124.934 20.2107V20.64C124.934 20.7665 124.892 20.8724 124.806 20.9589C124.72 21.0444 124.614 21.0876 124.487 21.0876H119.041V21.1908C119.052 21.7072 119.172 22.1232 119.402 22.4383C119.63 22.7538 119.957 22.9114 120.38 22.9114C120.656 22.9114 120.876 22.8571 121.042 22.7472C121.208 22.6391 121.366 22.4982 121.514 22.3257C121.618 22.2119 121.7 22.1404 121.763 22.1116C121.827 22.0827 121.927 22.0689 122.063 22.0689H124.316C124.419 22.0689 124.508 22.0999 124.582 22.1631C124.657 22.2264 124.693 22.3034 124.693 22.395C124.693 22.694 124.524 23.0429 124.187 23.445C123.848 23.846 123.356 24.1905 122.709 24.4768C122.061 24.7635 121.297 24.9071 120.416 24.9071C119.017 24.9071 117.918 24.5311 117.115 23.7806C116.313 23.029 115.901 21.9368 115.879 20.5025V19.9688C115.923 18.6048 116.347 17.5377 117.15 16.7689C117.951 16.0012 119.034 15.6168 120.397 15.6168ZM134.969 12.5199C135.095 12.5199 135.202 12.5604 135.286 12.6403C135.372 12.7207 135.415 12.8233 135.415 12.9493V24.3052C135.415 24.4317 135.372 24.5349 135.286 24.6147C135.202 24.6951 135.095 24.7351 134.969 24.7351H132.923C132.809 24.7351 132.709 24.6924 132.622 24.6064C132.538 24.5204 132.493 24.42 132.493 24.3052V23.7716C131.876 24.5282 130.988 24.907 129.831 24.907C128.72 24.907 127.846 24.557 127.21 23.8576C126.575 23.1582 126.233 22.1602 126.189 20.864L126.17 20.2616L126.189 19.6432C126.233 18.3924 126.577 17.4089 127.219 16.6922C127.859 15.9756 128.73 15.6167 129.831 15.6167C130.862 15.6167 131.692 15.9495 132.322 16.614V12.9493C132.322 12.8233 132.366 12.7207 132.45 12.6403C132.538 12.5604 132.638 12.5199 132.752 12.5199H134.969ZM65.3567 15.7881C65.4825 15.7881 65.5894 15.8286 65.6742 15.9096C65.7595 15.9889 65.8033 16.0926 65.8033 16.2185V24.3052C65.8033 24.4317 65.7595 24.5349 65.6742 24.6147C65.5894 24.6951 65.4825 24.7345 65.3567 24.7345H63.2088C63.0941 24.7345 62.9932 24.6924 62.9079 24.6064C62.8215 24.5204 62.7783 24.42 62.7783 24.3052V16.2185C62.7783 16.0926 62.8215 15.9889 62.9079 15.9096C62.9932 15.8286 63.0941 15.7881 63.2088 15.7881H65.3567ZM78.4846 15.6167C79.4242 15.6167 80.1893 15.9345 80.7794 16.5719C81.3683 17.2081 81.6631 18.1572 81.6631 19.4185V24.3052C81.6631 24.42 81.6243 24.5204 81.5434 24.6064C81.463 24.6924 81.36 24.7345 81.2342 24.7345H79.1211C78.9949 24.7345 78.889 24.6951 78.8021 24.6147C78.7167 24.5349 78.6735 24.4317 78.6735 24.3052V19.5389C78.6735 19.0119 78.5616 18.6247 78.3388 18.3779C78.1151 18.1316 77.8147 18.0079 77.4369 18.0079C77.0818 18.0079 76.792 18.1316 76.5687 18.3779C76.3449 18.6247 76.233 19.0119 76.233 19.5389V24.3052C76.233 24.42 76.1936 24.5204 76.1128 24.6064C76.033 24.6924 75.9294 24.7345 75.8036 24.7345H73.6905C73.5648 24.7345 73.4584 24.6951 73.372 24.6147C73.2861 24.5349 73.2429 24.4317 73.2429 24.3052V19.5389C73.2429 19.0119 73.1282 18.6247 72.9005 18.3779C72.6711 18.1316 72.3731 18.0079 72.0068 18.0079C71.6517 18.0079 71.3592 18.1316 71.1299 18.3779C70.901 18.6247 70.7864 19.0058 70.7864 19.5216V24.3052C70.7864 24.42 70.7453 24.5204 70.6656 24.6064C70.5857 24.6924 70.4827 24.7345 70.3564 24.7345H68.1919C68.0771 24.7345 67.9763 24.6924 67.891 24.6064C67.8046 24.5204 67.7613 24.42 67.7613 24.3052V16.2185C67.7613 16.0926 67.8046 15.9889 67.891 15.9096C67.9763 15.8286 68.0771 15.7881 68.1919 15.7881H70.1847C70.3104 15.7881 70.414 15.8286 70.4933 15.9096C70.5736 15.9889 70.6141 16.0926 70.6141 16.2185V16.8032C70.8894 16.4709 71.2445 16.1902 71.6794 15.9606C72.1144 15.7315 72.6085 15.6167 73.1576 15.6167C74.4174 15.6167 75.2823 16.1098 75.7515 17.096C76.0275 16.6606 76.4108 16.3051 76.9045 16.0299C77.3964 15.7543 77.9233 15.6167 78.4846 15.6167ZM97.0271 12.5198C97.1529 12.5198 97.256 12.5603 97.3363 12.6401C97.4155 12.7206 97.4565 12.8237 97.4565 12.9496V24.305C97.4565 24.4199 97.4155 24.5203 97.3363 24.6063C97.256 24.6928 97.1529 24.7349 97.0271 24.7349H94.8786C94.7534 24.7349 94.6465 24.6956 94.5618 24.6145C94.4747 24.5347 94.4315 24.4315 94.4315 24.305V12.9496C94.4315 12.8237 94.4747 12.7206 94.5618 12.6401C94.6465 12.5603 94.7534 12.5198 94.8786 12.5198H97.0271ZM101.993 15.7881C102.119 15.7881 102.225 15.8286 102.311 15.9096C102.396 15.9889 102.44 16.0926 102.44 16.2185V24.3052C102.44 24.4317 102.396 24.5349 102.311 24.6147C102.225 24.6951 102.119 24.7345 101.993 24.7345H99.8451C99.7304 24.7345 99.6296 24.6924 99.5442 24.6064C99.4578 24.5204 99.4146 24.42 99.4146 24.3052V16.2185C99.4146 16.0926 99.4578 15.9889 99.5442 15.9096C99.6296 15.8286 99.7304 15.7881 99.8451 15.7881H101.993ZM113.835 12.0039C113.96 12.0039 114.062 12.0433 114.143 12.1243C114.223 12.2047 114.263 12.3079 114.263 12.4338V13.9137C114.263 14.0285 114.223 14.1283 114.143 14.2143C114.062 14.3008 113.96 14.343 113.835 14.343H109.418C109.05 14.343 108.79 14.4267 108.634 14.5926C108.48 14.759 108.404 15.0147 108.404 15.3586V15.7879H113.835C113.96 15.7879 114.062 15.829 114.143 15.9094C114.223 15.9893 114.263 16.093 114.263 16.2189V24.305C114.263 24.4199 114.223 24.5203 114.143 24.6063C114.062 24.6928 113.96 24.7349 113.835 24.7349H111.736C111.611 24.7349 111.505 24.6956 111.419 24.6145C111.334 24.5347 111.29 24.4315 111.29 24.305V18.1287H108.404V24.305C108.404 24.4199 108.364 24.5203 108.284 24.6063C108.202 24.6928 108.099 24.7349 107.973 24.7349H105.876C105.751 24.7349 105.644 24.6956 105.559 24.6145C105.473 24.5347 105.431 24.4315 105.431 24.305V18.1287H104.141C104.015 18.1287 103.908 18.0888 103.824 18.0083C103.737 17.9273 103.695 17.8247 103.695 17.6983V16.2189C103.695 16.093 103.737 15.9893 103.824 15.9094C103.908 15.829 104.015 15.7879 104.141 15.7879H105.431V15.2721C105.431 14.1256 105.762 13.2941 106.426 12.7782C107.091 12.2613 108.041 12.0039 109.279 12.0039H113.835ZM130.827 18.0085C130.312 18.0085 129.942 18.1599 129.719 18.4639C129.496 18.7678 129.367 19.1889 129.332 19.728L129.315 20.2616L129.332 20.7952C129.367 21.3343 129.496 21.7559 129.719 22.0593C129.942 22.3638 130.312 22.5164 130.827 22.5164C131.319 22.5164 131.687 22.3583 131.928 22.0427C132.169 21.7271 132.3 21.3288 132.322 20.8474C132.345 20.5257 132.357 20.3076 132.357 20.1928C132.357 20.0669 132.345 19.855 132.322 19.5572C132.3 19.1095 132.165 18.739 131.919 18.4467C131.672 18.1544 131.308 18.0085 130.827 18.0085ZM88.1244 18.008C87.6318 18.008 87.2656 18.1656 87.0251 18.4811C86.7847 18.7962 86.6534 19.1957 86.6296 19.6771C86.6199 19.8014 86.6148 19.9731 86.6134 20.1932L86.613 20.331C86.613 20.6062 86.618 20.8186 86.6296 20.9673C86.6534 21.4149 86.7875 21.7843 87.0335 22.0766C87.28 22.3695 87.6435 22.5159 88.1244 22.5159C88.6407 22.5159 89.0097 22.3639 89.2335 22.0594C89.4567 21.756 89.5859 21.3339 89.6191 20.7953C89.6307 20.681 89.6374 20.5025 89.6374 20.2617C89.6374 20.0204 89.6307 19.8429 89.6191 19.7281C89.5859 19.189 89.4567 18.7674 89.2335 18.464C89.0097 18.16 88.6407 18.008 88.1244 18.008ZM120.397 17.561C119.962 17.561 119.627 17.713 119.393 18.0164C119.158 18.3203 119.041 18.748 119.041 19.2983V19.3326H121.772V19.2983C121.772 18.748 121.652 18.3203 121.411 18.0164C121.17 17.713 120.834 17.561 120.397 17.561ZM65.3567 12.0551C65.4825 12.0551 65.5894 12.0984 65.6742 12.1843C65.7595 12.2703 65.8033 12.3763 65.8033 12.5022V14.1024C65.8033 14.2295 65.7595 14.3348 65.6742 14.4208C65.5894 14.5068 65.4825 14.5501 65.3567 14.5501H63.2088C63.0813 14.5501 62.9794 14.5068 62.8979 14.4208C62.8187 14.3348 62.7783 14.2295 62.7783 14.1024V12.5022C62.7783 12.3763 62.8215 12.2703 62.9079 12.1843C62.9932 12.0984 63.0941 12.0551 63.2088 12.0551H65.3567ZM101.993 12.0551C102.119 12.0551 102.225 12.0984 102.311 12.1843C102.396 12.2703 102.44 12.3763 102.44 12.5022V14.1024C102.44 14.2295 102.396 14.3348 102.311 14.4208C102.225 14.5068 102.119 14.5501 101.993 14.5501H99.8451C99.7177 14.5501 99.6157 14.5068 99.5343 14.4208C99.4551 14.3348 99.4146 14.2295 99.4146 14.1024V12.5022C99.4146 12.3763 99.4578 12.2703 99.5442 12.1843C99.6296 12.0984 99.7304 12.0551 99.8451 12.0551H101.993Z" fill="#333333"/>
<circle cx="20.835" cy="20.0039" r="20" fill="#070906"/>
<path fill-rule="evenodd" clip-rule="evenodd" d="M29.3012 16.8813V24.0188L28.8557 24.4648L25.2908 28.0345L23.0631 30.2648C22.0781 31.2503 20.4825 31.2503 19.4982 30.2648C18.5139 29.2793 18.5139 27.6812 19.4982 26.6957L21.7259 24.4648L25.2908 20.8964L25.7363 20.4503L29.3012 16.8813ZM28.4103 15.989L24.8454 19.558L24.3998 20.0041L20.8349 23.5732L20.3894 24.0192H13.2596L17.2701 20.0041L20.8349 16.435L21.2805 15.989H28.4103ZM18.6068 9.74302C19.5912 8.75754 21.1874 8.75754 22.1717 9.74302C23.1561 10.7285 23.1561 12.3266 22.1717 13.3121L15.933 19.5581L12.3688 23.1265V15.989L12.8143 15.5424L16.3786 11.9739L18.6068 9.74302Z" fill="#FFAD00"/>
</svg>
