<svg width="146" height="40" viewBox="0 0 146 40" fill="none" xmlns="http://www.w3.org/2000/svg">
<path d="M16.9874 7.36371H38.4793L38.7853 5.99839C39.2327 3.87981 37.6318 1.87891 35.4662 1.87891H14.5863C11.8792 1.87891 9.54877 3.76209 8.96027 6.39857L4.39352 27.4904C3.94627 29.6089 5.54697 31.6099 7.71265 31.6099H8.9838L13.6447 10.0473C13.9978 8.49362 15.3867 7.36371 16.9874 7.36371Z" fill="#00CDFA"/>
<path d="M39.751 7.36523H38.4798L33.8188 28.9277C33.4893 30.4814 32.1005 31.6114 30.4998 31.6114H9.00779L8.70178 32.9767C8.25453 35.0952 9.85524 37.0962 12.0209 37.0962H32.9008C35.608 37.0962 37.9383 35.2129 38.5268 32.5766L43.0936 11.5083C43.5408 9.36613 41.9166 7.36523 39.751 7.36523Z" fill="url(#paint0_linear_10_676)"/>
<path d="M33.8185 28.9277L38.4793 7.36523H16.9874C15.3866 7.36523 13.9978 8.47162 13.6682 10.0488L9.00732 31.6114H30.4993C32.1 31.6114 33.4653 30.4814 33.8185 28.9277Z" fill="#3A00FF"/>
<path d="M15.9988 23.3826L14.4435 15.2969H16.8825L17.6336 20.3427L20.0991 15.2969H21.7426L22.706 20.3427L24.9681 15.2969H27.4071L23.457 23.3826H21.4158L20.4436 18.6461L18.0666 23.3826H15.9988Z" fill="white"/>
<path d="M26.5513 22.0742L27.8238 20.5986C28.3981 21.3054 29.1228 21.6677 30.0153 21.6677C30.5896 21.6677 31.0933 21.4292 31.173 21.0316C31.1995 20.7929 31.0403 20.5897 30.6691 20.4129C30.5808 20.3687 30.3865 20.2981 30.0771 20.1921C29.4675 19.9534 29.2023 19.8651 28.6721 19.5292C27.9298 19.0697 27.5763 18.4336 27.7 17.3377C27.9386 15.8443 29.3083 15.0137 31.0403 15.0137C32.2245 15.0137 33.1965 15.4025 33.983 16.1713L32.7281 17.6382C32.2068 17.1522 31.606 16.9136 30.9255 16.9136C30.3776 16.9136 30.0506 17.0726 29.98 17.4172C29.9181 17.7001 30.0683 17.9386 30.4218 18.0977C30.5366 18.1596 30.7753 18.2567 31.1288 18.3892C31.4821 18.5219 31.7826 18.6367 32.0301 18.7781C32.8253 19.1139 33.7621 19.9004 33.4793 21.1022C33.3468 21.8887 32.9491 22.5072 32.2775 22.9491C31.6148 23.3909 30.8106 23.6119 29.9093 23.6119C28.46 23.6031 27.3378 23.0992 26.5513 22.0742Z" fill="white"/>
<path d="M56.1733 26.6494H53.8895L49.416 13.1348H52.3827L55.1138 22.223L58.1747 13.1348H59.8935L63.0248 22.223L65.709 13.1348H68.6755L64.2257 26.6494H61.9419L59.0694 17.7965L56.1733 26.6494Z" fill="#333333"/>
<path d="M71.218 26.6481H68.6281V16.6887H71.1238V18.0307C71.7125 16.9477 72.6306 16.4297 73.855 16.4297C74.2553 16.4297 74.6555 16.5003 75.0558 16.6416L74.8438 19.1137C74.3965 18.9726 74.0198 18.9019 73.6666 18.9019C72.9131 18.9019 72.3246 19.1609 71.8773 19.6552C71.4535 20.1497 71.218 20.9032 71.218 21.9156V26.6481Z" fill="#333333"/>
<path d="M78.5406 13.9817C78.5406 14.429 78.3994 14.8057 78.0932 15.1118C77.7872 15.4179 77.4106 15.5592 76.9632 15.5592C76.5157 15.5592 76.1391 15.4179 75.8331 15.1118C75.5269 14.8057 75.3857 14.429 75.3857 13.9817C75.3857 13.5343 75.5269 13.1576 75.8331 12.8751C76.1391 12.569 76.5157 12.4277 76.9632 12.4277C77.4106 12.4277 77.7872 12.569 78.0932 12.8751C78.3994 13.1576 78.5406 13.5343 78.5406 13.9817ZM78.2346 16.6893V26.6488H75.6447V16.6893H78.2346Z" fill="#333333"/>
<path d="M86.2409 24.0359L87.0179 26.0607C86.1939 26.6024 85.2049 26.8849 84.0749 26.8849C82.9211 26.8849 82.0736 26.5552 81.4849 25.896C80.8963 25.2367 80.6138 24.2479 80.6138 22.9529V18.8325H78.9893V16.6665H80.6373V13.1348H83.2038V16.6665H86.4999V18.8325H83.2038V22.788C83.2038 23.9654 83.6746 24.5539 84.6164 24.5539C85.0873 24.5539 85.6523 24.389 86.2409 24.0359Z" fill="#333333"/>
<path d="M97.0236 21.4447C97.0236 21.7507 97 22.1276 96.9293 22.5749H89.4422C89.819 23.9876 90.7841 24.6939 92.3381 24.6939C93.4918 24.6939 94.575 24.3642 95.5638 23.6814L96.5761 25.4944C95.3048 26.4126 93.8686 26.8599 92.2205 26.8599C90.4781 26.8599 89.1361 26.3656 88.1943 25.3531C87.2761 24.3642 86.8051 23.1164 86.8051 21.6566C86.8051 20.1262 87.2761 18.8784 88.2415 17.9131C89.2068 16.9241 90.4546 16.4297 91.985 16.4297C93.4448 16.4297 94.622 16.8771 95.5638 17.7717C96.5526 18.6899 97.0236 19.9142 97.0236 21.4447ZM92.0321 18.5722C91.3963 18.5722 90.8313 18.7606 90.384 19.1372C89.9366 19.5141 89.6305 20.0084 89.4658 20.6677H94.5278C94.4101 20.0321 94.1276 19.5141 93.6801 19.1372C93.2328 18.7606 92.6913 18.5722 92.0321 18.5722Z" fill="#333333"/>
<path d="M101.355 26.9076C99.6128 26.9076 98.2473 26.2719 97.2348 24.9769L98.6005 23.3524C98.9536 23.7762 99.3775 24.1057 99.8718 24.3647C100.366 24.6237 100.861 24.7414 101.355 24.7414C101.755 24.7414 102.061 24.6472 102.344 24.4589C102.603 24.2706 102.744 24.0351 102.744 23.7526C102.744 23.3994 102.509 23.1169 102.038 22.9051C101.897 22.8344 101.496 22.6931 100.861 22.4576C100.296 22.2457 99.8718 22.0809 99.5893 21.9161C98.4356 21.3746 97.8706 20.5034 97.8706 19.3262C97.8706 18.4551 98.2001 17.7487 98.883 17.1601C99.5423 16.595 100.46 16.3125 101.591 16.3125C103.003 16.3125 104.18 16.7834 105.075 17.7487L103.804 19.4204C103.097 18.7611 102.344 18.4316 101.52 18.4316C101.19 18.4316 100.908 18.5021 100.696 18.6669C100.484 18.8317 100.366 19.0201 100.366 19.2556C100.366 19.6794 100.649 19.9854 101.237 20.1737C102.532 20.6682 103.333 20.9744 103.639 21.1391C104.769 21.7277 105.311 22.5754 105.311 23.6584C105.311 24.6002 104.934 25.3536 104.204 25.9657C103.498 26.6016 102.556 26.9076 101.355 26.9076Z" fill="#333333"/>
<path d="M105.78 21.6587C105.78 20.1754 106.274 18.9511 107.287 17.9386C108.299 16.9262 109.57 16.4082 111.124 16.4082C112.678 16.4082 113.95 16.9262 114.962 17.9386C115.951 18.9276 116.469 20.1754 116.469 21.6587C116.469 23.1421 115.975 24.3899 114.962 25.3787C113.95 26.3911 112.678 26.8856 111.124 26.8856C109.57 26.8856 108.299 26.3911 107.287 25.3787C106.274 24.3899 105.78 23.1421 105.78 21.6587ZM109.147 23.6836C109.665 24.2251 110.324 24.5076 111.124 24.5076C111.901 24.5076 112.537 24.2251 113.079 23.6836C113.62 23.1184 113.879 22.4356 113.879 21.6587C113.879 20.8817 113.62 20.1989 113.079 19.6574C112.537 19.1159 111.901 18.8332 111.124 18.8332C110.324 18.8332 109.665 19.1159 109.147 19.6574C108.629 20.1989 108.37 20.8582 108.37 21.6587C108.37 22.4592 108.629 23.1419 109.147 23.6836Z" fill="#333333"/>
<path d="M120.119 26.6481H117.529V16.6887H120.049V18.0777C120.308 17.5834 120.731 17.1831 121.297 16.8771C121.862 16.571 122.474 16.4297 123.18 16.4297C124.263 16.4297 125.181 16.7829 125.935 17.5127C126.688 18.2426 127.065 19.2551 127.065 20.5736V26.6716H124.475V21.2799C124.475 20.5029 124.287 19.8907 123.91 19.4669C123.533 19.0431 123.015 18.8077 122.38 18.8077C121.697 18.8077 121.155 19.0431 120.731 19.5141C120.308 19.9849 120.096 20.5971 120.096 21.3269V26.6481H120.119Z" fill="#333333"/>
<path d="M131.492 13.9817C131.492 14.429 131.351 14.8057 131.044 15.1118C130.738 15.4179 130.362 15.5592 129.914 15.5592C129.467 15.5592 129.09 15.4179 128.784 15.1118C128.478 14.8057 128.337 14.429 128.337 13.9817C128.337 13.5343 128.478 13.1576 128.784 12.8751C129.09 12.569 129.467 12.4277 129.914 12.4277C130.362 12.4277 130.738 12.569 131.044 12.8751C131.351 13.1576 131.492 13.5343 131.492 13.9817ZM131.186 16.6893V26.6488H128.596V16.6893H131.186Z" fill="#333333"/>
<path d="M137.519 26.8854C135.989 26.8854 134.718 26.3909 133.705 25.4255C132.716 24.4602 132.222 23.2124 132.222 21.682C132.222 20.1515 132.716 18.9037 133.729 17.9384C134.741 16.9495 136.036 16.4551 137.59 16.4551C138.602 16.4551 139.544 16.6905 140.368 17.1849C141.192 17.6794 141.828 18.3622 142.228 19.2334L140.156 20.3635C139.544 19.351 138.697 18.8565 137.614 18.8565C136.789 18.8565 136.107 19.1392 135.589 19.6807C135.047 20.2222 134.788 20.8815 134.788 21.682C134.788 22.506 135.047 23.1889 135.565 23.7304C136.107 24.2719 136.766 24.5309 137.566 24.5309C138.084 24.5309 138.579 24.3895 139.073 24.107C139.544 23.8245 139.897 23.4714 140.109 23.024L142.205 24.2484C141.781 25.0489 141.145 25.6845 140.321 26.179C139.474 26.6264 138.532 26.8854 137.519 26.8854Z" fill="#333333"/>
<defs>
<linearGradient id="paint0_linear_10_676" x1="8.62601" y1="22.2341" x2="43.1595" y2="22.2341" gradientUnits="userSpaceOnUse">
<stop stop-color="#FFB3FF"/>
<stop offset="0.5335" stop-color="#FF76DF"/>
<stop offset="1" stop-color="#C239C6"/>
</linearGradient>
</defs>
</svg>
