<svg width="177" height="40" viewBox="0 0 177 40" fill="none" xmlns="http://www.w3.org/2000/svg">
<path d="M50.5845 28.0039V12.0039H53.6013V25.2564H59.9081L59.6926 28.0039H50.5845Z" fill="#333333"/>
<path d="M78.7929 28.0039H75.5605L74.0252 23.8019H67.9646L66.4293 28.0039H63.3047L69.3114 12.0039H72.813L78.7929 28.0039ZM73.2171 21.3777L71.601 17.0409C71.4753 16.6997 71.3676 16.3765 71.2777 16.0712C71.2059 15.766 71.134 15.4697 71.0622 15.1824H70.9275C70.8557 15.4697 70.775 15.766 70.6851 16.0712C70.6134 16.3765 70.5146 16.6997 70.3888 17.0409L68.7188 21.3777H73.2171Z" fill="#333333"/>
<path d="M93.5774 12.0039L87.7322 28.0039H84.2037L78.3585 12.0039H81.6178L85.4427 22.7513C85.5505 23.0926 85.6493 23.4338 85.739 23.7749C85.8288 24.1162 85.9096 24.4303 85.9815 24.7177H86.0892C86.161 24.4303 86.2419 24.1162 86.3316 23.7749C86.4214 23.4338 86.5202 23.0926 86.6279 22.7513L90.4797 12.0039H93.5774Z" fill="#333333"/>
<path d="M107.103 12.0039L106.861 14.6975H99.723V18.6302H105.649V21.2699H99.723V25.3103H107.238V28.0039H96.7062V12.0039H107.103Z" fill="#333333"/>
<path d="M125.483 12.0039V28.0039H122.843L116.082 18.5493C115.849 18.2441 115.633 17.9299 115.436 17.6066C115.238 17.2834 115.059 16.9781 114.897 16.6908H114.789V28.0039H111.88V12.0039H114.843L121.281 21.0006C121.514 21.3238 121.73 21.647 121.927 21.9702C122.143 22.2754 122.322 22.5718 122.466 22.8591H122.573V12.0039H125.483Z" fill="#333333"/>
<path d="M144.742 20.0039C144.742 21.5842 144.384 22.9758 143.665 24.179C142.947 25.3821 141.923 26.3249 140.595 27.0072C139.266 27.6717 137.685 28.0039 135.854 28.0039H130.44V12.0039H135.854C137.685 12.0039 139.266 12.3451 140.595 13.0275C141.923 13.6919 142.947 14.6257 143.665 15.8288C144.384 17.014 144.742 18.4057 144.742 20.0039ZM141.592 20.0039C141.592 18.8726 141.358 17.9029 140.891 17.0948C140.424 16.2867 139.76 15.6672 138.898 15.2362C138.036 14.8052 137.021 14.5898 135.854 14.5898H133.457V25.4181H135.854C137.039 25.4181 138.054 25.2026 138.898 24.7716C139.76 24.3406 140.424 23.721 140.891 22.913C141.358 22.087 141.592 21.1173 141.592 20.0039Z" fill="#333333"/>
<path d="M159.505 12.0039L159.262 14.6975H152.124V18.6302H158.05V21.2699H152.124V25.3103H159.64V28.0039H149.107V12.0039H159.505Z" fill="#333333"/>
<path d="M175.785 17.2564C175.785 18.3698 175.471 19.3125 174.842 20.0847C174.232 20.8389 173.459 21.3596 172.525 21.647L176.835 28.0039H173.307L169.536 22.3742H167.004V28.0039H163.987V12.0039H169.321C170.667 12.0039 171.825 12.2104 172.795 12.6234C173.765 13.0185 174.501 13.6111 175.004 14.4012C175.525 15.1734 175.785 16.1251 175.785 17.2564ZM172.714 17.2564C172.714 16.61 172.562 16.0892 172.256 15.6941C171.969 15.2811 171.565 14.9848 171.045 14.8053C170.524 14.6077 169.913 14.509 169.212 14.509H167.004V20.0039H169.212C169.913 20.0039 170.524 19.9051 171.045 19.7076C171.565 19.5101 171.969 19.2138 172.256 18.8187C172.562 18.4057 172.714 17.8849 172.714 17.2564Z" fill="#333333"/>
<circle cx="20.5845" cy="20.0039" r="20" fill="#7E54E2"/>
<path d="M19.6126 29.7284C17.5382 28.709 16.1791 25.6947 16.0661 22.7255C15.9532 19.7563 16.6519 17.7722 18.8282 16.3014C19.4813 15.8601 19.8702 14.9561 21.1233 15.3113C22.3763 15.6665 23.8977 17.2298 24.5454 19.8085C25.1931 22.3872 24.6672 24.9149 23.9603 26.5619C23.2534 28.2089 21.6869 30.7479 19.6126 29.7284Z" fill="white"/>
<path d="M15.515 25.7971C14.8968 23.8296 14.8725 21.4585 15.1786 20.4725C15.2219 20.3582 15.1786 20.2475 15.0486 20.2246C14.7882 20.154 14.3661 20.0626 13.6718 19.989C12.6259 19.8782 10.2525 19.562 9.12729 20.8859C8.00211 22.2097 8.39299 23.4106 10.1671 26.71C11.9412 30.0095 13.2208 30.9595 14.6434 31.0033C15.5964 31.0327 16.6303 30.341 17.209 29.8812C17.4844 29.6624 17.5249 29.2733 17.3312 28.9797C16.7842 28.1507 15.7422 26.5204 15.515 25.7971Z" fill="white"/>
<path d="M8.30024 16.7953C8.41643 18.0935 8.86885 19.1496 9.03233 19.4961C9.06349 19.5621 9.14436 19.5858 9.20928 19.5524C9.52387 19.3905 10.4552 18.9757 11.829 18.9226C13.5415 18.8564 14.5702 19.4146 15.2478 19.3597C15.4571 19.3427 15.5447 18.6919 15.4472 18.3562C15.3498 18.0206 14.2026 16.4849 13.1454 15.5331C11.9313 14.44 10.6698 13.1897 9.5928 13.3245C8.51577 13.4592 8.15765 15.2022 8.30024 16.7953Z" fill="white"/>
<path d="M20.7107 14.2091C19.826 14.2522 19.2627 14.4851 18.8928 14.8541C18.8166 14.9302 18.6582 14.862 18.6744 14.7555C18.9078 13.2253 19.2719 11.3222 20.436 10.8021C22.0542 10.0792 22.7418 10.3684 24.3713 9.75041C25.9476 9.15263 26.6081 10.3209 26.4264 12.3136C26.2881 13.831 25.3335 15.9621 24.6972 17.206C24.6591 17.2803 24.5526 17.2775 24.5145 17.2031C23.6236 15.4634 21.836 14.1543 20.7107 14.2091Z" fill="white"/>
<path d="M24.9713 30.7379C24.5658 30.7752 23.7589 30.5323 23.411 30.1056C23.2332 29.8875 23.2715 29.5779 23.3909 29.323C23.7785 28.4962 24.6807 27.5738 25.0072 26.7554C25.6654 25.1055 25.8877 23.6536 25.7872 22.7248C25.6451 21.4121 26.499 20.6975 28.3303 19.9174C30.821 18.8564 32.5078 21.2584 32.1399 22.6077C31.7257 24.1272 31.6846 25.8366 30.0456 27.7929C28.7681 29.3177 26.1642 30.6281 24.9713 30.7379Z" fill="white"/>
<path d="M30.4701 16.0097C32.5136 16.0472 33.7363 17.0666 31.8753 19.3938C31.8243 19.4575 31.7306 19.4695 31.6647 19.4214C31.0604 18.98 30.0558 18.4237 28.6778 18.7708C27.6941 19.0186 26.5185 19.6956 25.7868 20.5036C25.7495 20.5447 25.679 20.5239 25.6715 20.4689C25.6289 20.1567 25.5109 19.405 25.2963 18.8393C25.243 18.6987 25.2389 18.5404 25.3081 18.4068C26.5967 15.9189 29.2171 15.9866 30.4701 16.0097Z" fill="white"/>
<path d="M32.8711 10.9626C33.1066 12.8015 31.7826 13.992 30.7265 14.3384C29.6704 14.6848 28.1072 14.4852 28.0308 13.6861C27.9543 12.887 29.5255 11.223 30.1607 9.75435C30.7959 8.28572 32.6356 9.12369 32.8711 10.9626Z" fill="white"/>
</svg>
