<svg width="128" height="40" viewBox="0 0 128 40" fill="none" xmlns="http://www.w3.org/2000/svg">
<g clip-path="url(#clip0_10_705)">
<mask id="mask0_10_705" style="mask-type:luminance" maskUnits="userSpaceOnUse" x="0" y="0" width="167" height="40">
<path d="M166.184 0.0820312H0.584473V39.9256H166.184V0.0820312Z" fill="white"/>
</mask>
<g mask="url(#mask0_10_705)">
<path d="M48.647 13.8172H52.485V24.4483H54.5283V13.8172H58.3663V12.0039H48.647V13.8172Z" fill="#333333"/>
<path d="M61.2607 24.5012L60.9054 25.39C60.6211 26.1367 60.1978 26.3145 59.4515 26.3145L58.7205 28.0034H60.4078C61.7405 28.0034 62.1314 27.3457 62.7 25.8701L66.8223 15.3457H64.7789L62.3091 22.2612L59.7682 15.3457H57.7249L61.2607 24.5012Z" fill="#333333"/>
<path d="M72.3016 15.2402C70.88 15.2402 69.9383 15.898 69.3344 16.698L69.1032 15.3469H67.4331V28.0046H69.3523V23.1691C69.9209 23.9868 70.898 24.5557 72.3016 24.5557C74.7895 24.5557 76.6017 22.7068 76.6017 19.898C76.6017 16.9824 74.7895 15.2402 72.3016 15.2402ZM71.9817 22.938C70.3828 22.938 69.3344 21.6758 69.3344 19.8624C69.3344 18.1025 70.3828 16.8758 71.9817 16.8758C73.5812 16.8758 74.647 18.1025 74.647 19.898C74.647 21.6758 73.5812 22.938 71.9817 22.938Z" fill="#333333"/>
<path d="M82.105 24.5557C84.3617 24.5557 85.8894 23.1869 86.2093 21.3913H84.2905C84.0239 22.4046 83.1709 22.9913 81.9984 22.9913C80.4882 22.9913 79.5106 21.978 79.4572 20.4313V20.3069H86.3159C86.3513 20.058 86.3692 19.8091 86.3692 19.578C86.3159 16.9113 84.557 15.2402 81.9272 15.2402C79.244 15.2402 77.4497 17.1069 77.4497 19.9157C77.4497 22.7068 79.244 24.5557 82.105 24.5557ZM79.5285 18.9025C79.6705 17.6046 80.7189 16.7869 81.9451 16.7869C83.2775 16.7869 84.2192 17.5514 84.3792 18.9025H79.5285Z" fill="#333333"/>
<path d="M89.3467 24.4479H91.4255L93.4155 18.2612L95.3344 24.4479H97.3952L100.416 15.3457H98.4615L96.312 22.3146L94.3219 15.3457H92.5625L90.4837 22.3146L88.4049 15.3457H86.3795L89.3467 24.4479Z" fill="#333333"/>
<path d="M101.074 24.4479H102.993V15.3457H101.074V24.4479Z" fill="#333333"/>
<path d="M104.126 21.4449C104.179 23.4182 105.849 24.556 108.284 24.556C110.487 24.556 112.14 23.4537 112.14 21.7115C112.14 19.6849 110.452 19.2583 108.373 19.0093C107.058 18.8671 106.187 18.7604 106.187 17.9071C106.187 17.1783 106.934 16.716 108.071 16.716C109.207 16.716 109.99 17.3026 110.096 18.1382H111.98C111.855 16.2716 110.274 15.2404 108.035 15.2404C105.849 15.2227 104.304 16.3427 104.304 18.0671C104.304 19.9515 105.939 20.396 108.017 20.6448C109.421 20.8227 110.256 20.8938 110.256 21.8715C110.256 22.6005 109.474 23.0626 108.284 23.0626C106.898 23.0626 106.081 22.3871 106.009 21.4449H104.126Z" fill="#333333"/>
<path d="M117.591 24.5557C119.847 24.5557 121.376 23.1868 121.695 21.3913H119.776C119.51 22.4046 118.657 22.9913 117.484 22.9913C115.974 22.9913 114.996 21.978 114.944 20.4313V20.3068H121.802C121.838 20.058 121.856 19.8091 121.856 19.5779C121.802 16.9113 120.042 15.2402 117.413 15.2402C114.73 15.2402 112.936 17.1069 112.936 19.9157C112.936 22.7068 114.73 24.5557 117.591 24.5557ZM115.014 18.9024C115.157 17.6046 116.205 16.7869 117.43 16.7869C118.764 16.7869 119.705 17.5513 119.865 18.9024H115.014Z" fill="#333333"/>
<mask id="mask1_10_705" style="mask-type:luminance" maskUnits="userSpaceOnUse" x="0" y="0" width="41" height="40">
<path d="M40.2866 0.0820312H0.584473V39.9257H40.2866V0.0820312Z" fill="white"/>
</mask>
<g mask="url(#mask1_10_705)">
<path d="M17.3213 39.8197C22.5746 38.7307 27.7523 37.3017 32.8218 35.5417C33.549 35.2903 34.2094 34.876 34.7532 34.3302C35.297 33.7845 35.7098 33.1217 35.9604 32.392C37.693 27.2985 39.1082 22.1018 40.1981 16.8321C40.3504 16.097 40.3327 15.3368 40.1466 14.6097C39.9603 13.8827 39.6106 13.2081 39.1241 12.638C35.585 8.59615 31.7864 4.79103 27.7525 1.24687C27.1853 0.75756 26.5122 0.407952 25.7866 0.225914C25.061 0.0438753 24.3031 0.0344396 23.5733 0.198357C18.3176 1.28551 13.1385 2.71595 8.06852 4.48049C7.34082 4.73083 6.67978 5.14476 6.13582 5.69064C5.59186 6.23654 5.17941 6.89995 4.92997 7.63024C3.19158 12.7208 1.77481 17.9164 0.688097 23.186C0.534943 23.9207 0.551752 24.6807 0.737228 25.4079C0.922704 26.135 1.2719 26.8096 1.75797 27.3801C5.29817 31.4194 9.09671 35.2231 13.1295 38.7669C13.703 39.2456 14.3763 39.5882 15.0999 39.7697C15.8234 39.9513 16.5783 39.9669 17.3087 39.8154" fill="#1D58E2"/>
<path d="M18.4507 20.6833C18.3041 20.6463 18.1517 20.6385 18.0022 20.6607C17.8527 20.6828 17.709 20.7343 17.5794 20.8122C17.4497 20.8902 17.3367 20.9929 17.2467 21.1147C17.1567 21.2365 17.0914 21.375 17.0548 21.5222L16.1563 25.4478C16.0427 25.9518 15.7816 26.4101 15.407 26.7645C15.0322 27.1187 14.5606 27.3527 14.0526 27.4364C13.5446 27.5203 13.0231 27.45 12.5551 27.2347C12.0871 27.0193 11.6938 26.6688 11.4255 26.2278C11.0708 25.6394 10.9555 24.9365 11.1036 24.2651L13.4607 11.5067C13.4986 11.3506 13.5043 11.1883 13.4775 11.0298C13.4507 10.8714 13.3918 10.7201 13.3047 10.5853C13.2174 10.4505 13.1035 10.3351 12.9702 10.246C12.8368 10.1571 12.6867 10.0963 12.5291 10.0677C12.3715 10.0391 12.2098 10.0431 12.0538 10.0795C11.8978 10.1159 11.7509 10.1839 11.622 10.2794C11.4932 10.3749 11.3852 10.4959 11.3047 10.6347C11.2242 10.7737 11.1728 10.9277 11.1538 11.0873L10.3054 15.6504L7.19609 16.699C7.05039 16.7467 6.91569 16.8231 6.79988 16.9239C6.68407 17.0246 6.58952 17.1476 6.52176 17.2855C6.454 17.4235 6.41441 17.5735 6.40533 17.7272C6.39627 17.8807 6.41788 18.0345 6.4689 18.1794C6.54997 18.4202 6.70565 18.6287 6.91317 18.7743C7.1207 18.9199 7.36921 18.9951 7.62236 18.9888C7.73138 18.9834 7.83937 18.9651 7.94416 18.9344L9.82481 18.3136L8.80505 23.7659C8.64241 24.5066 8.65097 25.2747 8.83009 26.0114C9.00913 26.7482 9.35401 27.4339 9.83817 28.0163C10.3223 28.5985 10.933 29.0617 11.6232 29.3705C12.3135 29.6791 13.065 29.8251 13.8201 29.7971C14.646 29.7559 15.4488 29.5095 16.1563 29.0799C16.7087 28.7426 17.1878 28.2975 17.5654 27.7707C17.9431 27.2441 18.2114 26.6467 18.3546 26.014L19.2656 22.1094C19.3084 21.9619 19.3211 21.8074 19.3031 21.655C19.2851 21.5026 19.2365 21.3555 19.1604 21.2223C19.0843 21.0892 18.9822 20.9728 18.8602 20.8802C18.7383 20.7875 18.599 20.7207 18.4507 20.6833Z" fill="white"/>
<path d="M16.7811 14.7051C16.7331 14.5603 16.6569 14.4265 16.5569 14.3114C16.4569 14.1962 16.3353 14.1022 16.1988 14.0348C16.0623 13.9673 15.9139 13.9277 15.762 13.9182C15.6103 13.9088 15.4579 13.9296 15.3143 13.9796L14.2443 14.3277L13.7847 16.9406L16.0373 16.1857C16.3313 16.088 16.5746 15.8772 16.714 15.5997C16.8535 15.3222 16.8776 15.0005 16.7811 14.7051Z" fill="white"/>
<path d="M22.0436 27.5984C21.5932 27.6305 21.1407 27.5924 20.702 27.4852C20.0707 27.3425 19.4744 27.0736 18.9487 26.6946C18.4231 26.3155 17.979 25.8342 17.6429 25.2791C17.2992 24.7319 17.07 24.1206 16.9687 23.4818C16.8673 22.843 16.8962 22.1904 17.0536 21.5632C17.1251 21.2634 17.3124 21.0044 17.574 20.8431C17.8359 20.6819 18.1507 20.6316 18.4495 20.7034C18.7482 20.7752 19.0062 20.963 19.1669 21.2258C19.3276 21.4885 19.3776 21.8045 19.3061 22.1042C19.2287 22.4364 19.2172 22.7806 19.2721 23.1171C19.3273 23.4538 19.448 23.7762 19.6272 24.066C19.8065 24.3558 20.041 24.6073 20.3172 24.8061C20.5935 25.0048 20.906 25.1471 21.2369 25.2246C21.5681 25.303 21.9116 25.3151 22.2475 25.2601C22.5834 25.2051 22.9052 25.0842 23.1944 24.9042C23.4836 24.7242 23.7347 24.4887 23.933 24.2112C24.1313 23.9337 24.2732 23.6196 24.3504 23.287L25.2616 19.3865C25.2959 19.2372 25.3592 19.0964 25.4482 18.9718C25.5369 18.8472 25.6495 18.7417 25.7791 18.6609C25.9088 18.5802 26.0532 18.526 26.2038 18.5014C26.3544 18.4768 26.5084 18.4824 26.6569 18.5178C26.8053 18.5531 26.9454 18.6176 27.0689 18.7075C27.1924 18.7974 27.2972 18.911 27.3767 19.0416C27.4564 19.1722 27.5096 19.3174 27.5331 19.4686C27.5568 19.6201 27.5503 19.7745 27.514 19.9233L26.603 23.807C26.4592 24.4394 26.1906 25.0366 25.8131 25.5631C25.4355 26.0898 24.9566 26.535 24.4048 26.8729C23.6984 27.3263 22.8819 27.5772 22.0436 27.5984Z" fill="white"/>
<path d="M30.2493 25.422C29.3752 25.4542 28.508 25.2544 27.7354 24.8428C26.9627 24.4311 26.3118 23.8223 25.8487 23.0776C25.5054 22.5309 25.2763 21.9202 25.1749 21.2822C25.0737 20.6444 25.1025 19.9923 25.2593 19.3657C25.2937 19.2166 25.3573 19.0756 25.446 18.9511C25.5349 18.8266 25.6473 18.7209 25.7771 18.6402C25.9067 18.5596 26.051 18.5052 26.2017 18.4807C26.3523 18.4562 26.5064 18.4618 26.6548 18.4972C26.8032 18.5325 26.9433 18.597 27.0668 18.6869C27.1904 18.7768 27.295 18.8904 27.3747 19.021C27.4544 19.1516 27.5074 19.2968 27.5311 19.448C27.5546 19.5993 27.5481 19.7539 27.5121 19.9026C27.4338 20.2348 27.4219 20.5791 27.4768 20.9159C27.5316 21.2527 27.6521 21.5753 27.8315 21.8653C28.0109 22.1552 28.2457 22.4067 28.5221 22.6054C28.7986 22.8041 29.1115 22.946 29.4428 23.023C30.1073 23.1767 30.8054 23.0628 31.3874 22.7063C31.9694 22.3496 32.389 21.7781 32.5562 21.1148L33.4673 17.21C33.5388 16.9103 33.726 16.6512 33.9878 16.49C34.2496 16.3288 34.5645 16.2785 34.8632 16.3504C35.1619 16.422 35.42 16.61 35.5806 16.8727C35.7412 17.1354 35.7914 17.4512 35.7199 17.7511L34.8089 21.6515C34.5601 22.6918 33.9806 23.6224 33.158 24.3028C32.3353 24.9829 31.3144 25.3759 30.2493 25.422Z" fill="white"/>
</g>
</g>
</g>
<defs>
<clipPath id="clip0_10_705">
<rect width="127" height="40" fill="white" transform="translate(0.584473 0.00390625)"/>
</clipPath>
</defs>
</svg>
