<svg width="180" height="180" viewBox="0 0 180 180" fill="none" xmlns="http://www.w3.org/2000/svg">
<circle cx="90" cy="90.0039" r="90" fill="url(#paint0_linear_1639_9205)"/>
<path fill-rule="evenodd" clip-rule="evenodd" d="M99.4331 76.5466C95.8416 80.1381 89.2964 80.1395 85.7034 76.5466L84.2303 75.0734L81.284 78.0197L82.7572 79.4928C85.3705 82.1062 88.9679 83.4114 92.5668 83.4129L74.3897 101.59L77.336 104.536L95.5131 86.3592C95.5145 89.958 96.8198 93.5554 99.4331 96.1688L100.906 97.6419L103.853 94.6956L102.379 93.2225C98.7864 89.6295 98.7879 83.0844 102.379 79.4929L103.853 78.0197L100.906 75.0734L99.4331 76.5466Z" fill="white"/>
<path d="M97.303 29.5865C96.0809 29.4355 95.0577 29.0971 94.2333 28.5713C93.4106 28.0332 92.7644 27.386 92.2947 26.6297C91.8266 25.8612 91.5066 25.061 91.3347 24.2293C91.1766 23.3868 91.1451 22.5848 91.2402 21.8235L91.2908 21.4183C91.395 20.5832 91.6335 19.7773 92.0063 19.0004C92.3806 18.2112 92.8869 17.5193 93.5252 16.9248C94.1758 16.3319 94.9515 15.8916 95.8523 15.6038C96.767 15.3054 97.8107 15.2286 98.9835 15.3735C100.206 15.5244 101.257 15.8851 102.139 16.4553C103.02 17.0256 103.688 17.7503 104.142 18.6294C104.611 19.4977 104.827 20.4783 104.79 21.5711L101.735 21.1936C101.716 20.6427 101.576 20.1578 101.315 19.739C101.054 19.3202 100.69 18.9759 100.222 18.7061C99.7666 18.4379 99.2365 18.2664 98.6316 18.1917C98.0267 18.1169 97.4767 18.155 96.9816 18.3058C96.4864 18.4566 96.0546 18.7025 95.6861 19.0435C95.33 19.3861 95.0326 19.8107 94.7938 20.3173C94.5689 20.8133 94.4166 21.3805 94.3369 22.0191C94.2587 22.6453 94.2669 23.2324 94.3615 23.7802C94.4699 24.3173 94.6601 24.8022 94.9319 25.2348C95.2177 25.6567 95.5883 26.0017 96.0436 26.2699C96.5005 26.5259 97.0376 26.692 97.6548 26.7683C98.593 26.8842 99.4114 26.7546 100.11 26.3796C100.821 26.006 101.294 25.4286 101.53 24.6472L104.566 25.0223C104.333 25.991 103.887 26.8524 103.228 27.6065C102.584 28.3499 101.756 28.9084 100.744 29.2822C99.7462 29.6452 98.5991 29.7466 97.303 29.5865Z" fill="white"/>
<path d="M110.776 32.8914C109.936 32.5829 109.237 32.1809 108.678 31.6855C108.124 31.1784 107.703 30.615 107.416 29.9951C107.14 29.3794 106.994 28.7386 106.976 28.0724C106.962 27.3946 107.076 26.7307 107.317 26.0805L107.466 25.68C107.711 25.0183 108.061 24.4343 108.514 23.9279C108.983 23.4143 109.529 23.0146 110.152 22.729C110.787 22.4477 111.479 22.2993 112.227 22.2839C112.98 22.2569 113.758 22.3913 114.564 22.687C115.392 22.9913 116.078 23.3948 116.62 23.8976C117.179 24.393 117.602 24.9506 117.889 25.5705C118.176 26.1905 118.33 26.8472 118.351 27.5409C118.377 28.223 118.266 28.8949 118.021 29.5566L117.872 29.9571C117.631 30.6072 117.284 31.1855 116.831 31.6918C116.382 32.1865 115.846 32.5767 115.223 32.8623C114.611 33.1522 113.929 33.3107 113.176 33.3377C112.428 33.3531 111.628 33.2043 110.776 32.8914ZM111.649 30.5406C112.197 30.742 112.695 30.7931 113.143 30.6938C113.591 30.5945 113.986 30.3701 114.328 30.0208C114.681 29.6757 114.953 29.2478 115.143 28.737C115.345 28.1913 115.423 27.6789 115.375 27.1997C115.332 26.709 115.169 26.2731 114.886 25.8922C114.614 25.5155 114.216 25.2307 113.691 25.0379C113.178 24.8493 112.689 24.8083 112.225 24.915C111.761 25.0216 111.352 25.2475 110.999 25.5925C110.661 25.9303 110.391 26.372 110.189 26.9176C109.999 27.4284 109.92 27.9271 109.952 28.4136C109.984 28.9001 110.143 29.328 110.43 29.6973C110.717 30.0666 111.124 30.3477 111.649 30.5406Z" fill="white"/>
<path d="M118.449 35.7289L123.875 27.1073L125.884 28.3583L123.557 32.0555L123.414 31.9669C123.969 31.0858 124.542 30.4206 125.133 29.9711C125.734 29.5282 126.36 29.3044 127.008 29.2997C127.657 29.2949 128.314 29.4994 128.978 29.9132L129.088 29.9821C130.101 30.6125 130.662 31.4223 130.774 32.4114C130.902 33.3966 130.547 34.5553 129.709 35.8873L126.609 40.8117L124.079 39.2357L127.267 34.1697C127.558 33.7082 127.658 33.2452 127.569 32.7808C127.48 32.3164 127.203 31.9397 126.739 31.6507C126.265 31.3552 125.784 31.2676 125.298 31.3879C124.828 31.5043 124.442 31.8037 124.138 32.2862L120.979 37.305L118.449 35.7289Z" fill="white"/>
<path d="M132.098 45.7869C131.325 45.1061 130.784 44.4639 130.474 43.8602C130.172 43.2473 130.107 42.6201 130.279 41.9784C130.469 41.3358 130.906 40.6299 131.591 39.8609L137.552 33.1618L139.634 34.9951L133.598 41.7775C133.276 42.1389 133.122 42.4989 133.135 42.8575C133.166 43.2151 133.358 43.5497 133.712 43.8614L134.844 44.858L133.174 46.7343L132.098 45.7869ZM133.115 35.8237L134.562 34.1976L140.039 39.0207L138.592 40.6468L133.115 35.8237Z" fill="white"/>
<path d="M138.797 52.9554L141.125 51.038L140.804 50.6519L143.334 48.5688C143.736 48.2374 143.959 47.8935 144.001 47.5372C144.044 47.1808 143.891 46.7929 143.542 46.3735C143.367 46.1638 143.132 45.8913 142.837 45.556C142.542 45.2207 142.234 44.8798 141.914 44.5334C141.593 44.1869 141.3 43.8738 141.035 43.5941L142.976 41.9962C143.177 42.1997 143.41 42.4413 143.676 42.721C143.941 43.0007 144.209 43.294 144.48 43.6006C144.752 43.9073 145.002 44.1989 145.232 44.4753C145.899 45.2761 146.343 46.0428 146.565 46.7755C146.795 47.5178 146.794 48.2253 146.563 48.8979C146.341 49.5626 145.866 50.1948 145.137 50.7945L140.308 54.7714L138.797 52.9554ZM136.513 50.6188C136.045 50.0564 135.733 49.4779 135.578 48.8832C135.43 48.298 135.444 47.7325 135.619 47.1864C135.804 46.6325 136.16 46.1385 136.687 45.7045C137.262 45.2311 137.855 44.9922 138.465 44.9878C139.084 44.9756 139.702 45.1654 140.319 45.5572C140.945 45.9411 141.548 46.481 142.127 47.1769L143.519 48.8499L142.24 49.9033L140.836 48.216C140.503 47.8156 140.144 47.5887 139.761 47.5351C139.394 47.4832 139.044 47.5953 138.708 47.8715C138.392 48.1319 138.221 48.4498 138.194 48.8252C138.185 49.2023 138.347 49.591 138.68 49.9914C138.894 50.2488 139.127 50.442 139.38 50.5712C139.651 50.702 139.952 50.7434 140.283 50.6954C140.614 50.6474 140.985 50.4711 141.393 50.1667L141.27 51.1835C140.685 51.5856 140.114 51.8309 139.557 51.9193C139.009 52.0174 138.476 51.9586 137.957 51.743C137.447 51.5369 136.965 51.1622 136.513 50.6188Z" fill="white"/>
<path d="M143.736 61.1572C143.306 60.3895 143.056 59.6498 142.985 58.9383C142.932 58.2316 143.016 57.5687 143.239 56.9495C143.462 56.3304 143.794 55.7784 144.235 55.2937C144.686 54.803 145.206 54.3952 145.793 54.0702L146.102 53.8987C146.711 53.5617 147.347 53.3371 148.01 53.2248C148.684 53.1066 149.345 53.1163 149.991 53.254C150.638 53.3918 151.243 53.6726 151.808 54.0965C152.378 54.5312 152.869 55.1162 153.281 55.8515C153.728 56.6517 153.967 57.4472 153.997 58.238C154.037 59.0229 153.883 59.7526 153.534 60.4271C153.186 61.1017 152.665 61.6592 151.972 62.0996L150.547 59.5531C150.925 59.2872 151.171 58.9384 151.286 58.5068C151.417 58.08 151.337 57.6071 151.047 57.0881C150.805 56.6556 150.494 56.3535 150.113 56.1819C149.738 56.0211 149.321 55.9757 148.862 56.0458C148.403 56.1158 147.913 56.2953 147.391 56.5841C146.913 56.8489 146.514 57.1545 146.196 57.5009C145.888 57.8413 145.704 58.2122 145.644 58.6137C145.601 59.02 145.709 59.4556 145.969 59.9206C146.163 60.2666 146.386 60.5255 146.639 60.6971C146.908 60.8736 147.191 60.972 147.487 60.9922C147.8 61.0172 148.112 60.9647 148.424 60.8347L149.839 63.365C149.082 63.7417 148.315 63.8973 147.538 63.8318C146.772 63.7602 146.056 63.4981 145.39 63.0455C144.735 62.5868 144.183 61.9574 143.736 61.1572Z" fill="white"/>
<path d="M148.63 71.7723C148.28 70.8061 148.114 69.9842 148.133 69.3065C148.163 68.6246 148.408 68.0432 148.869 67.5623C149.345 67.0888 150.069 66.6777 151.04 66.3292L159.5 63.293L160.443 65.8947L151.878 68.9687C151.422 69.1325 151.113 69.3749 150.952 69.6959C150.806 70.0243 150.814 70.4097 150.974 70.852L151.487 72.2664L149.118 73.1168L148.63 71.7723ZM154.323 63.513L156.376 62.776L158.859 69.6207L156.805 70.3577L154.323 63.513Z" fill="white"/>
<path d="M151.167 85.5003C151.059 84.2302 151.202 83.1314 151.596 82.2036C152.005 81.2871 152.629 80.5635 153.47 80.0326C154.311 79.5017 155.333 79.1853 156.535 79.0833L164.585 78.4004L164.845 81.4337L156.683 82.126C156.089 82.1765 155.577 82.3316 155.15 82.5914C154.737 82.8625 154.43 83.2177 154.23 83.6569C154.032 84.1084 153.959 84.6425 154.012 85.259C154.066 85.8878 154.229 86.4019 154.5 86.8011C154.772 87.2127 155.135 87.5111 155.588 87.6963C156.041 87.8814 156.571 87.9482 157.178 87.8967L165.34 87.2043L165.6 90.2376L157.55 90.9205C156.347 91.0225 155.287 90.8827 154.368 90.5011C153.449 90.1196 152.71 89.5116 152.151 88.6771C151.605 87.8416 151.277 86.7827 151.167 85.5003Z" fill="white"/>
<path d="M150.956 98.7353C151.131 97.298 151.565 96.2098 152.257 95.4707C152.949 94.7316 153.835 94.4024 154.915 94.4833L154.595 97.0999C154.268 97.1102 153.955 97.2655 153.655 97.5658C153.366 97.8799 153.18 98.3748 153.098 99.0505C153.035 99.5664 153.069 100.001 153.201 100.353C153.345 100.72 153.583 100.923 153.916 100.963C154.213 100.999 154.463 100.899 154.667 100.662C154.884 100.426 155.07 99.981 155.225 99.3266L155.396 98.5432C155.668 97.3419 156.12 96.4678 156.751 95.9208C157.38 95.386 158.127 95.1709 158.991 95.2755C159.707 95.3621 160.284 95.6127 160.722 96.0272C161.161 96.4417 161.465 96.9772 161.635 97.6336C161.804 98.3023 161.839 99.042 161.74 99.8528C161.581 101.155 161.162 102.17 160.484 102.899C159.818 103.628 158.94 103.946 157.849 103.851L158.169 101.235C158.508 101.226 158.807 101.087 159.065 100.82C159.336 100.553 159.507 100.131 159.577 99.5538C159.633 99.0992 159.591 98.7264 159.451 98.4352C159.311 98.144 159.093 97.9805 158.796 97.9447C158.512 97.9103 158.282 98.0009 158.105 98.2164C157.929 98.4319 157.777 98.8 157.651 99.3208L157.48 100.104C157.192 101.328 156.729 102.251 156.089 102.872C155.449 103.492 154.66 103.746 153.722 103.633C153.042 103.55 152.472 103.294 152.011 102.865C151.562 102.436 151.243 101.868 151.054 101.159C150.877 100.452 150.845 99.6444 150.956 98.7353Z" fill="white"/>
<path d="M152.733 118.823L155.68 116.922L157.667 117.678L158.59 121.049L156.343 121.387L156.283 118.94L155.865 118.781L154.199 120.572L152.733 118.823ZM161.024 119.132L157.897 117.546L157.563 115.452L160.033 112.973L161.433 114.737L159.346 116.011L159.415 116.454L161.801 117.003L161.024 119.132ZM157.087 111.854L157.267 115.34L155.614 116.679L152.221 115.787L153.051 113.678L155.197 114.851L155.546 114.567L154.838 112.251L157.087 111.854Z" fill="white"/>
<path d="M138.58 128.584C139.324 127.608 140.131 126.897 141.002 126.451C141.882 126.012 142.769 125.781 143.662 125.755C144.566 125.738 145.422 125.863 146.232 126.132C147.044 126.419 147.757 126.793 148.372 127.257L148.699 127.504C149.373 128.012 149.955 128.621 150.443 129.332C150.942 130.049 151.29 130.832 151.488 131.679C151.677 132.537 151.671 133.425 151.47 134.345C151.271 135.282 150.815 136.219 150.101 137.156C149.357 138.132 148.516 138.857 147.578 139.33C146.64 139.802 145.675 140.014 144.682 139.964C143.692 139.932 142.731 139.627 141.799 139.048L143.659 136.607C144.147 136.867 144.639 136.989 145.135 136.975C145.63 136.96 146.112 136.819 146.581 136.551C147.043 136.294 147.457 135.923 147.826 135.44C148.194 134.957 148.437 134.464 148.554 133.963C148.671 133.461 148.673 132.966 148.561 132.478C148.442 131.999 148.222 131.53 147.901 131.071C147.582 130.629 147.165 130.213 146.649 129.825C146.144 129.443 145.629 129.156 145.105 128.963C144.583 128.787 144.066 128.708 143.554 128.725C143.044 128.759 142.558 128.905 142.096 129.163C141.644 129.428 141.231 129.807 140.855 130.3C140.284 131.049 139.986 131.819 139.962 132.608C139.931 133.408 140.196 134.104 140.758 134.699L138.909 137.125C138.183 136.438 137.658 135.622 137.332 134.678C137.008 133.75 136.937 132.758 137.119 131.699C137.304 130.658 137.791 129.62 138.58 128.584Z" fill="white"/>
<path d="M128.951 138.552C129.639 137.982 130.338 137.58 131.049 137.345C131.767 137.121 132.468 137.039 133.151 137.102C133.825 137.172 134.457 137.365 135.046 137.682C135.643 138.009 136.164 138.438 136.61 138.971L136.885 139.299C137.338 139.841 137.673 140.434 137.887 141.077C138.101 141.738 138.176 142.408 138.114 143.088C138.042 143.775 137.826 144.446 137.465 145.098C137.113 145.76 136.607 146.365 135.948 146.911C135.269 147.473 134.575 147.863 133.866 148.079C133.156 148.314 132.459 148.4 131.776 148.338C131.092 148.276 130.443 148.08 129.829 147.752C129.222 147.433 128.692 147.003 128.238 146.461L127.963 146.133C127.518 145.6 127.187 145.012 126.973 144.369C126.766 143.735 126.694 143.078 126.756 142.399C126.809 141.727 127.011 141.06 127.364 140.398C127.724 139.745 128.253 139.13 128.951 138.552ZM130.563 140.478C130.113 140.85 129.82 141.254 129.683 141.689C129.546 142.125 129.544 142.577 129.678 143.046C129.802 143.523 130.039 143.971 130.389 144.389C130.763 144.836 131.171 145.159 131.612 145.357C132.061 145.565 132.522 145.642 132.995 145.588C133.459 145.543 133.905 145.342 134.336 144.985C134.756 144.637 135.036 144.236 135.175 143.783C135.313 143.33 135.321 142.865 135.197 142.388C135.071 141.928 134.821 141.475 134.447 141.028C134.097 140.61 133.702 140.293 133.262 140.077C132.823 139.861 132.371 139.785 131.906 139.848C131.44 139.912 130.993 140.121 130.563 140.478Z" fill="white"/>
<path d="M122.652 143.749L127.462 152.725L125.371 153.834L123.308 149.985L123.456 149.906C123.948 150.824 124.242 151.649 124.339 152.383C124.426 153.122 124.309 153.773 123.99 154.335C123.671 154.897 123.166 155.361 122.474 155.728L122.359 155.789C121.305 156.348 120.319 156.429 119.402 156.032C118.479 155.652 117.646 154.768 116.903 153.381L114.156 148.254L116.79 146.857L119.617 152.132C119.874 152.612 120.227 152.93 120.677 153.084C121.126 153.238 121.592 153.188 122.075 152.932C122.569 152.67 122.885 152.299 123.022 151.819C123.155 151.356 123.087 150.874 122.818 150.371L120.018 145.146L122.652 143.749Z" fill="white"/>
<path d="M107.089 150.5C108.068 150.174 108.898 150.028 109.578 150.062C110.263 150.108 110.842 150.366 111.314 150.835C111.779 151.319 112.175 152.049 112.503 153.023L115.359 161.507L112.723 162.385L109.831 153.795C109.677 153.337 109.441 153.025 109.122 152.857C108.795 152.705 108.408 152.703 107.96 152.853L106.526 153.33L105.727 150.954L107.089 150.5ZM115.258 156.353L115.951 158.412L109.015 160.723L108.322 158.663L115.258 156.353Z" fill="white"/>
<path d="M97.4844 152.677L97.9847 155.643L98.4816 155.56L99.0251 158.782C99.1116 159.295 99.2991 159.659 99.5877 159.874C99.8763 160.089 100.29 160.152 100.83 160.062C101.1 160.017 101.455 159.951 101.894 159.865C102.334 159.78 102.785 159.685 103.247 159.583C103.709 159.481 104.128 159.386 104.504 159.298L104.921 161.769C104.643 161.841 104.316 161.921 103.94 162.009C103.564 162.096 103.174 162.18 102.771 162.26C102.369 162.34 101.989 162.409 101.634 162.469C100.603 162.641 99.7135 162.639 98.9649 162.463C98.2039 162.288 97.589 161.933 97.1201 161.397C96.6533 160.872 96.3416 160.146 96.1851 159.219L95.1475 153.068L97.4844 152.677ZM100.661 151.884C101.385 151.763 102.045 151.784 102.64 151.949C103.223 152.115 103.708 152.41 104.095 152.835C104.484 153.272 104.735 153.826 104.848 154.497C104.972 155.23 104.883 155.859 104.581 156.387C104.281 156.926 103.806 157.363 103.156 157.697C102.508 158.044 101.736 158.292 100.841 158.441L98.6877 158.801L98.4129 157.172L100.584 156.809C101.099 156.723 101.477 156.528 101.715 156.225C101.944 155.936 102.023 155.578 101.95 155.151C101.883 154.748 101.692 154.441 101.379 154.23C101.056 154.033 100.636 153.977 100.121 154.063C99.7898 154.118 99.5046 154.222 99.2655 154.375C99.0162 154.542 98.8294 154.781 98.705 155.09C98.5806 155.399 98.5483 155.806 98.6082 156.311L97.7854 155.695C97.7294 154.989 97.8023 154.375 98.0042 153.852C98.1938 153.331 98.5123 152.901 98.9598 152.563C99.395 152.227 99.9622 152 100.661 151.884Z" fill="white"/>
<path d="M87.809 152.814C88.692 152.829 89.4607 152.984 90.1149 153.28C90.7565 153.588 91.2907 153.993 91.7174 154.496C92.1441 154.998 92.4579 155.56 92.6586 156.183C92.8591 156.817 92.9536 157.469 92.942 158.137L92.9359 158.49C92.9239 159.183 92.8005 159.843 92.5657 160.47C92.3306 161.109 91.9912 161.673 91.5473 162.16C91.1034 162.648 90.5557 163.028 89.904 163.302C89.2399 163.575 88.485 163.705 87.6392 163.69C86.7189 163.674 85.9073 163.481 85.2046 163.11C84.5017 162.751 83.9443 162.253 83.5323 161.615C83.1204 160.976 82.8966 160.248 82.861 159.431L85.79 159.481C85.8318 159.94 86.0117 160.327 86.3297 160.641C86.6351 160.968 87.0863 161.137 87.6833 161.147C88.1808 161.156 88.5996 161.039 88.9397 160.798C89.2673 160.556 89.5157 160.22 89.6849 159.789C89.8541 159.359 89.9438 158.847 89.9541 158.253C89.9636 157.708 89.8975 157.212 89.756 156.764C89.6142 156.329 89.3838 155.984 89.0647 155.731C88.733 155.49 88.2997 155.365 87.7649 155.356C87.3669 155.349 87.0299 155.412 86.754 155.543C86.4653 155.687 86.238 155.881 86.0721 156.126C85.8934 156.382 85.7826 156.678 85.7395 157.011L82.8292 156.961C82.881 156.12 83.1302 155.382 83.5767 154.746C84.0229 154.122 84.6098 153.637 85.3374 153.291C86.0647 152.957 86.8886 152.798 87.809 152.814Z" fill="white"/>
<path d="M76.1111 151.719C77.1274 151.9 77.9258 152.168 78.5063 152.523C79.0846 152.891 79.468 153.393 79.6565 154.03C79.8305 154.677 79.8264 155.506 79.6442 156.517L78.0567 165.324L75.3202 164.836L76.9274 155.919C77.013 155.444 76.9565 155.057 76.7577 154.757C76.5445 154.468 76.2053 154.282 75.74 154.199L74.2524 153.933L74.697 151.467L76.1111 151.719ZM80.4538 160.754L80.0685 162.892L72.8691 161.607L73.2544 159.47L80.4538 160.754Z" fill="white"/>
<path d="M62.8679 147.027C64.0274 147.57 64.9118 148.243 65.5211 149.048C66.1139 149.859 66.4306 150.759 66.4713 151.749C66.5119 152.739 66.2755 153.777 65.762 154.863L62.3237 162.137L59.5545 160.841L63.0405 153.467C63.2946 152.929 63.4156 152.412 63.4035 151.914C63.3749 151.422 63.2196 150.98 62.9374 150.588C62.644 150.191 62.2159 149.861 61.653 149.598C61.0789 149.329 60.5502 149.212 60.0669 149.245C59.5723 149.274 59.1311 149.437 58.7432 149.734C58.3553 150.031 58.0316 150.454 57.7723 151.003L54.2863 158.377L51.5171 157.082L54.9554 149.808C55.4689 148.722 56.1218 147.879 56.9142 147.278C57.7066 146.678 58.6056 146.346 59.6113 146.284C60.6117 146.232 61.6972 146.48 62.8679 147.027Z" fill="white"/>
<path d="M51.5662 140.269C52.7283 141.14 53.4574 142.059 53.7534 143.025C54.0495 143.991 53.8916 144.919 53.2797 145.808L51.1641 144.221C51.3191 143.935 51.3412 143.587 51.2303 143.178C51.1019 142.772 50.7646 142.364 50.2183 141.954C49.8012 141.641 49.4061 141.454 49.033 141.391C48.6426 141.33 48.3463 141.434 48.1441 141.7C47.9643 141.937 47.9263 142.203 48.03 142.498C48.1263 142.803 48.4201 143.186 48.9115 143.648L49.5072 144.187C50.4157 145.024 50.9497 145.851 51.1093 146.668C51.2589 147.477 51.0717 148.228 50.5474 148.92C50.113 149.493 49.6058 149.864 49.0256 150.033C48.4455 150.203 47.8273 150.196 47.1709 150.014C46.5047 149.824 45.8437 149.483 45.1882 148.991C44.1354 148.202 43.4621 147.333 43.1685 146.384C42.8674 145.445 43.0315 144.53 43.6608 143.638L45.7764 145.225C45.6139 145.521 45.5844 145.848 45.688 146.205C45.7841 146.571 46.0655 146.93 46.5324 147.28C46.8999 147.555 47.2453 147.706 47.5687 147.732C47.892 147.757 48.1436 147.651 48.3233 147.414C48.4956 147.187 48.5323 146.943 48.4335 146.683C48.3346 146.423 48.0904 146.108 47.7007 145.738L47.105 145.199C46.1842 144.337 45.6142 143.476 45.395 142.614C45.1758 141.752 45.3508 140.946 45.92 140.195C46.3319 139.651 46.8404 139.289 47.4454 139.107C48.043 138.936 48.6973 138.946 49.4083 139.138C50.1119 139.341 50.8312 139.717 51.5662 140.269Z" fill="white"/>
<path d="M33.1827 131.747L33.3667 135.236L31.7169 136.571L28.3202 135.684L29.1474 133.578L31.3081 134.748L31.6554 134.467L30.9275 132.137L33.1827 131.747ZM28.7745 138.738L31.7163 136.835L33.7073 137.593L34.6334 140.959L32.398 141.285L32.3308 138.851L31.9098 138.689L30.2404 140.471L28.7745 138.738ZM37.0791 138.979L33.9533 137.393L33.6121 135.3L36.0827 132.821L37.5053 134.589L35.4119 135.853L35.4856 136.296L37.8566 136.842L37.0791 138.979Z" fill="white"/>
<path d="M31.7248 114.668C32.2039 115.797 32.4204 116.848 32.3743 117.821C32.3168 118.799 32.0761 119.679 31.6521 120.462C31.2167 121.249 30.6797 121.925 30.0413 122.488C29.3866 123.045 28.704 123.473 27.9935 123.772L27.6154 123.93C26.8361 124.258 26.0151 124.455 25.1523 124.522C24.278 124.593 23.4226 124.503 22.586 124.25C21.7446 123.985 20.9736 123.537 20.273 122.904C19.5561 122.265 18.9678 121.404 18.5081 120.321C18.029 119.192 17.8176 118.106 17.8738 117.061C17.93 116.016 18.2274 115.079 18.766 114.248C19.2883 113.411 20.0343 112.735 21.004 112.22L22.2017 115.042C21.7314 115.333 21.379 115.696 21.1448 116.13C20.9105 116.565 20.7927 117.051 20.7915 117.588C20.7854 118.115 20.9009 118.657 21.138 119.216C21.3752 119.775 21.6831 120.23 22.0618 120.581C22.4405 120.932 22.8704 121.182 23.3514 121.329C23.8276 121.465 24.346 121.509 24.9065 121.462C25.4507 121.408 26.0208 121.255 26.6167 121.005C27.2011 120.76 27.7083 120.459 28.1381 120.104C28.5517 119.742 28.8789 119.336 29.1198 118.886C29.3444 118.429 29.4597 117.937 29.4658 117.411C29.4604 116.889 29.3368 116.343 29.0948 115.773C28.727 114.907 28.2053 114.266 27.5297 113.851C26.8492 113.425 26.1099 113.306 25.3118 113.493L24.1214 110.689C25.0817 110.406 26.0547 110.36 27.0402 110.551C28.0095 110.735 28.9096 111.169 29.7406 111.855C30.5553 112.533 31.2167 113.471 31.7248 114.668Z" fill="white"/>
<path d="M27.8745 101.405C28.0253 102.284 28.0244 103.087 27.8719 103.816C27.7072 104.547 27.4265 105.191 27.03 105.748C26.6314 106.293 26.1465 106.74 25.5753 107.088C24.9918 107.438 24.3568 107.671 23.6701 107.788L23.2471 107.86C22.5482 107.979 21.8651 107.969 21.1979 107.831C20.5163 107.684 19.8955 107.412 19.3357 107.018C18.7737 106.611 18.2992 106.089 17.9122 105.452C17.5129 104.817 17.241 104.078 17.0965 103.236C16.9478 102.37 16.9569 101.578 17.1237 100.859C17.2762 100.13 17.5507 99.4872 17.9472 98.9302C18.3438 98.3732 18.8389 97.9125 19.4325 97.548C20.0139 97.1856 20.654 96.945 21.3529 96.8263L21.7759 96.7544C22.4626 96.6378 23.1395 96.6483 23.8068 96.786C24.4617 96.9259 25.0692 97.193 25.629 97.5875C26.1868 97.9698 26.6653 98.4786 27.0646 99.1138C27.4517 99.7511 27.7216 100.515 27.8745 101.405ZM25.3915 101.827C25.2931 101.254 25.0888 100.799 24.7786 100.463C24.4685 100.126 24.0759 99.8977 23.601 99.7775C23.124 99.6451 22.6157 99.6248 22.0762 99.7164C21.4999 99.8143 21.015 100.003 20.6214 100.284C20.2156 100.566 19.9175 100.924 19.727 101.358C19.5344 101.78 19.4852 102.266 19.5795 102.815C19.6716 103.351 19.8799 103.793 20.2044 104.14C20.529 104.486 20.9297 104.726 21.4067 104.858C21.8694 104.98 22.3889 104.993 22.9652 104.895C23.5047 104.803 23.9784 104.622 24.3863 104.352C24.7942 104.082 25.0873 103.731 25.2655 103.299C25.4437 102.867 25.4857 102.376 25.3915 101.827Z" fill="white"/>
<path d="M26.5136 93.3017L16.295 92.9428L16.3787 90.5868L20.7607 90.7407L20.7548 90.9076C19.7106 90.871 18.845 90.7105 18.158 90.4264C17.4715 90.1298 16.9639 89.7034 16.6351 89.147C16.3064 88.5906 16.1558 87.9228 16.1835 87.1436L16.1881 87.0138C16.2302 85.8265 16.6539 84.9374 17.459 84.3466C18.2521 83.7429 19.4381 83.4688 21.0169 83.5242L26.8534 83.7292L26.7481 86.6975L20.7437 86.4865C20.1967 86.4673 19.7435 86.6124 19.384 86.9217C19.0245 87.2311 18.8351 87.6578 18.8158 88.202C18.796 88.7585 18.9602 89.2163 19.3085 89.5752C19.6447 89.9214 20.0987 90.1045 20.6706 90.1246L26.619 90.3335L26.5136 93.3017Z" fill="white"/>
<path d="M28.4241 76.5308C28.2187 77.5374 27.931 78.3254 27.561 78.8947C27.1788 79.4615 26.6655 79.8314 26.0209 80.0043C25.3667 80.1627 24.5336 80.1397 23.5218 79.9355L14.7079 78.1561L15.2609 75.4455L24.1845 77.247C24.66 77.343 25.0504 77.2956 25.3559 77.1047C25.6517 76.8992 25.8466 76.5661 25.9406 76.1052L26.2412 74.6316L28.7098 75.13L28.4241 76.5308ZM19.2457 80.6443L17.1062 80.2124L18.5611 73.0811L20.7005 73.5131L19.2457 80.6443Z" fill="white"/>
<path d="M31.3347 67.1478L28.5031 66.0954L28.3268 66.5649L25.2505 65.4217C24.7611 65.2398 24.3505 65.2193 24.0187 65.3602C23.6869 65.5011 23.4253 65.8266 23.2337 66.3367C23.1379 66.5917 23.0175 66.9301 22.8724 67.3517C22.7273 67.7734 22.5837 68.2088 22.4416 68.658C22.2995 69.1072 22.1726 69.5158 22.0609 69.8838L19.7013 69.0069C19.7781 68.7316 19.8723 68.4099 19.984 68.0419C20.0957 67.6739 20.2175 67.2964 20.3495 66.9095C20.4815 66.5226 20.6107 66.1611 20.7369 65.8249C21.1026 64.8512 21.5494 64.0858 22.0772 63.529C22.6094 62.9606 23.2262 62.6086 23.9278 62.473C24.6178 62.3331 25.4055 62.4277 26.2911 62.7568L32.1641 64.9394L31.3347 67.1478ZM30.4366 70.2817C30.1797 70.9657 29.831 71.523 29.3904 71.9538C28.9541 72.3729 28.4543 72.6429 27.8911 72.7638C27.3161 72.8804 26.7082 72.8196 26.0673 72.5815C25.3681 72.3216 24.8646 71.9298 24.5568 71.4058C24.2373 70.8776 24.0946 70.2499 24.1286 69.5227C24.151 68.7913 24.3211 68.0024 24.6389 67.1562L25.403 65.1217L26.9586 65.6998L26.188 67.7517C26.0052 68.2386 25.9861 68.6608 26.1306 69.0184C26.2679 69.36 26.5405 69.6066 26.9483 69.7582C27.3328 69.9011 27.6954 69.8905 28.0358 69.7264C28.369 69.5464 28.627 69.2129 28.8099 68.7261C28.9274 68.4131 28.9795 68.1153 28.966 67.8329C28.9453 67.5346 28.8314 67.2545 28.6243 66.9926C28.4173 66.7307 28.0792 66.4994 27.6102 66.2986L28.5575 65.8977C29.1999 66.2025 29.6983 66.5726 30.0526 67.0082C30.4113 67.4321 30.6259 67.9214 30.6965 68.476C30.7714 69.0191 30.6848 69.621 30.4366 70.2817Z" fill="white"/>
<path d="M36.0337 58.7989C35.5778 59.5514 35.0572 60.1351 34.4719 60.55C33.8823 60.9479 33.2621 61.2046 32.6112 61.3201C31.9603 61.4356 31.3139 61.4238 30.672 61.2847C30.0195 61.1391 29.4055 60.8939 28.8302 60.549L28.5265 60.367C27.9299 60.0094 27.4176 59.5723 26.9898 59.0558C26.5513 58.5329 26.2314 57.9582 26.0299 57.3318C25.8284 56.7053 25.7721 56.0431 25.8609 55.345C25.9561 54.6364 26.2221 53.9216 26.6586 53.2009C27.1338 52.4165 27.7088 51.8149 28.3837 51.3959C29.048 50.9706 29.761 50.7406 30.5227 50.7059C31.2844 50.6713 32.0297 50.8435 32.7586 51.2226L31.2465 53.7188C30.8266 53.5249 30.4 53.4859 29.9667 53.6018C29.5292 53.7007 29.1564 54.0046 28.8482 54.5134C28.5914 54.9373 28.4828 55.3563 28.5225 55.7702C28.5687 56.1735 28.7365 56.5558 29.026 56.9171C29.3154 57.2785 29.7158 57.6124 30.2273 57.919C30.6961 58.2 31.1608 58.3919 31.6214 58.4946C32.0713 58.5909 32.4863 58.5652 32.8663 58.4173C33.2421 58.2525 33.5681 57.9422 33.8442 57.4864C34.0496 57.1472 34.1644 56.8259 34.1884 56.5225C34.2082 56.2021 34.1533 55.9091 34.0237 55.6436C33.8898 55.361 33.6887 55.1177 33.4203 54.9134L34.9227 52.4332C35.6279 52.8993 36.1452 53.4839 36.4745 54.1869C36.7932 54.8836 36.9208 55.632 36.8574 56.432C36.7834 57.2255 36.5088 58.0145 36.0337 58.7989Z" fill="white"/>
<path d="M42.848 49.295C42.1807 50.0788 41.5472 50.6315 40.9473 50.9532C40.338 51.2669 39.709 51.3451 39.0604 51.1879C38.4103 51.0133 37.6913 50.5941 36.9034 49.9303L30.0399 44.1485L31.8367 42.0379L38.7856 47.8916C39.1558 48.2035 39.521 48.349 39.8811 48.3281C40.2398 48.2897 40.5719 48.0911 40.8774 47.7322L41.8541 46.5848L43.7765 48.2042L42.848 49.295ZM32.8126 48.503L31.1465 47.0996L35.8735 41.5467L37.5396 42.9502L32.8126 48.503Z" fill="white"/>
<path d="M53.5492 40.233C52.4983 40.9623 51.4704 41.3889 50.4653 41.513C49.4634 41.6198 48.521 41.4439 47.6382 40.9853C46.7554 40.5266 45.9688 39.805 45.2784 38.8205L40.6558 32.2285L43.1656 30.4869L47.8523 37.1702C48.1939 37.6574 48.5846 38.02 49.0245 38.2579C49.4675 38.4786 49.93 38.565 50.4121 38.5172C50.9044 38.4622 51.4056 38.2577 51.9157 37.9037C52.4361 37.5427 52.8021 37.1454 53.0137 36.7118C53.2356 36.2712 53.3138 35.8095 53.2483 35.3269C53.1828 34.8442 52.9757 34.3542 52.627 33.8569L47.9403 27.1735L50.4501 25.4319L55.0727 32.0239C55.7631 33.0084 56.1722 33.9919 56.3 34.9745C56.4279 35.957 56.2684 36.8976 55.8216 37.796C55.3677 38.6844 54.6102 39.4967 53.5492 40.233Z" fill="white"/>
<path d="M65.0786 33.8483C63.7393 34.4149 62.575 34.5848 61.5858 34.3578C60.5966 34.1308 59.8673 33.5316 59.3979 32.5603L61.8361 31.5287C62.0085 31.8054 62.3004 31.9979 62.7117 32.1063C63.1296 32.1985 63.6533 32.1114 64.2829 31.845C64.7637 31.6416 65.1245 31.3948 65.3654 31.1046C65.6129 30.7982 65.6709 30.4912 65.5394 30.1837C65.4226 29.9104 65.2099 29.7449 64.9013 29.6872C64.5879 29.6181 64.1075 29.6801 63.4602 29.8733L62.6926 30.1174C61.5107 30.483 60.524 30.5306 59.7326 30.2603C58.9526 29.9852 58.3921 29.449 58.0513 28.6519C57.7689 27.9914 57.6988 27.3688 57.8408 26.7843C57.9829 26.1997 58.2972 25.67 58.7836 25.1953C59.2815 24.7157 59.9081 24.316 60.6636 23.9964C61.877 23.483 62.9702 23.3366 63.943 23.557C64.9111 23.766 65.6265 24.3643 66.0893 25.3519L63.6511 26.3835C63.4738 26.0954 63.204 25.907 62.8417 25.8183C62.4744 25.7181 62.0218 25.7819 61.4838 26.0095C61.0602 26.1887 60.7566 26.4113 60.573 26.6773C60.3893 26.9432 60.3559 27.2129 60.4727 27.4862C60.5847 27.7481 60.7787 27.9014 61.0546 27.946C61.3305 27.9907 61.7268 27.9373 62.2433 27.786L63.0109 27.5419C64.2206 27.1781 65.2555 27.1167 66.1156 27.358C66.9758 27.5992 67.5908 28.1526 67.9609 29.018C68.2287 29.6444 68.2907 30.2636 68.1469 30.8758C67.9982 31.4766 67.6627 32.0355 67.1402 32.5524C66.6129 33.0579 65.9256 33.4899 65.0786 33.8483Z" fill="white"/>
<path d="M81.6844 22.2918L78.5576 20.7009L78.2229 18.6111L80.6978 16.1324L82.1146 17.9003L80.0134 19.1732L80.0839 19.6132L82.4758 20.1551L81.6844 22.2918ZM77.8132 14.9919L77.9938 18.4783L76.337 19.8123L72.9445 18.9215L73.7815 16.8339L75.9328 17.9967L76.2845 17.7154L75.5711 15.3849L77.8132 14.9919ZM73.4407 22.0195L76.3869 20.124L78.3784 20.8797L79.2961 24.2493L77.0451 24.5873L76.9951 22.1516L76.5729 21.993L74.9099 23.7603L73.4407 22.0195Z" fill="white"/>
<defs>
<linearGradient id="paint0_linear_1639_9205" x1="0" y1="90.0039" x2="180" y2="90.0039" gradientUnits="userSpaceOnUse">
<stop stop-color="#386BB7"/>
<stop offset="1" stop-color="#E24C4A"/>
</linearGradient>
</defs>
</svg>
