<svg width="29" height="26" viewBox="0 0 29 26" fill="none" xmlns="http://www.w3.org/2000/svg">
<path d="M9.65488 4.30858H24.9118L25.129 3.33937C25.4466 1.83543 24.3101 0.415039 22.7728 0.415039H7.95039C6.02867 0.415039 4.37431 1.75187 3.95654 3.62345L0.714656 18.5961C0.397159 20.1 1.53348 21.5204 3.07087 21.5204H3.97324L7.28198 6.21357C7.53264 5.11068 8.51857 4.30858 9.65488 4.30858Z" fill="#00CDFA"/>
<path d="M25.8145 4.30957H24.9121L21.6033 19.6163C21.3694 20.7192 20.3835 21.5214 19.2472 21.5214H3.99027L3.77304 22.4906C3.45554 23.9945 4.59187 25.415 6.12925 25.415H20.9516C22.8734 25.415 24.5277 24.078 24.9455 22.2065L28.1874 7.25062C28.5049 5.72997 27.3519 4.30957 25.8145 4.30957Z" fill="url(#paint0_linear_62_2426)"/>
<path d="M21.6031 19.6163L24.9118 4.30957H9.65489C8.51856 4.30957 7.53263 5.09497 7.29868 6.21456L3.98996 21.5214H19.2469C20.3832 21.5214 21.3524 20.7192 21.6031 19.6163Z" fill="#3A00FF"/>
<path d="M8.95319 15.6803L7.84912 9.94043H9.5805L10.1137 13.5224L11.864 9.94043H13.0307L13.7145 13.5224L15.3204 9.94043H17.0518L14.2477 15.6803H12.7987L12.1085 12.318L10.4211 15.6803H8.95319Z" fill="white"/>
<path d="M16.4442 14.7514L17.3475 13.7039C17.7553 14.2056 18.2697 14.4628 18.9033 14.4628C19.311 14.4628 19.6685 14.2935 19.7251 14.0112C19.7439 13.8418 19.6309 13.6976 19.3674 13.5721C19.3047 13.5407 19.1668 13.4905 18.9472 13.4153C18.5144 13.2459 18.3261 13.1832 17.9498 12.9448C17.4228 12.6186 17.1718 12.167 17.2596 11.3891C17.4291 10.3289 18.4014 9.73926 19.6309 9.73926C20.4715 9.73926 21.1615 10.0153 21.7199 10.561L20.8291 11.6024C20.459 11.2574 20.0325 11.088 19.5494 11.088C19.1605 11.088 18.9284 11.2008 18.8782 11.4455C18.8343 11.6463 18.9409 11.8156 19.1918 11.9286C19.2734 11.9725 19.4428 12.0414 19.6937 12.1355C19.9446 12.2297 20.1579 12.3112 20.3336 12.4115C20.8981 12.6499 21.5631 13.2082 21.3623 14.0614C21.2683 14.6197 20.986 15.0588 20.5092 15.3724C20.0387 15.6861 19.4679 15.843 18.828 15.843C17.7992 15.8367 17.0025 15.479 16.4442 14.7514Z" fill="white"/>
<defs>
<linearGradient id="paint0_linear_62_2426" x1="3.71925" y1="14.8646" x2="28.2342" y2="14.8646" gradientUnits="userSpaceOnUse">
<stop stop-color="#FFB3FF"/>
<stop offset="0.5335" stop-color="#FF76DF"/>
<stop offset="1" stop-color="#C239C6"/>
</linearGradient>
</defs>
</svg>
