<svg width="26" height="26" viewBox="0 0 26 26" fill="none" xmlns="http://www.w3.org/2000/svg">
<path d="M23.2015 13.196C22.9485 12.251 22.4425 11.4195 21.7485 10.765C22.3155 9.43254 22.23 7.90304 21.505 6.64654C20.8095 5.44254 19.687 4.58104 18.344 4.22104C17.3985 3.96804 16.4245 3.99004 15.5095 4.26504C14.638 3.10604 13.281 2.41504 11.8235 2.41504C9.37049 2.41504 7.31299 4.12304 6.76549 6.41054C6.76049 6.41104 6.75599 6.40904 6.75099 6.40954C5.29999 6.58954 4.04899 7.41904 3.31849 8.68404C2.62299 9.88804 2.43849 11.291 2.79849 12.634C3.05199 13.5795 3.55799 14.412 4.25299 15.0665C3.68599 16.3995 3.76799 17.9235 4.49499 19.1835C5.19049 20.3875 6.31299 21.249 7.65599 21.609C8.10399 21.729 8.55949 21.7885 9.01149 21.7885C9.51299 21.7885 10.009 21.708 10.49 21.5635C11.361 22.7245 12.7125 23.415 14.1765 23.415C16.632 23.415 18.6905 21.704 19.2365 19.4135C20.6765 19.2385 21.952 18.4105 22.682 17.146C23.377 15.942 23.5615 14.539 23.2015 13.196ZM18.085 5.18654C19.1705 5.47704 20.077 6.17354 20.6385 7.14604C21.163 8.05454 21.26 9.14604 20.923 10.1295C20.8735 10.0985 20.8265 10.064 20.776 10.0345L16.1915 7.38754C16.0355 7.29804 15.8425 7.29904 15.6865 7.39054L10.5875 10.411L10.5615 8.10754L14.893 5.60704C15.8665 5.04504 17 4.89654 18.085 5.18654ZM15.3685 11.5125L15.3995 14.2645L13.0315 15.667L10.632 14.3175L10.601 11.5655L12.969 10.163L15.3685 11.5125ZM7.61749 7.62104C7.61749 5.30154 9.50449 3.41504 11.8235 3.41504C12.878 3.41504 13.8695 3.87304 14.5525 4.65904C14.5 4.68704 14.4455 4.71054 14.3935 4.74054L9.80849 7.38754C9.65249 7.47804 9.55649 7.64604 9.55849 7.82604L9.62499 13.7515L7.61749 12.6225V7.62104ZM3.76399 12.3755C3.47349 11.2905 3.62299 10.1565 4.18449 9.18404C4.71449 8.26604 5.59599 7.64704 6.62649 7.44704C6.62449 7.50504 6.61749 7.56204 6.61749 7.62104V12.915C6.61749 13.0955 6.71499 13.262 6.87249 13.351L12.037 16.256L10.055 17.43L5.72399 14.929C4.75099 14.3675 4.05499 13.461 3.76399 12.3755ZM7.91499 20.6435C6.82948 20.353 5.92299 19.6565 5.36149 18.684C4.83499 17.772 4.73698 16.6835 5.07499 15.699C5.12548 15.7305 5.17299 15.7655 5.22449 15.7955L9.80899 18.4425C9.88599 18.487 9.97249 18.5095 10.059 18.5095C10.1475 18.5095 10.2355 18.486 10.314 18.4395L15.413 15.419L15.439 17.7225L11.1075 20.223C10.1345 20.7855 9.00049 20.935 7.91499 20.6435ZM18.3825 18.209C18.3825 20.5285 16.496 22.415 14.1765 22.415C13.117 22.415 12.1295 21.9555 11.447 21.168C11.4995 21.14 11.555 21.119 11.607 21.089L16.192 18.442C16.348 18.3515 16.444 18.1835 16.442 18.0035L16.375 12.0785L18.3825 13.2075V18.209ZM21.8155 16.646C21.2875 17.561 20.3955 18.189 19.3735 18.3875C19.3755 18.3275 19.3825 18.269 19.3825 18.209V12.915C19.3825 12.7345 19.285 12.568 19.1275 12.479L13.963 9.57404L15.945 8.40004L20.276 10.901C21.249 11.4625 21.945 12.3695 22.236 13.4545C22.5265 14.5395 22.377 15.6735 21.8155 16.646Z" fill="#70A597"/>
</svg>
