<svg width="26" height="26" viewBox="0 0 26 26" fill="none" xmlns="http://www.w3.org/2000/svg">
<path fill-rule="evenodd" clip-rule="evenodd" d="M6.25118 16.2189C6.25118 17.6733 5.07742 18.8471 3.62307 18.8471C2.16872 18.8471 0.994965 17.6694 0.994965 16.2189C0.994965 14.7685 2.16872 13.5908 3.62307 13.5908H6.25118V16.2189ZM7.56325 16.2189C7.56325 14.7646 8.73701 13.5908 10.1914 13.5908C11.6457 13.5908 12.8195 14.7646 12.8195 16.2189V22.7873C12.8195 24.2417 11.6457 25.4154 10.1914 25.4154C8.73701 25.4154 7.56325 24.2417 7.56325 22.7873V16.2189Z" fill="#E01E5A"/>
<path fill-rule="evenodd" clip-rule="evenodd" d="M10.1909 5.6713C8.7366 5.6713 7.56284 4.49753 7.56284 3.04317C7.56284 1.5888 8.7366 0.415039 10.1909 0.415039C11.6453 0.415039 12.8191 1.5888 12.8191 3.04317V5.6713H10.1909ZM10.1909 7.00314C11.6453 7.00314 12.8191 8.17691 12.8191 9.63127C12.8191 11.0856 11.6453 12.2594 10.1909 12.2594H3.6029C2.14855 12.2594 0.974792 11.0817 0.974792 9.63127C0.974792 8.18086 2.14855 7.00314 3.6029 7.00314H10.1909Z" fill="#36C5F0"/>
<path fill-rule="evenodd" clip-rule="evenodd" d="M20.7186 9.63127C20.7186 8.17691 21.8923 7.00314 23.3467 7.00314C24.801 7.00314 25.9748 8.17691 25.9748 9.63127C25.9748 11.0856 24.801 12.2594 23.3467 12.2594H20.7186V9.63127ZM19.4065 9.63127C19.4065 11.0856 18.2328 12.2594 16.7784 12.2594C15.3241 12.2594 14.1503 11.0856 14.1503 9.63127V3.04317C14.1503 1.5888 15.3241 0.415039 16.7784 0.415039C18.2328 0.415039 19.4065 1.5888 19.4065 3.04317V9.63127Z" fill="#2EB67D"/>
<path fill-rule="evenodd" clip-rule="evenodd" d="M16.7784 20.1592C18.2328 20.1592 19.4065 21.3329 19.4065 22.7873C19.4065 24.2417 18.2328 25.4154 16.7784 25.4154C15.3241 25.4154 14.1503 24.2417 14.1503 22.7873V20.1592H16.7784ZM16.7784 18.8471C15.3241 18.8471 14.1503 17.6733 14.1503 16.2189C14.1503 14.7646 15.3241 13.5908 16.7784 13.5908H23.3665C24.8208 13.5908 25.9946 14.7646 25.9946 16.2189C25.9946 17.6733 24.8208 18.8471 23.3665 18.8471H16.7784Z" fill="#ECB22E"/>
</svg>
