<svg width="26" height="26" viewBox="0 0 26 26" fill="none" xmlns="http://www.w3.org/2000/svg">
<path d="M4.00325 8.91926L12.3484 0.574084C12.4522 0.47215 12.5919 0.415039 12.7374 0.415039C12.8829 0.415039 13.0226 0.47215 13.1264 0.574084L25.1491 12.6675C25.251 12.7713 25.3081 12.911 25.3081 13.0565C25.3081 13.202 25.251 13.3416 25.1491 13.4455L25.0783 13.5162C24.5987 13.9919 23.9505 14.2589 23.2749 14.2589C22.5994 14.2589 21.9512 13.9919 21.4715 13.5162L12.9849 5.02956C12.8811 4.92762 12.7414 4.87051 12.5959 4.87051C12.4505 4.87051 12.3108 4.92762 12.207 5.02956L7.46862 9.76792C6.98898 10.2437 6.34078 10.5106 5.66521 10.5106C4.98964 10.5106 4.34144 10.2437 3.8618 9.76792C3.81293 9.62586 3.80027 9.47385 3.82497 9.32566C3.84967 9.17747 3.91094 9.03779 4.00325 8.91926Z" fill="white"/>
<path d="M21.5422 16.9105L13.1971 25.2557C13.0933 25.3576 12.9536 25.4147 12.8081 25.4147C12.6626 25.4147 12.5229 25.3576 12.4191 25.2557L0.325701 13.1622C0.223767 13.0584 0.166656 12.9188 0.166656 12.7733C0.166656 12.6278 0.223767 12.4881 0.325701 12.3843C0.805339 11.9086 1.45354 11.6416 2.12911 11.6416C2.80468 11.6416 3.45288 11.9086 3.93251 12.3843L12.3484 20.8002C12.4522 20.9021 12.5919 20.9592 12.7374 20.9592C12.8829 20.9592 13.0225 20.9021 13.1263 20.8002L17.8647 16.0618C18.3443 15.5861 18.9925 15.3191 19.6681 15.3191C20.3437 15.3191 20.9919 15.5861 21.4715 16.0618C21.534 16.1114 21.5857 16.1733 21.6234 16.2437C21.661 16.314 21.6839 16.3913 21.6905 16.4709C21.6971 16.5504 21.6874 16.6304 21.6619 16.706C21.6364 16.7816 21.5957 16.8512 21.5422 16.9105Z" fill="white"/>
<path d="M13.6214 12.6674L11.5705 10.6165C11.2972 10.3168 11.1456 9.92589 11.1456 9.5203C11.1456 9.11472 11.2972 8.72376 11.5705 8.42411L11.6412 8.35339C11.7813 8.20278 11.951 8.08265 12.1396 8.00051C12.3282 7.91837 12.5317 7.87598 12.7374 7.87598C12.9431 7.87598 13.1466 7.91837 13.3352 8.00051C13.5238 8.08265 13.6935 8.20278 13.8336 8.35339L18.0769 12.5967C18.1788 12.7005 18.2359 12.8402 18.2359 12.9857C18.2359 13.1312 18.1788 13.2708 18.0769 13.3746L13.975 17.4765C13.8349 17.6271 13.6653 17.7472 13.4767 17.8294C13.2881 17.9115 13.0845 17.9539 12.8788 17.9539C12.6731 17.9539 12.4696 17.9115 12.281 17.8294C12.0924 17.7472 11.9228 17.6271 11.7826 17.4765C11.632 17.3364 11.5119 17.1667 11.4298 16.9781C11.3476 16.7895 11.3052 16.586 11.3052 16.3803C11.3052 16.1746 11.3476 15.9711 11.4298 15.7825C11.5119 15.5939 11.632 15.4242 11.7826 15.2841L13.6921 13.3746C13.7663 13.2676 13.7999 13.1376 13.7869 13.008C13.774 12.8784 13.7153 12.7577 13.6214 12.6674Z" fill="white"/>
<path d="M11.0754 12.4551L10.3682 11.7479C10.2281 11.5973 10.0584 11.4772 9.86983 11.395C9.68123 11.3129 9.47773 11.2705 9.27201 11.2705C9.0663 11.2705 8.8628 11.3129 8.6742 11.395C8.48559 11.4772 8.31594 11.5973 8.17583 11.7479C7.9025 12.0476 7.75098 12.4385 7.75098 12.8441C7.75098 13.2497 7.9025 13.6406 8.17583 13.9403C8.31594 14.0909 8.48559 14.211 8.6742 14.2932C8.8628 14.3753 9.0663 14.4177 9.27201 14.4177C9.47773 14.4177 9.68123 14.3753 9.86983 14.2932C10.0584 14.211 10.2281 14.0909 10.3682 13.9403L11.0754 13.2331C11.1774 13.1293 11.2345 12.9896 11.2345 12.8441C11.2345 12.6986 11.1774 12.5589 11.0754 12.4551Z" fill="white"/>
</svg>
