<svg width="60" height="61" viewBox="0 0 60 61" fill="none" xmlns="http://www.w3.org/2000/svg">
<path d="M32.0143 30.0454C31.3786 30.3214 30.693 30.4639 30 30.4639C29.307 30.4639 28.6214 30.3214 27.9857 30.0454L3.55716 18.7311C3.16048 18.5311 2.82712 18.2248 2.59421 17.8465C2.3613 17.4681 2.23798 17.0326 2.23798 16.5883C2.23798 16.144 2.3613 15.7084 2.59421 15.3301C2.82712 14.9518 3.16048 14.6455 3.55716 14.4454L27.9857 3.04542C28.6214 2.76939 29.307 2.62695 30 2.62695C30.693 2.62695 31.3786 2.76939 32.0143 3.04542L56.4429 14.3597C56.8396 14.5598 57.1729 14.866 57.4058 15.2444C57.6387 15.6227 57.7621 16.0583 57.7621 16.5026C57.7621 16.9468 57.6387 17.3824 57.4058 17.7607C57.1729 18.1391 56.8396 18.4453 56.4429 18.6454L32.0143 30.0454Z" stroke="#E24C4A" stroke-width="2" stroke-linecap="round" stroke-linejoin="round"/>
<path d="M57.8572 31.9736L31.7143 44.0165C31.156 44.2712 30.5494 44.403 29.9357 44.403C29.3221 44.403 28.7155 44.2712 28.1572 44.0165L2.14288 31.9736" stroke="#E24C4A" stroke-width="2" stroke-linecap="round" stroke-linejoin="round"/>
<path d="M57.8572 45.9023L31.7143 57.9452C31.156 58.1999 30.5494 58.3317 29.9357 58.3317C29.3221 58.3317 28.7155 58.1999 28.1572 57.9452L2.14288 45.9023" stroke="#E24C4A" stroke-width="2" stroke-linecap="round" stroke-linejoin="round"/>
</svg>
