<svg width="21" height="21" viewBox="0 0 21 21" fill="none" xmlns="http://www.w3.org/2000/svg">
<g clip-path="url(#clip0_72_754)">
<path d="M20.7551 11.6326C20.755 11.6325 20.755 11.6324 20.755 11.6323L16.9789 2.15089C16.8988 1.94943 16.6704 1.85109 16.469 1.93123C16.4688 1.93128 16.4687 1.93133 16.4685 1.93142L1.14944 8.03133C1.08697 8.05832 1.03279 8.10141 0.992401 8.15618C0.865 8.22238 0.784516 8.35342 0.783142 8.49696V18.7047C0.783142 18.9215 0.958931 19.0973 1.17575 19.0973H17.6652C17.882 19.0973 18.0578 18.9215 18.0578 18.7047V13.1297L20.5359 12.1427C20.7373 12.0624 20.8354 11.834 20.7551 11.6326ZM17.2726 18.3121H1.56835V8.88957H17.2726V18.3121ZM7.33376 8.10632L13.9075 5.48686C14.4942 6.10354 15.3072 6.45404 16.1584 6.45738L16.814 8.10632H7.33376ZM18.0578 12.2864V8.49696C18.0578 8.28015 17.882 8.10436 17.6652 8.10436H17.6589L16.827 6.01491C16.8177 5.99749 16.807 5.9809 16.7948 5.96544C16.7527 5.77636 16.5776 5.64733 16.3845 5.66314C15.5925 5.73533 14.8178 5.40171 14.3261 4.77663C14.2037 4.62563 13.9887 4.58809 13.8224 4.68869C13.8037 4.6909 13.7852 4.69433 13.767 4.6989L5.74135 7.89471C5.64423 7.93279 5.56655 8.00832 5.52581 8.10436H3.08852L16.3947 2.80615L19.8806 11.5593L18.0578 12.2864Z" fill="#E24C4A"/>
<path d="M2.6339 15.6616C3.39614 15.8869 3.99261 16.4827 4.21884 17.2446C4.26846 17.4109 4.42143 17.5249 4.59496 17.5249C4.61533 17.5237 4.63555 17.5206 4.65542 17.5159C4.67304 17.5209 4.69105 17.5246 4.70921 17.5269H14.1317C14.1479 17.5248 14.1639 17.5215 14.1796 17.5171C14.3758 17.5648 14.5735 17.4445 14.6212 17.2484C14.6214 17.2476 14.6216 17.2469 14.6217 17.2462C14.8474 16.4835 15.4439 15.8869 16.2067 15.6612C16.3916 15.6047 16.5066 15.4204 16.476 15.2294C16.4812 15.2103 16.485 15.1909 16.4874 15.1713V12.0304C16.4851 12.0108 16.4811 11.9913 16.4756 11.9723C16.5064 11.7813 16.3914 11.5969 16.2063 11.5405C15.4435 11.3149 14.8471 10.7181 14.6221 9.95512C14.5653 9.76888 14.3791 9.65365 14.1871 9.6858C14.1689 9.68074 14.1504 9.67706 14.1317 9.6748H4.70921C4.68943 9.67716 4.66985 9.68109 4.65071 9.68658C4.45976 9.65616 4.27553 9.77104 4.21884 9.95591C3.99305 10.7185 3.39653 11.3149 2.6339 11.5405C2.44893 11.597 2.334 11.7813 2.36457 11.9723C2.35947 11.9914 2.35579 12.0108 2.35358 12.0304V15.1713C2.35583 15.1897 2.35951 15.208 2.36457 15.2259C2.33238 15.4181 2.44756 15.6045 2.6339 15.6616ZM3.13879 12.1898C3.92714 11.8732 4.55197 11.2484 4.86861 10.46H13.9719C14.2887 11.2484 14.9137 11.8732 15.7022 12.1898V15.0119C14.9141 15.3289 14.2893 15.9536 13.9723 16.7417H4.86861C4.55163 15.9536 3.92689 15.3289 3.13879 15.0119V12.1898Z" fill="#E24C4A"/>
<path d="M9.42002 15.9564C10.721 15.9564 11.7757 14.9017 11.7757 13.6007C11.7757 12.2998 10.721 11.2451 9.42002 11.2451C8.11903 11.2451 7.06439 12.2998 7.06439 13.6007C7.06567 14.9012 8.11957 15.9551 9.42002 15.9564ZM9.42002 12.0303C10.2873 12.0303 10.9904 12.7334 10.9904 13.6007C10.9904 14.4681 10.2873 15.1712 9.42002 15.1712C8.55271 15.1712 7.8496 14.4681 7.8496 13.6007C7.8496 12.7334 8.55271 12.0303 9.42002 12.0303Z" fill="#E24C4A"/>
<path d="M5.10154 14.1895C5.42677 14.1895 5.69045 13.9259 5.69045 13.6006C5.69045 13.2754 5.42677 13.0117 5.10154 13.0117C4.77632 13.0117 4.51263 13.2754 4.51263 13.6006C4.51263 13.9259 4.77632 14.1895 5.10154 14.1895ZM5.10154 13.4043C5.20995 13.4043 5.29784 13.4922 5.29784 13.6006C5.29784 13.709 5.20995 13.7969 5.10154 13.7969C4.99313 13.7969 4.90524 13.709 4.90524 13.6006C4.90524 13.4922 4.99313 13.4043 5.10154 13.4043Z" fill="#E24C4A"/>
<path d="M13.7391 14.1895C14.0643 14.1895 14.328 13.9259 14.328 13.6006C14.328 13.2754 14.0643 13.0117 13.7391 13.0117C13.4139 13.0117 13.1502 13.2754 13.1502 13.6006C13.1502 13.9259 13.4139 14.1895 13.7391 14.1895ZM13.7391 13.4043C13.8475 13.4043 13.9354 13.4922 13.9354 13.6006C13.9354 13.709 13.8475 13.7969 13.7391 13.7969C13.6307 13.7969 13.5428 13.709 13.5428 13.6006C13.5428 13.4922 13.6307 13.4043 13.7391 13.4043Z" fill="#E24C4A"/>
</g>
<defs>
<clipPath id="clip0_72_754">
<rect width="20" height="20" fill="white" transform="translate(0.783142 0.5)"/>
</clipPath>
</defs>
</svg>
