<svg width="20" height="21" viewBox="0 0 20 21" fill="none" xmlns="http://www.w3.org/2000/svg">
<g clip-path="url(#clip0_72_633)">
<path d="M4.99994 15.4696L9.48565 4.99813C9.52796 4.8966 9.59937 4.80986 9.69089 4.74885C9.78241 4.68783 9.88995 4.65527 9.99994 4.65527C10.1099 4.65527 10.2175 4.68783 10.309 4.74885C10.4005 4.80986 10.4719 4.8966 10.5142 4.99813L14.9999 15.4696" stroke="#E24C4A" stroke-linecap="round" stroke-linejoin="round"/>
<path d="M6.69995 11.498H13.3" stroke="#E24C4A" stroke-linecap="round" stroke-linejoin="round"/>
<path d="M17.8571 0.78418H2.1428C1.35383 0.78418 0.714233 1.42377 0.714233 2.21275V17.927C0.714233 18.716 1.35383 19.3556 2.1428 19.3556H17.8571C18.6461 19.3556 19.2857 18.716 19.2857 17.927V2.21275C19.2857 1.42377 18.6461 0.78418 17.8571 0.78418Z" stroke="#E24C4A" stroke-linecap="round" stroke-linejoin="round"/>
</g>
<defs>
<clipPath id="clip0_72_633">
<rect width="20" height="20" fill="white" transform="translate(-6.10352e-05 0.0703125)"/>
</clipPath>
</defs>
</svg>
