<svg width="17" height="16" viewBox="0 0 17 16" fill="none" xmlns="http://www.w3.org/2000/svg">
<g clip-path="url(#clip0_36_364)">
<path d="M4.5 12.3201L8.08857 3.94299C8.12242 3.86176 8.17955 3.79237 8.25276 3.74356C8.32598 3.69475 8.41201 3.6687 8.5 3.6687C8.588 3.6687 8.67402 3.69475 8.74724 3.74356C8.82045 3.79237 8.87758 3.86176 8.91143 3.94299L12.5 12.3201" stroke="#E24C4A" stroke-linecap="round" stroke-linejoin="round"/>
<path d="M5.85999 9.14307H11.14" stroke="#E24C4A" stroke-linecap="round" stroke-linejoin="round"/>
<path d="M14.7857 0.571533H2.21427C1.58309 0.571533 1.07141 1.08321 1.07141 1.71439V14.2858C1.07141 14.917 1.58309 15.4287 2.21427 15.4287H14.7857C15.4169 15.4287 15.9286 14.917 15.9286 14.2858V1.71439C15.9286 1.08321 15.4169 0.571533 14.7857 0.571533Z" stroke="#E24C4A" stroke-linecap="round" stroke-linejoin="round"/>
</g>
<defs>
<clipPath id="clip0_36_364">
<rect width="16" height="16" fill="white" transform="translate(0.5)"/>
</clipPath>
</defs>
</svg>
