<svg width="17" height="16" viewBox="0 0 17 16" fill="none" xmlns="http://www.w3.org/2000/svg">
<g clip-path="url(#clip0_36_359)">
<path d="M13.6428 2.28564H3.35713C2.09476 2.28564 1.07141 3.30899 1.07141 4.57136V11.4285C1.07141 12.6909 2.09476 13.7142 3.35713 13.7142H13.6428C14.9052 13.7142 15.9286 12.6909 15.9286 11.4285V4.57136C15.9286 3.30899 14.9052 2.28564 13.6428 2.28564Z" stroke="#E24C4A" stroke-linecap="round" stroke-linejoin="round"/>
<path d="M6.56855 10.6514V5.85141C6.56617 5.77037 6.58593 5.69021 6.62571 5.61957C6.6655 5.54893 6.7238 5.49048 6.79433 5.45051C6.86487 5.41054 6.94497 5.39057 7.02601 5.39274C7.10706 5.39491 7.18597 5.41914 7.25427 5.46283L11.3686 7.86283C11.4373 7.90317 11.4943 7.96077 11.5339 8.02994C11.5735 8.0991 11.5944 8.17742 11.5944 8.25712C11.5944 8.33682 11.5735 8.41514 11.5339 8.4843C11.4943 8.55347 11.4373 8.61107 11.3686 8.65141L7.25427 11.0514C7.18447 11.0917 7.10526 11.1128 7.02466 11.1127C6.94407 11.1125 6.86495 11.091 6.79534 11.0504C6.72572 11.0098 6.66808 10.9515 6.62825 10.8814C6.58842 10.8114 6.56783 10.732 6.56855 10.6514V10.6514Z" stroke="#E24C4A" stroke-linecap="round" stroke-linejoin="round"/>
</g>
<defs>
<clipPath id="clip0_36_359">
<rect width="16" height="16" fill="white" transform="translate(0.5)"/>
</clipPath>
</defs>
</svg>
