<svg width="50" height="50" viewBox="0 0 50 50" fill="none" xmlns="http://www.w3.org/2000/svg">
<path d="M41.0715 7.14673H8.92862C4.98373 7.14673 1.78577 10.3447 1.78577 14.2896V35.7182C1.78577 39.6631 4.98373 42.861 8.92862 42.861H41.0715C45.0164 42.861 48.2143 39.6631 48.2143 35.7182V14.2896C48.2143 10.3447 45.0164 7.14673 41.0715 7.14673Z" stroke="white" stroke-width="2" stroke-linecap="round" stroke-linejoin="round"/>
<path d="M18.9643 33.2896V18.2895C18.9569 18.0363 19.0187 17.7858 19.143 17.5651C19.2673 17.3443 19.4495 17.1617 19.6699 17.0368C19.8903 16.9118 20.1406 16.8494 20.3939 16.8562C20.6472 16.863 20.8938 16.9387 21.1072 17.0753L33.9643 24.5753C34.1792 24.7013 34.3573 24.8813 34.4811 25.0975C34.6049 25.3136 34.67 25.5583 34.67 25.8074C34.67 26.0565 34.6049 26.3012 34.4811 26.5174C34.3573 26.7335 34.1792 26.9135 33.9643 27.0396L21.1072 34.5396C20.8891 34.6655 20.6416 34.7315 20.3897 34.731C20.1378 34.7304 19.8906 34.6633 19.673 34.5364C19.4555 34.4095 19.2754 34.2273 19.1509 34.0083C19.0264 33.7894 18.9621 33.5414 18.9643 33.2896V33.2896Z" stroke="white" stroke-width="2" stroke-linecap="round" stroke-linejoin="round"/>
</svg>
