<svg width="21" height="21" viewBox="0 0 21 21" fill="none" xmlns="http://www.w3.org/2000/svg">
<path d="M13.4662 10.5571L9.92468 14.0987L8.10004 12.274C7.8559 12.0299 7.46039 12.0299 7.21625 12.274C6.97211 12.5182 6.97211 12.9137 7.21625 13.1578L9.48279 15.4244C9.60486 15.5464 9.76477 15.6075 9.92468 15.6075C10.0846 15.6075 10.2445 15.5464 10.3666 15.4244L14.35 11.4409C14.5942 11.1968 14.5942 10.8013 14.35 10.5571C14.1059 10.313 13.7104 10.313 13.4662 10.5571Z" fill="#E24C4A"/>
<path d="M16.4081 2.97498H15.4706V2.375C15.4706 2.02985 15.1908 1.75 14.8456 1.75C14.5005 1.75 14.2206 2.02985 14.2206 2.375V2.97498H7.34564V2.375C7.34564 2.02985 7.0658 1.75 6.72064 1.75C6.37549 1.75 6.09564 2.02985 6.09564 2.375V2.97498H5.15814C3.43512 2.97498 2.03314 4.37695 2.03314 6.09998V16.125C2.03314 17.848 3.43512 19.25 5.15814 19.25H16.4081C18.1312 19.25 19.5331 17.848 19.5331 16.125V6.09998C19.5331 4.37695 18.1312 2.97498 16.4081 2.97498ZM3.28314 6.09998C3.28314 5.06604 4.12421 4.22498 5.15814 4.22498H6.09564V4.82465C6.09564 5.1698 6.37549 5.44965 6.72064 5.44965C7.0658 5.44965 7.34564 5.1698 7.34564 4.82465V4.22498H14.2206V4.82465C14.2206 5.1698 14.5005 5.44965 14.8456 5.44965C15.1908 5.44965 15.4706 5.1698 15.4706 4.82465V4.22498H16.4081C17.4421 4.22498 18.2831 5.06604 18.2831 6.09998V6.73108H3.28314V6.09998ZM16.4081 18H5.15814C4.12421 18 3.28314 17.1589 3.28314 16.125V7.98108H18.2831V16.125C18.2831 17.1589 17.4421 18 16.4081 18Z" fill="#E24C4A"/>
</svg>
