<svg width="30" height="30" viewBox="0 0 30 30" fill="none" xmlns="http://www.w3.org/2000/svg">
<path d="M24.6422 10.7139C24.6422 16.0496 14.9993 28.9282 14.9993 28.9282C14.9993 28.9282 5.35645 16.0496 5.35645 10.7139C5.35645 8.15646 6.37239 5.70376 8.18077 3.89537C9.98916 2.08699 12.4419 1.07104 14.9993 1.07104C17.5567 1.07104 20.0094 2.08699 21.8178 3.89537C23.6262 5.70376 24.6422 8.15646 24.6422 10.7139V10.7139Z" stroke="white" stroke-width="2" stroke-linecap="round" stroke-linejoin="round"/>
<path d="M14.9994 13.9286C16.7746 13.9286 18.2137 12.4895 18.2137 10.7143C18.2137 8.93908 16.7746 7.5 14.9994 7.5C13.2242 7.5 11.7852 8.93908 11.7852 10.7143C11.7852 12.4895 13.2242 13.9286 14.9994 13.9286Z" stroke="white" stroke-width="2" stroke-linecap="round" stroke-linejoin="round"/>
</svg>
