<svg width="17" height="16" viewBox="0 0 17 16" fill="none" xmlns="http://www.w3.org/2000/svg">
<path d="M15.3571 7.42865C15.3578 6.25364 15.0565 5.09817 14.4822 4.07308C13.9078 3.048 13.0797 2.18769 12.0773 1.5747C11.0748 0.961707 9.93167 0.616593 8.75749 0.572465C7.58331 0.528337 6.41748 0.786675 5.37185 1.3227C4.32622 1.85872 3.43588 2.65444 2.78622 3.63352C2.13657 4.61261 1.74941 5.74221 1.66188 6.91396C1.57435 8.08571 1.78938 9.26029 2.28636 10.325C2.78334 11.3898 3.54558 12.3089 4.49997 12.9944V14.2858C4.49997 14.5889 4.62037 14.8796 4.8347 15.0939C5.04903 15.3082 5.33972 15.4287 5.64282 15.4287H11.3571C11.6602 15.4287 11.9509 15.3082 12.1652 15.0939C12.3796 14.8796 12.5 14.5889 12.5 14.2858V12.9944C13.3835 12.3598 14.1035 11.5241 14.6003 10.5563C15.0971 9.58857 15.3565 8.51649 15.3571 7.42865V7.42865Z" stroke="#E24C4A" stroke-linecap="round" stroke-linejoin="round"/>
<path d="M5.64284 8.57157C5.95843 8.57157 6.21427 8.31573 6.21427 8.00014C6.21427 7.68455 5.95843 7.42871 5.64284 7.42871C5.32725 7.42871 5.07141 7.68455 5.07141 8.00014C5.07141 8.31573 5.32725 8.57157 5.64284 8.57157Z" stroke="#E24C4A" stroke-linecap="round" stroke-linejoin="round"/>
<path d="M11.3571 8.57157C11.6727 8.57157 11.9285 8.31573 11.9285 8.00014C11.9285 7.68455 11.6727 7.42871 11.3571 7.42871C11.0415 7.42871 10.7856 7.68455 10.7856 8.00014C10.7856 8.31573 11.0415 8.57157 11.3571 8.57157Z" stroke="#E24C4A" stroke-linecap="round" stroke-linejoin="round"/>
<path d="M7.35706 13.1428V15.4285" stroke="#E24C4A" stroke-linecap="round" stroke-linejoin="round"/>
<path d="M9.64282 13.1428V15.4285" stroke="#E24C4A" stroke-linecap="round" stroke-linejoin="round"/>
</svg>
