<svg width="50" height="50" viewBox="0 0 50 50" fill="none" xmlns="http://www.w3.org/2000/svg">
<path d="M16.0748 46.4269C23.9646 46.4269 30.3605 40.031 30.3605 32.1412C30.3605 24.2514 23.9646 17.8555 16.0748 17.8555C8.18499 17.8555 1.78906 24.2514 1.78906 32.1412C1.78906 40.031 8.18499 46.4269 16.0748 46.4269Z" stroke="#E24C4A" stroke-width="2" stroke-linecap="round" stroke-linejoin="round"/>
<path d="M33.9342 46.4269C41.8239 46.4269 48.2199 40.031 48.2199 32.1412C48.2199 24.2514 41.8239 17.8555 33.9342 17.8555C26.0444 17.8555 19.6484 24.2514 19.6484 32.1412C19.6484 40.031 26.0444 46.4269 33.9342 46.4269Z" stroke="#E24C4A" stroke-width="2" stroke-linecap="round" stroke-linejoin="round"/>
<path d="M25.0045 32.1417C32.8942 32.1417 39.2902 25.7458 39.2902 17.856C39.2902 9.96624 32.8942 3.57031 25.0045 3.57031C17.1147 3.57031 10.7188 9.96624 10.7188 17.856C10.7188 25.7458 17.1147 32.1417 25.0045 32.1417Z" stroke="#E24C4A" stroke-width="2" stroke-linecap="round" stroke-linejoin="round"/>
</svg>
