<svg width="24" height="24" viewBox="0 0 24 24" fill="none" xmlns="http://www.w3.org/2000/svg">
<g clip-path="url(#clip0_656_3411)">
<path d="M2.57366 10.2852H4.28795C4.51527 10.2852 4.73329 10.3755 4.89404 10.5362C5.05478 10.697 5.14509 10.915 5.14509 11.1423V15.428C5.14509 15.6553 5.05478 15.8734 4.89404 16.0341C4.73329 16.1949 4.51527 16.2852 4.28795 16.2852H2.57366C2.119 16.2852 1.68297 16.1045 1.36148 15.7831C1.03999 15.4616 0.859375 15.0255 0.859375 14.5709V11.9994C0.859375 11.5448 1.03999 11.1088 1.36148 10.7873C1.68297 10.4658 2.119 10.2852 2.57366 10.2852V10.2852Z" stroke="white" stroke-linecap="round" stroke-linejoin="round"/>
<path d="M21.4342 16.2852H19.7199C19.4925 16.2852 19.2745 16.1949 19.1138 16.0341C18.953 15.8734 18.8627 15.6553 18.8627 15.428V11.1423C18.8627 10.915 18.953 10.697 19.1138 10.5362C19.2745 10.3755 19.4925 10.2852 19.7199 10.2852H21.4342C21.8888 10.2852 22.3248 10.4658 22.6463 10.7873C22.9678 11.1088 23.1484 11.5448 23.1484 11.9994V14.5709C23.1484 15.0255 22.9678 15.4616 22.6463 15.7831C22.3248 16.1045 21.8888 16.2852 21.4342 16.2852V16.2852Z" stroke="white" stroke-linecap="round" stroke-linejoin="round"/>
<path d="M16.2891 20.9994C17.1984 20.9994 18.0704 20.6382 18.7134 19.9952C19.3564 19.3523 19.7176 18.4802 19.7176 17.5709V16.2852" stroke="white" stroke-linecap="round" stroke-linejoin="round"/>
<path d="M14.144 18.8555C14.7123 18.8555 15.2573 19.0812 15.6592 19.4831C16.0611 19.885 16.2868 20.43 16.2868 20.9983C16.2868 21.5666 16.0611 22.1117 15.6592 22.5136C15.2573 22.9154 14.7123 23.1412 14.144 23.1412H11.5725C11.0042 23.1412 10.4592 22.9154 10.0573 22.5136C9.65545 22.1117 9.42969 21.5666 9.42969 20.9983C9.42969 20.43 9.65545 19.885 10.0573 19.4831C10.4592 19.0812 11.0042 18.8555 11.5725 18.8555H14.144Z" stroke="white" stroke-linecap="round" stroke-linejoin="round"/>
<path d="M4.28906 10.284V8.56975C4.28906 6.5238 5.10182 4.56164 6.54852 3.11493C7.99523 1.66822 9.95739 0.855469 12.0033 0.855469C14.0493 0.855469 16.0115 1.66822 17.4582 3.11493C18.9049 4.56164 19.7176 6.5238 19.7176 8.56975V10.284" stroke="white" stroke-linecap="round" stroke-linejoin="round"/>
<path d="M9.42969 6.85547V9.4269" stroke="white" stroke-linecap="round" stroke-linejoin="round"/>
<path d="M14.5703 6.85547V9.4269" stroke="white" stroke-linecap="round" stroke-linejoin="round"/>
<path d="M9.42969 12.8555C9.42969 15.1355 14.5725 15.1355 14.5725 12.8555" stroke="white" stroke-linecap="round" stroke-linejoin="round"/>
</g>
<defs>
<clipPath id="clip0_656_3411">
<rect width="24" height="24" fill="white"/>
</clipPath>
</defs>
</svg>
