<svg width="20" height="21" viewBox="0 0 20 21" fill="none" xmlns="http://www.w3.org/2000/svg">
<g clip-path="url(#clip0_72_641)">
<path d="M16.4285 2.92773H3.57138C1.99342 2.92773 0.714233 4.20692 0.714233 5.78488V14.3563C0.714233 15.9343 1.99342 17.2134 3.57138 17.2134H16.4285C18.0065 17.2134 19.2857 15.9343 19.2857 14.3563V5.78488C19.2857 4.20692 18.0065 2.92773 16.4285 2.92773Z" stroke="#E24C4A" stroke-linecap="round" stroke-linejoin="round"/>
<path d="M7.58566 13.3851V7.38506C7.58268 7.28376 7.60738 7.18357 7.65711 7.09527C7.70684 7.00697 7.77971 6.9339 7.86788 6.88394C7.95605 6.83398 8.05618 6.80901 8.15748 6.81172C8.25879 6.81444 8.35744 6.84473 8.4428 6.89934L13.5857 9.89934C13.6716 9.94976 13.7428 10.0218 13.7924 10.1082C13.8419 10.1947 13.8679 10.2926 13.8679 10.3922C13.8679 10.4918 13.8419 10.5897 13.7924 10.6762C13.7428 10.7626 13.6716 10.8346 13.5857 10.8851L8.4428 13.8851C8.35556 13.9354 8.25654 13.9619 8.1558 13.9616C8.05506 13.9614 7.95616 13.9346 7.86914 13.8838C7.78212 13.833 7.71006 13.7602 7.66028 13.6726C7.6105 13.585 7.58475 13.4858 7.58566 13.3851V13.3851Z" stroke="#E24C4A" stroke-linecap="round" stroke-linejoin="round"/>
</g>
<defs>
<clipPath id="clip0_72_641">
<rect width="20" height="20" fill="white" transform="translate(-6.10352e-05 0.0703125)"/>
</clipPath>
</defs>
</svg>
