<svg width="60" height="61" viewBox="0 0 60 61" fill="none" xmlns="http://www.w3.org/2000/svg">
<path d="M40.7143 28.3305C40.7143 31.1721 39.5855 33.8973 37.5762 35.9066C35.5669 37.916 32.8417 39.0448 30.0001 39.0448C27.1584 39.0448 24.4332 37.916 22.4239 35.9066C20.4146 33.8973 19.2858 31.1721 19.2858 28.3305V13.3305C19.2858 10.4889 20.4146 7.76367 22.4239 5.75435C24.4332 3.74503 27.1584 2.61621 30.0001 2.61621C32.8417 2.61621 35.5669 3.74503 37.5762 5.75435C39.5855 7.76367 40.7143 10.4889 40.7143 13.3305V28.3305Z" stroke="#E24C4A" stroke-width="2" stroke-linecap="round" stroke-linejoin="round"/>
<path d="M51.4286 30.4736C51.4343 33.0079 50.9393 35.5182 49.9721 37.8606C49.0049 40.203 47.5845 42.3313 45.7926 44.1233C44.0006 45.9153 41.8723 47.3356 39.5299 48.3028C37.1875 49.27 34.6771 49.765 32.1429 49.7593H27.8572C25.323 49.765 22.8126 49.27 20.4702 48.3028C18.1278 47.3356 15.9995 45.9153 14.2075 44.1233C12.4155 42.3313 10.9952 40.203 10.028 37.8606C9.06079 35.5182 8.56581 33.0079 8.57146 30.4736V30.4736" stroke="#E24C4A" stroke-width="2" stroke-linecap="round" stroke-linejoin="round"/>
<path d="M30 49.7588V58.3302" stroke="#E24C4A" stroke-width="2" stroke-linecap="round" stroke-linejoin="round"/>
</svg>
