<svg width="51" height="51" viewBox="0 0 51 51" fill="none" xmlns="http://www.w3.org/2000/svg">
<g clip-path="url(#clip0_72_113)">
<path d="M25.5001 49.1815C38.3209 49.1815 48.7143 38.7881 48.7143 25.9672C48.7143 13.1463 38.3209 2.75293 25.5001 2.75293C12.6792 2.75293 2.28577 13.1463 2.28577 25.9672C2.28577 38.7881 12.6792 49.1815 25.5001 49.1815Z" stroke="#E24C4A" stroke-width="2" stroke-linecap="round" stroke-linejoin="round"/>
<path d="M25.5 2.75293V49.1815" stroke="#E24C4A" stroke-width="2" stroke-linecap="round" stroke-linejoin="round"/>
<path d="M8 41.2173C10.6169 39.6242 12.7799 37.3845 14.2811 34.7138C15.7822 32.043 16.5709 29.031 16.5714 25.9673C16.5709 22.9036 15.7822 19.8915 14.2811 17.2208C12.7799 14.55 10.6169 12.3104 8 10.7173" stroke="#E24C4A" stroke-width="2" stroke-linecap="round" stroke-linejoin="round"/>
<path d="M43 10.7173C40.384 12.311 38.222 14.5509 36.7217 17.2216C35.2215 19.8923 34.4335 22.904 34.4335 25.9673C34.4335 29.0305 35.2215 32.0423 36.7217 34.713C38.222 37.3837 40.384 39.6236 43 41.2173" stroke="#E24C4A" stroke-width="2" stroke-linecap="round" stroke-linejoin="round"/>
</g>
<defs>
<clipPath id="clip0_72_113">
<rect width="50" height="50" fill="white" transform="translate(0.5 0.967285)"/>
</clipPath>
</defs>
</svg>
