<svg width="60" height="61" viewBox="0 0 60 61" fill="none" xmlns="http://www.w3.org/2000/svg">
<path d="M30 58.3305C45.385 58.3305 57.8571 45.8584 57.8571 30.4734C57.8571 15.0883 45.385 2.61621 30 2.61621C14.6149 2.61621 2.14282 15.0883 2.14282 30.4734C2.14282 45.8584 14.6149 58.3305 30 58.3305Z" stroke="#E24C4A" stroke-width="2" stroke-linecap="round" stroke-linejoin="round"/>
<path d="M29.9999 2.61621C29.9999 2.61621 12.5571 18.0019 29.9999 30.4734C44.9999 41.1876 29.9999 58.3305 29.9999 58.3305" stroke="#E24C4A" stroke-width="2" stroke-linecap="round" stroke-linejoin="round"/>
<path d="M38.5714 24.0451C40.9383 24.0451 42.8571 22.1263 42.8571 19.7593C42.8571 17.3924 40.9383 15.4736 38.5714 15.4736C36.2044 15.4736 34.2856 17.3924 34.2856 19.7593C34.2856 22.1263 36.2044 24.0451 38.5714 24.0451Z" stroke="#E24C4A" stroke-width="2" stroke-linecap="round" stroke-linejoin="round"/>
<path d="M21.4285 45.4738C23.7955 45.4738 25.7143 43.555 25.7143 41.1881C25.7143 38.8211 23.7955 36.9023 21.4285 36.9023C19.0616 36.9023 17.1428 38.8211 17.1428 41.1881C17.1428 43.555 19.0616 45.4738 21.4285 45.4738Z" stroke="#E24C4A" stroke-width="2" stroke-linecap="round" stroke-linejoin="round"/>
</svg>
