<svg width="51" height="51" viewBox="0 0 51 51" fill="none" xmlns="http://www.w3.org/2000/svg">
<g clip-path="url(#clip0_72_135)">
<path d="M5.79366 22.396H9.36509C9.83869 22.396 10.2929 22.5841 10.6278 22.919C10.9627 23.2539 11.1508 23.7081 11.1508 24.1817V33.1103C11.1508 33.5839 10.9627 34.0381 10.6278 34.373C10.2929 34.7079 9.83869 34.896 9.36509 34.896H5.79366C4.84646 34.896 3.93805 34.5197 3.26828 33.8499C2.5985 33.1802 2.22223 32.2718 2.22223 31.3246V25.9674C2.22223 25.0202 2.5985 24.1118 3.26828 23.442C3.93805 22.7723 4.84646 22.396 5.79366 22.396V22.396Z" stroke="#E24C4A" stroke-width="2" stroke-linecap="round" stroke-linejoin="round"/>
<path d="M45.0793 34.896H41.5079C41.0343 34.896 40.5801 34.7079 40.2452 34.373C39.9103 34.0381 39.7222 33.5839 39.7222 33.1103V24.1817C39.7222 23.7081 39.9103 23.2539 40.2452 22.919C40.5801 22.5841 41.0343 22.396 41.5079 22.396H45.0793C46.0265 22.396 46.9349 22.7723 47.6047 23.442C48.2745 24.1118 48.6508 25.0202 48.6508 25.9674V31.3246C48.6508 32.2718 48.2745 33.1802 47.6047 33.8499C46.9349 34.5197 46.0265 34.896 45.0793 34.896V34.896Z" stroke="#E24C4A" stroke-width="2" stroke-linecap="round" stroke-linejoin="round"/>
<path d="M34.3651 44.7174C36.2595 44.7174 38.0763 43.9649 39.4159 42.6253C40.7554 41.2858 41.508 39.469 41.508 37.5746V34.896" stroke="#E24C4A" stroke-width="2" stroke-linecap="round" stroke-linejoin="round"/>
<path d="M29.9008 40.2529C31.0848 40.2529 32.2203 40.7233 33.0575 41.5605C33.8947 42.3977 34.3651 43.5332 34.3651 44.7172C34.3651 45.9012 33.8947 47.0367 33.0575 47.8739C32.2203 48.7112 31.0848 49.1815 29.9008 49.1815H24.5436C23.3596 49.1815 22.2241 48.7112 21.3869 47.8739C20.5497 47.0367 20.0793 45.9012 20.0793 44.7172C20.0793 43.5332 20.5497 42.3977 21.3869 41.5605C22.2241 40.7233 23.3596 40.2529 24.5436 40.2529H29.9008Z" stroke="#E24C4A" stroke-width="2" stroke-linecap="round" stroke-linejoin="round"/>
<path d="M9.36511 22.3958V18.8244C9.36511 14.562 11.0583 10.4741 14.0723 7.46014C17.0863 4.44616 21.1741 2.75293 25.4365 2.75293C29.6989 2.75293 33.7868 4.44616 36.8008 7.46014C39.8147 10.4741 41.508 14.562 41.508 18.8244V22.3958" stroke="#E24C4A" stroke-width="2" stroke-linecap="round" stroke-linejoin="round"/>
<path d="M20.0793 15.2529V20.6101" stroke="#E24C4A" stroke-width="2" stroke-linecap="round" stroke-linejoin="round"/>
<path d="M30.7937 15.2529V20.6101" stroke="#E24C4A" stroke-width="2" stroke-linecap="round" stroke-linejoin="round"/>
<path d="M20.0793 27.7529C20.0793 32.5029 30.7936 32.5029 30.7936 27.7529" stroke="#E24C4A" stroke-width="2" stroke-linecap="round" stroke-linejoin="round"/>
</g>
<defs>
<clipPath id="clip0_72_135">
<rect width="50" height="50" fill="white" transform="translate(0.436523 0.967285)"/>
</clipPath>
</defs>
</svg>
