<svg width="60" height="61" viewBox="0 0 60 61" fill="none" xmlns="http://www.w3.org/2000/svg">
<path d="M15 46.6733L28.4571 15.259C28.5841 14.9544 28.7983 14.6942 29.0729 14.5112C29.3474 14.3281 29.67 14.2305 30 14.2305C30.33 14.2305 30.6526 14.3281 30.9271 14.5112C31.2017 14.6942 31.4159 14.9544 31.5429 15.259L45 46.6733" stroke="#E24C4A" stroke-width="2" stroke-linecap="round" stroke-linejoin="round"/>
<path d="M20.0996 34.7588H39.8996" stroke="#E24C4A" stroke-width="2" stroke-linecap="round" stroke-linejoin="round"/>
<path d="M53.5712 2.61621H6.42829C4.06136 2.61621 2.14258 4.53499 2.14258 6.90193V54.0448C2.14258 56.4117 4.06136 58.3305 6.42829 58.3305H53.5712C55.9381 58.3305 57.8569 56.4117 57.8569 54.0448V6.90193C57.8569 4.53499 55.9381 2.61621 53.5712 2.61621Z" stroke="#E24C4A" stroke-width="2" stroke-linecap="round" stroke-linejoin="round"/>
</svg>
