<svg width="51" height="51" viewBox="0 0 51 51" fill="none" xmlns="http://www.w3.org/2000/svg">
<path d="M38.5 6.42969H12.5C11.9006 6.44615 11.3135 6.60344 10.7861 6.88884C10.2588 7.17423 9.80595 7.57973 9.46432 8.07254L2.96432 17.0725C2.48166 17.7546 2.24062 18.5783 2.27944 19.413C2.31826 20.2476 2.63472 21.0454 3.17861 21.6797L22.6786 44.144C23.0124 44.5741 23.4402 44.9223 23.9292 45.1617C24.4182 45.4012 24.9555 45.5257 25.5 45.5257C26.0445 45.5257 26.5818 45.4012 27.0708 45.1617C27.5598 44.9223 27.9876 44.5741 28.3215 44.144L47.8215 21.6797C48.3653 21.0454 48.6818 20.2476 48.7206 19.413C48.7594 18.5783 48.5184 17.7546 48.0357 17.0725L41.5357 8.07254C41.1941 7.57973 40.7413 7.17423 40.2139 6.88884C39.6866 6.60344 39.0995 6.44615 38.5 6.42969V6.42969Z" stroke="#E24C4A" stroke-width="2" stroke-linecap="round" stroke-linejoin="round"/>
<path d="M23.643 6.39404L14.9287 19.894L25.5001 45.4298" stroke="#E24C4A" stroke-width="2" stroke-linecap="round" stroke-linejoin="round"/>
<path d="M27.4643 6.39404L36.1429 19.894L25.5 45.4298" stroke="#E24C4A" stroke-width="2" stroke-linecap="round" stroke-linejoin="round"/>
<path d="M2.35718 19.894H48.6429" stroke="#E24C4A" stroke-width="2" stroke-linecap="round" stroke-linejoin="round"/>
</svg>
