<svg width="16" height="16" viewBox="0 0 16 16" fill="none" xmlns="http://www.w3.org/2000/svg">
<g clip-path="url(#clip0_36_386)">
<path d="M8.53716 7.88581C8.36765 7.95942 8.18482 7.9974 8.00001 7.9974C7.81521 7.9974 7.63238 7.95942 7.46287 7.88581L0.948584 4.86867C0.842803 4.81531 0.753907 4.73364 0.691798 4.63275C0.629688 4.53186 0.596802 4.41571 0.596802 4.29724C0.596802 4.17876 0.629688 4.06261 0.691798 3.96172C0.753907 3.86083 0.842803 3.77916 0.948584 3.72581L7.46287 0.685809C7.63238 0.612201 7.81521 0.574219 8.00001 0.574219C8.18482 0.574219 8.36765 0.612201 8.53716 0.685809L15.0514 3.70295C15.1572 3.75631 15.2461 3.83798 15.3082 3.93886C15.3703 4.03975 15.4032 4.1559 15.4032 4.27438C15.4032 4.39286 15.3703 4.50901 15.3082 4.6099C15.2461 4.71079 15.1572 4.79245 15.0514 4.84581L8.53716 7.88581Z" stroke="#E24C4A" stroke-linecap="round" stroke-linejoin="round"/>
<path d="M15.4286 8.40015L8.45713 11.6116C8.30823 11.6795 8.14649 11.7146 7.98284 11.7146C7.81919 11.7146 7.65745 11.6795 7.50855 11.6116L0.571411 8.40015" stroke="#E24C4A" stroke-linecap="round" stroke-linejoin="round"/>
<path d="M15.4286 12.1145L8.45713 15.3259C8.30823 15.3938 8.14649 15.429 7.98284 15.429C7.81919 15.429 7.65745 15.3938 7.50855 15.3259L0.571411 12.1145" stroke="#E24C4A" stroke-linecap="round" stroke-linejoin="round"/>
</g>
<defs>
<clipPath id="clip0_36_386">
<rect width="16" height="16" fill="white"/>
</clipPath>
</defs>
</svg>
