<svg width="50" height="51" viewBox="0 0 50 51" fill="none" xmlns="http://www.w3.org/2000/svg">
<path d="M25 48.6297C37.8209 48.6297 48.2143 38.2364 48.2143 25.4155C48.2143 12.5946 37.8209 2.20117 25 2.20117C12.1791 2.20117 1.78571 12.5946 1.78571 25.4155C1.78571 38.2364 12.1791 48.6297 25 48.6297Z" stroke="#E24C4A" stroke-width="2" stroke-linecap="round" stroke-linejoin="round"/>
<path d="M25 2.20117V48.6297" stroke="#E24C4A" stroke-width="2" stroke-linecap="round" stroke-linejoin="round"/>
<path d="M7.5 40.665C10.1169 39.0719 12.2799 36.8323 13.7811 34.1615C15.2822 31.4908 16.0709 28.4787 16.0714 25.415C16.0709 22.3513 15.2822 19.3393 13.7811 16.6685C12.2799 13.9978 10.1169 11.7582 7.5 10.165" stroke="#E24C4A" stroke-width="2" stroke-linecap="round" stroke-linejoin="round"/>
<path d="M42.5 10.165C39.884 11.7588 37.722 13.9986 36.2217 16.6693C34.7215 19.3401 33.9335 22.3518 33.9335 25.415C33.9335 28.4783 34.7215 31.49 36.2217 34.1607C37.722 36.8314 39.884 39.0713 42.5 40.665" stroke="#E24C4A" stroke-width="2" stroke-linecap="round" stroke-linejoin="round"/>
</svg>
