<svg width="20" height="20" viewBox="0 0 20 20" fill="none" xmlns="http://www.w3.org/2000/svg">
<g clip-path="url(#clip0_221_50)">
<path d="M10.6714 9.85726C10.4596 9.94927 10.231 9.99675 10 9.99675C9.76901 9.99675 9.54048 9.94927 9.32859 9.85726L1.18573 6.08583C1.0535 6.01914 0.942384 5.91705 0.864747 5.79094C0.78711 5.66483 0.746002 5.51964 0.746002 5.37155C0.746002 5.22345 0.78711 5.07826 0.864747 4.95215C0.942384 4.82604 1.0535 4.72395 1.18573 4.65726L9.32859 0.857261C9.54048 0.765252 9.76901 0.717773 10 0.717773C10.231 0.717773 10.4596 0.765252 10.6714 0.857261L18.8143 4.62869C18.9465 4.69538 19.0577 4.79747 19.1353 4.92358C19.2129 5.04969 19.254 5.19488 19.254 5.34298C19.254 5.49107 19.2129 5.63626 19.1353 5.76237C19.0577 5.88848 18.9465 5.99057 18.8143 6.05726L10.6714 9.85726Z" stroke="#E24C4A" stroke-linecap="round" stroke-linejoin="round"/>
<path d="M19.2857 10.5L10.5714 14.5143C10.3853 14.5992 10.1831 14.6431 9.97858 14.6431C9.77402 14.6431 9.57184 14.5992 9.38572 14.5143L0.714294 10.5" stroke="#E24C4A" stroke-linecap="round" stroke-linejoin="round"/>
<path d="M19.2857 15.1431L10.5714 19.1574C10.3853 19.2422 10.1831 19.2862 9.97858 19.2862C9.77402 19.2862 9.57184 19.2422 9.38572 19.1574L0.714294 15.1431" stroke="#E24C4A" stroke-linecap="round" stroke-linejoin="round"/>
</g>
<defs>
<clipPath id="clip0_221_50">
<rect width="20" height="20" fill="white"/>
</clipPath>
</defs>
</svg>
