<svg width="50" height="50" viewBox="0 0 50 50" fill="none" xmlns="http://www.w3.org/2000/svg">
<g clip-path="url(#clip0_507_246)">
<path d="M11.6105 21.428C17.0347 21.428 21.4319 17.0308 21.4319 11.6066C21.4319 6.18236 17.0347 1.78516 11.6105 1.78516C6.18627 1.78516 1.78906 6.18236 1.78906 11.6066C1.78906 17.0308 6.18627 21.428 11.6105 21.428Z" stroke="#E24C4A" stroke-width="2" stroke-linecap="round" stroke-linejoin="round"/>
<path d="M38.3996 21.428C43.8238 21.428 48.221 17.0308 48.221 11.6066C48.221 6.18236 43.8238 1.78516 38.3996 1.78516C32.9753 1.78516 28.5781 6.18236 28.5781 11.6066C28.5781 17.0308 32.9753 21.428 38.3996 21.428Z" stroke="#E24C4A" stroke-width="2" stroke-linecap="round" stroke-linejoin="round"/>
<path d="M11.6105 48.2132C17.0347 48.2132 21.4319 43.816 21.4319 38.3917C21.4319 32.9675 17.0347 28.5703 11.6105 28.5703C6.18627 28.5703 1.78906 32.9675 1.78906 38.3917C1.78906 43.816 6.18627 48.2132 11.6105 48.2132Z" stroke="#E24C4A" stroke-width="2" stroke-linecap="round" stroke-linejoin="round"/>
<path d="M38.3996 48.2132C43.8238 48.2132 48.221 43.816 48.221 38.3917C48.221 32.9675 43.8238 28.5703 38.3996 28.5703C32.9753 28.5703 28.5781 32.9675 28.5781 38.3917C28.5781 43.816 32.9753 48.2132 38.3996 48.2132Z" stroke="#E24C4A" stroke-width="2" stroke-linecap="round" stroke-linejoin="round"/>
</g>
<defs>
<clipPath id="clip0_507_246">
<rect width="50" height="50" fill="white"/>
</clipPath>
</defs>
</svg>
