<svg width="60" height="61" viewBox="0 0 60 61" fill="none" xmlns="http://www.w3.org/2000/svg">
<path d="M12.8572 22.6738V40.4167" stroke="#E24C4A" stroke-width="2" stroke-linecap="round" stroke-linejoin="round"/>
<path d="M30.0001 22.6738V40.4167" stroke="#E24C4A" stroke-width="2" stroke-linecap="round" stroke-linejoin="round"/>
<path d="M21.4286 26.4883V36.6026" stroke="#E24C4A" stroke-width="2" stroke-linecap="round" stroke-linejoin="round"/>
<path d="M47.1429 22.6738V40.4167" stroke="#E24C4A" stroke-width="2" stroke-linecap="round" stroke-linejoin="round"/>
<path d="M38.5715 26.4883V36.6026" stroke="#E24C4A" stroke-width="2" stroke-linecap="round" stroke-linejoin="round"/>
<path d="M2.14288 17.6162V6.90193C2.14288 5.76528 2.59441 4.67519 3.39814 3.87147C4.20187 3.06774 5.29196 2.61621 6.4286 2.61621H17.1429" stroke="#E24C4A" stroke-width="2" stroke-linecap="round" stroke-linejoin="round"/>
<path d="M57.8572 17.6162V6.90193C57.8572 5.76528 57.4056 4.67519 56.6019 3.87147C55.7982 3.06774 54.7081 2.61621 53.5715 2.61621H42.8572" stroke="#E24C4A" stroke-width="2" stroke-linecap="round" stroke-linejoin="round"/>
<path d="M2.14288 43.3301V54.0444C2.14288 55.181 2.59441 56.2711 3.39814 57.0748C4.20187 57.8785 5.29196 58.3301 6.4286 58.3301H17.1429" stroke="#E24C4A" stroke-width="2" stroke-linecap="round" stroke-linejoin="round"/>
<path d="M57.8572 43.3301V54.0444C57.8572 55.181 57.4056 56.2711 56.6019 57.0748C55.7982 57.8785 54.7081 58.3301 53.5715 58.3301H42.8572" stroke="#E24C4A" stroke-width="2" stroke-linecap="round" stroke-linejoin="round"/>
</svg>
