<svg width="50" height="51" viewBox="0 0 50 51" fill="none" xmlns="http://www.w3.org/2000/svg">
<g clip-path="url(#clip0_99_300)">
<path d="M5.35707 22.3582H8.9285C9.4021 22.3582 9.85631 22.5463 10.1912 22.8812C10.5261 23.2161 10.7142 23.6703 10.7142 24.1439V33.0724C10.7142 33.546 10.5261 34.0002 10.1912 34.3351C9.85631 34.67 9.4021 34.8582 8.9285 34.8582H5.35707C4.40987 34.8582 3.50146 34.4819 2.83169 33.8121C2.16192 33.1423 1.78564 32.2339 1.78564 31.2867V25.9296C1.78564 24.9824 2.16192 24.074 2.83169 23.4042C3.50146 22.7344 4.40987 22.3582 5.35707 22.3582V22.3582Z" stroke="#E24C4A" stroke-width="2" stroke-linecap="round" stroke-linejoin="round"/>
<path d="M44.6427 34.8582H41.0713C40.5977 34.8582 40.1434 34.67 39.8086 34.3351C39.4737 34.0002 39.2855 33.546 39.2855 33.0724V24.1439C39.2855 23.6703 39.4737 23.2161 39.8086 22.8812C40.1434 22.5463 40.5977 22.3582 41.0713 22.3582H44.6427C45.5899 22.3582 46.4983 22.7344 47.1681 23.4042C47.8378 24.074 48.2141 24.9824 48.2141 25.9296V31.2867C48.2141 32.2339 47.8378 33.1423 47.1681 33.8121C46.4983 34.4819 45.5899 34.8582 44.6427 34.8582V34.8582Z" stroke="#E24C4A" stroke-width="2" stroke-linecap="round" stroke-linejoin="round"/>
<path d="M33.9285 44.6796C35.8229 44.6796 37.6397 43.927 38.9792 42.5875C40.3188 41.2479 41.0713 39.4311 41.0713 37.5367V34.8582" stroke="#E24C4A" stroke-width="2" stroke-linecap="round" stroke-linejoin="round"/>
<path d="M29.4643 40.2153C30.6483 40.2153 31.7838 40.6857 32.621 41.5229C33.4582 42.3601 33.9285 43.4956 33.9285 44.6796C33.9285 45.8636 33.4582 46.9991 32.621 47.8363C31.7838 48.6736 30.6483 49.1439 29.4643 49.1439H24.1071C22.9231 49.1439 21.7876 48.6736 20.9504 47.8363C20.1132 46.9991 19.6428 45.8636 19.6428 44.6796C19.6428 43.4956 20.1132 42.3601 20.9504 41.5229C21.7876 40.6857 22.9231 40.2153 24.1071 40.2153H29.4643Z" stroke="#E24C4A" stroke-width="2" stroke-linecap="round" stroke-linejoin="round"/>
<path d="M8.92847 22.3582V18.7868C8.92847 14.5244 10.6217 10.4365 13.6357 7.42254C16.6497 4.40857 20.7375 2.71533 24.9999 2.71533C29.2623 2.71533 33.3501 4.40857 36.3641 7.42254C39.3781 10.4365 41.0713 14.5244 41.0713 18.7868V22.3582" stroke="#E24C4A" stroke-width="2" stroke-linecap="round" stroke-linejoin="round"/>
<path d="M19.6428 15.2153V20.5725" stroke="#E24C4A" stroke-width="2" stroke-linecap="round" stroke-linejoin="round"/>
<path d="M30.3572 15.2153V20.5725" stroke="#E24C4A" stroke-width="2" stroke-linecap="round" stroke-linejoin="round"/>
<path d="M19.6428 27.7153C19.6428 32.4653 30.3571 32.4653 30.3571 27.7153" stroke="#E24C4A" stroke-width="2" stroke-linecap="round" stroke-linejoin="round"/>
</g>
<defs>
<clipPath id="clip0_99_300">
<rect width="50" height="50" fill="white" transform="translate(0 0.929688)"/>
</clipPath>
</defs>
</svg>
