<svg width="30" height="30" viewBox="0 0 30 30" fill="none" xmlns="http://www.w3.org/2000/svg">
<g clip-path="url(#clip0_120_1786)">
<path d="M18.7715 27.8575C20.0911 28.7089 21.6636 29.0799 23.2246 28.9082C24.7856 28.7365 26.2399 28.0325 27.3429 26.9147L28.3072 25.9718C28.7299 25.5394 28.9666 24.9587 28.9666 24.354C28.9666 23.7492 28.7299 23.1685 28.3072 22.7361L24.2143 18.6861C23.7855 18.2647 23.2084 18.0286 22.6072 18.0286C22.006 18.0286 21.4288 18.2647 21 18.6861V18.6861C20.5676 19.1089 19.9869 19.3456 19.3822 19.3456C18.7775 19.3456 18.1967 19.1089 17.7643 18.6861L11.3358 12.2575C11.1213 12.0462 10.951 11.7943 10.8348 11.5166C10.7185 11.2389 10.6587 10.9408 10.6587 10.6397C10.6587 10.3386 10.7185 10.0405 10.8348 9.76278C10.951 9.48503 11.1213 9.23317 11.3358 9.02183V9.02183C11.7572 8.59304 11.9933 8.01589 11.9933 7.41469C11.9933 6.81349 11.7572 6.23634 11.3358 5.80755L7.26433 1.73612C6.83192 1.31336 6.2512 1.07666 5.64647 1.07666C5.04174 1.07666 4.46103 1.31336 4.02861 1.73612L3.08576 2.7004C1.96793 3.80342 1.26397 5.25769 1.09227 6.81869C0.920556 8.37969 1.29156 9.9522 2.1429 11.2718C6.57871 17.8091 12.2228 23.4386 18.7715 27.8575V27.8575Z" stroke="white" stroke-width="2" stroke-linecap="round" stroke-linejoin="round"/>
</g>
<defs>
<clipPath id="clip0_120_1786">
<rect width="30" height="30" fill="white"/>
</clipPath>
</defs>
</svg>
