<svg width="20" height="20" viewBox="0 0 20 20" fill="none" xmlns="http://www.w3.org/2000/svg">
<g clip-path="url(#clip0_221_55)">
<path d="M6.42855 18.5716C9.58446 18.5716 12.1428 16.0133 12.1428 12.8574C12.1428 9.70144 9.58446 7.14307 6.42855 7.14307C3.27264 7.14307 0.714264 9.70144 0.714264 12.8574C0.714264 16.0133 3.27264 18.5716 6.42855 18.5716Z" stroke="#E24C4A" stroke-linecap="round" stroke-linejoin="round"/>
<path d="M13.5714 18.5716C16.7273 18.5716 19.2857 16.0133 19.2857 12.8574C19.2857 9.70144 16.7273 7.14307 13.5714 7.14307C10.4155 7.14307 7.85712 9.70144 7.85712 12.8574C7.85712 16.0133 10.4155 18.5716 13.5714 18.5716Z" stroke="#E24C4A" stroke-linecap="round" stroke-linejoin="round"/>
<path d="M9.99999 12.8573C13.1559 12.8573 15.7143 10.2989 15.7143 7.143C15.7143 3.98708 13.1559 1.42871 9.99999 1.42871C6.84408 1.42871 4.28571 3.98708 4.28571 7.143C4.28571 10.2989 6.84408 12.8573 9.99999 12.8573Z" stroke="#E24C4A" stroke-linecap="round" stroke-linejoin="round"/>
</g>
<defs>
<clipPath id="clip0_221_55">
<rect width="20" height="20" fill="white"/>
</clipPath>
</defs>
</svg>
