<svg width="50" height="50" viewBox="0 0 50 50" fill="none" xmlns="http://www.w3.org/2000/svg">
<path d="M26.6854 24.6388C26.1557 24.8688 25.5844 24.9875 25.0069 24.9875C24.4294 24.9875 23.858 24.8688 23.3283 24.6388L2.97115 15.2102C2.64058 15.0435 2.36278 14.7882 2.16869 14.473C1.9746 14.1577 1.87183 13.7947 1.87183 13.4245C1.87183 13.0542 1.9746 12.6913 2.16869 12.376C2.36278 12.0607 2.64058 11.8055 2.97115 11.6388L23.3283 2.13876C23.858 1.90873 24.4294 1.79004 25.0069 1.79004C25.5844 1.79004 26.1557 1.90873 26.6854 2.13876L47.0426 11.5673C47.3731 11.7341 47.6509 11.9893 47.845 12.3046C48.0391 12.6198 48.1419 12.9828 48.1419 13.353C48.1419 13.7233 48.0391 14.0862 47.845 14.4015C47.6509 14.7168 47.3731 14.972 47.0426 15.1388L26.6854 24.6388Z" stroke="#E24C4A" stroke-width="1.5" stroke-linecap="round" stroke-linejoin="round"/>
<path d="M48.219 26.2529L26.4333 36.2886C25.968 36.5009 25.4625 36.6107 24.9511 36.6107C24.4397 36.6107 23.9343 36.5009 23.469 36.2886L1.79041 26.2529" stroke="#E24C4A" stroke-width="1.5" stroke-linecap="round" stroke-linejoin="round"/>
<path d="M48.219 37.8574L26.4333 47.8931C25.968 48.1054 25.4625 48.2152 24.9511 48.2152C24.4397 48.2152 23.9343 48.1054 23.469 47.8931L1.79041 37.8574" stroke="#E24C4A" stroke-width="1.5" stroke-linecap="round" stroke-linejoin="round"/>
</svg>
