<svg width="60" height="61" viewBox="0 0 60 61" fill="none" xmlns="http://www.w3.org/2000/svg">
<path d="M19.2857 56.1881C28.7534 56.1881 36.4285 48.5129 36.4285 39.0452C36.4285 29.5775 28.7534 21.9023 19.2857 21.9023C9.81794 21.9023 2.14282 29.5775 2.14282 39.0452C2.14282 48.5129 9.81794 56.1881 19.2857 56.1881Z" stroke="#E24C4A" stroke-width="2" stroke-linecap="round" stroke-linejoin="round"/>
<path d="M40.7143 56.1881C50.182 56.1881 57.8571 48.5129 57.8571 39.0452C57.8571 29.5775 50.182 21.9023 40.7143 21.9023C31.2465 21.9023 23.5714 29.5775 23.5714 39.0452C23.5714 48.5129 31.2465 56.1881 40.7143 56.1881Z" stroke="#E24C4A" stroke-width="2" stroke-linecap="round" stroke-linejoin="round"/>
<path d="M29.9999 39.0455C39.4677 39.0455 47.1428 31.3704 47.1428 21.9026C47.1428 12.4349 39.4677 4.75977 29.9999 4.75977C20.5322 4.75977 12.8571 12.4349 12.8571 21.9026C12.8571 31.3704 20.5322 39.0455 29.9999 39.0455Z" stroke="#E24C4A" stroke-width="2" stroke-linecap="round" stroke-linejoin="round"/>
</svg>
