<svg width="20" height="21" viewBox="0 0 20 21" fill="none" xmlns="http://www.w3.org/2000/svg">
<g clip-path="url(#clip0_72_647)">
<path d="M9.99995 19.3556C15.1283 19.3556 19.2857 15.1983 19.2857 10.0699C19.2857 4.94154 15.1283 0.78418 9.99995 0.78418C4.87159 0.78418 0.714233 4.94154 0.714233 10.0699C0.714233 15.1983 4.87159 19.3556 9.99995 19.3556Z" stroke="#E24C4A" stroke-linecap="round" stroke-linejoin="round"/>
<path d="M0.714233 10.0703H19.2857" stroke="#E24C4A" stroke-linecap="round" stroke-linejoin="round"/>
<path d="M13.5714 10.0699C13.396 13.4656 12.1452 16.7175 9.99996 19.3556C7.8547 16.7175 6.60395 13.4656 6.42853 10.0699C6.60395 6.67419 7.8547 3.42225 9.99996 0.78418C12.1452 3.42225 13.396 6.67419 13.5714 10.0699V10.0699Z" stroke="#E24C4A" stroke-linecap="round" stroke-linejoin="round"/>
</g>
<defs>
<clipPath id="clip0_72_647">
<rect width="20" height="20" fill="white" transform="translate(-6.10352e-05 0.0703125)"/>
</clipPath>
</defs>
</svg>
