<svg width="16" height="16" viewBox="0 0 16 16" fill="none" xmlns="http://www.w3.org/2000/svg">
<g clip-path="url(#clip0_36_379)">
<path d="M9.71427 5.71443C10.3455 5.71443 10.8571 5.20275 10.8571 4.57157C10.8571 3.94039 10.3455 3.42871 9.71427 3.42871C9.08309 3.42871 8.57141 3.94039 8.57141 4.57157C8.57141 5.20275 9.08309 5.71443 9.71427 5.71443Z" stroke="#E24C4A" stroke-linecap="round" stroke-linejoin="round"/>
<path d="M5.14284 11.4287C5.45843 11.4287 5.71427 11.1729 5.71427 10.8573C5.71427 10.5417 5.45843 10.2859 5.14284 10.2859C4.82725 10.2859 4.57141 10.5417 4.57141 10.8573C4.57141 11.1729 4.82725 11.4287 5.14284 11.4287Z" stroke="#E24C4A" stroke-linecap="round" stroke-linejoin="round"/>
<path d="M5.14286 7.42878C5.77404 7.42878 6.28571 6.91711 6.28571 6.28592C6.28571 5.65474 5.77404 5.14307 5.14286 5.14307C4.51167 5.14307 4 5.65474 4 6.28592C4 6.91711 4.51167 7.42878 5.14286 7.42878Z" stroke="#E24C4A" stroke-linecap="round" stroke-linejoin="round"/>
<path d="M10.88 14.0344C10.8673 13.8127 10.7902 13.5995 10.6583 13.4209C10.5264 13.2423 10.3453 13.106 10.1371 13.0287C9.62023 12.8588 9.18088 12.5101 8.89808 12.0452C8.61528 11.5804 8.50759 11.0299 8.59436 10.4927C8.68113 9.95559 8.95667 9.46701 9.37145 9.11485C9.78622 8.76268 10.313 8.57003 10.8571 8.57154H12.9943C13.3608 8.57256 13.7222 8.48541 14.048 8.31744C14.3738 8.14947 14.6545 7.90561 14.8663 7.60643C15.078 7.30725 15.2148 6.96153 15.2649 6.59842C15.315 6.23531 15.2771 5.86548 15.1543 5.52011C14.6997 4.23664 13.9012 3.1028 12.8458 2.24245C11.7905 1.38209 10.519 0.828338 9.1703 0.641675C7.82158 0.455013 6.44749 0.642625 5.19817 1.18401C3.94885 1.7254 2.87235 2.59974 2.0863 3.71151C1.30024 4.82327 0.834858 6.12969 0.741001 7.48804C0.647143 8.84638 0.928418 10.2044 1.5541 11.4137C2.17977 12.623 3.12578 13.6371 4.28877 14.3452C5.45176 15.0532 6.78698 15.4281 8.14856 15.4287C8.82098 15.4306 9.49034 15.3382 10.1371 15.1544C10.3747 15.0878 10.5804 14.9381 10.7168 14.7325C10.8531 14.5269 10.9111 14.2791 10.88 14.0344V14.0344Z" stroke="#E24C4A" stroke-linecap="round" stroke-linejoin="round"/>
</g>
<defs>
<clipPath id="clip0_36_379">
<rect width="16" height="16" fill="white"/>
</clipPath>
</defs>
</svg>
