<svg width="60" height="61" viewBox="0 0 60 61" fill="none" xmlns="http://www.w3.org/2000/svg">
<path d="M49.2854 9.04492H10.714C5.98014 9.04492 2.14258 12.8825 2.14258 17.6164V43.3306C2.14258 48.0645 5.98014 51.9021 10.714 51.9021H49.2854C54.0193 51.9021 57.8569 48.0645 57.8569 43.3306V17.6164C57.8569 12.8825 54.0193 9.04492 49.2854 9.04492Z" stroke="#E24C4A" stroke-width="2" stroke-linecap="round" stroke-linejoin="round"/>
<path d="M22.7566 40.4159V22.4159C22.7476 22.112 22.8217 21.8114 22.9709 21.5465C23.1201 21.2816 23.3387 21.0624 23.6033 20.9126C23.8678 20.7627 24.1681 20.6878 24.4721 20.6959C24.776 20.7041 25.0719 20.7949 25.328 20.9588L40.7566 29.9588C41.0144 30.11 41.2281 30.326 41.3767 30.5854C41.5252 30.8448 41.6033 31.1385 41.6033 31.4373C41.6033 31.7362 41.5252 32.0299 41.3767 32.2893C41.2281 32.5486 41.0144 32.7647 40.7566 32.9159L25.328 41.9159C25.0663 42.067 24.7692 42.1463 24.467 42.1456C24.1648 42.145 23.8681 42.0644 23.607 41.9121C23.346 41.7598 23.1298 41.5412 22.9804 41.2785C22.8311 41.0157 22.7539 40.7181 22.7566 40.4159V40.4159Z" stroke="#E24C4A" stroke-width="2" stroke-linecap="round" stroke-linejoin="round"/>
</svg>
