<svg width="20" height="20" viewBox="0 0 20 20" fill="none" xmlns="http://www.w3.org/2000/svg">
<g clip-path="url(#clip0_221_64)">
<path d="M4.28574 7.40039V13.3147" stroke="#E24C4A" stroke-linecap="round" stroke-linejoin="round"/>
<path d="M10 7.40039V13.3147" stroke="#E24C4A" stroke-linecap="round" stroke-linejoin="round"/>
<path d="M7.14288 8.67188V12.0433" stroke="#E24C4A" stroke-linecap="round" stroke-linejoin="round"/>
<path d="M15.7143 7.40039V13.3147" stroke="#E24C4A" stroke-linecap="round" stroke-linejoin="round"/>
<path d="M12.8572 8.67188V12.0433" stroke="#E24C4A" stroke-linecap="round" stroke-linejoin="round"/>
<path d="M0.714294 5.71436V2.14293C0.714294 1.76405 0.864804 1.40068 1.13271 1.13277C1.40062 0.864865 1.76399 0.714355 2.14287 0.714355H5.71429" stroke="#E24C4A" stroke-linecap="round" stroke-linejoin="round"/>
<path d="M19.2857 5.71436V2.14293C19.2857 1.76405 19.1352 1.40068 18.8673 1.13277C18.5994 0.864865 18.236 0.714355 17.8572 0.714355H14.2857" stroke="#E24C4A" stroke-linecap="round" stroke-linejoin="round"/>
<path d="M0.714294 14.2856V17.8571C0.714294 18.236 0.864804 18.5993 1.13271 18.8672C1.40062 19.1351 1.76399 19.2856 2.14287 19.2856H5.71429" stroke="#E24C4A" stroke-linecap="round" stroke-linejoin="round"/>
<path d="M19.2857 14.2856V17.8571C19.2857 18.236 19.1352 18.5993 18.8673 18.8672C18.5994 19.1351 18.236 19.2856 17.8572 19.2856H14.2857" stroke="#E24C4A" stroke-linecap="round" stroke-linejoin="round"/>
</g>
<defs>
<clipPath id="clip0_221_64">
<rect width="20" height="20" fill="white"/>
</clipPath>
</defs>
</svg>
