<svg width="20" height="21" viewBox="0 0 20 21" fill="none" xmlns="http://www.w3.org/2000/svg">
<g clip-path="url(#clip0_72_654)">
<path d="M10.6714 9.92757C10.4595 10.0196 10.231 10.0671 9.99995 10.0671C9.76895 10.0671 9.54041 10.0196 9.32853 9.92757L1.18567 6.15615C1.05344 6.08945 0.942323 5.98737 0.864686 5.86125C0.787049 5.73514 0.745941 5.58995 0.745941 5.44186C0.745941 5.29376 0.787049 5.14858 0.864686 5.02247C0.942323 4.89635 1.05344 4.79427 1.18567 4.72757L9.32853 0.927574C9.54041 0.835564 9.76895 0.788086 9.99995 0.788086C10.231 0.788086 10.4595 0.835564 10.6714 0.927574L18.8142 4.699C18.9465 4.76569 19.0576 4.86778 19.1352 4.99389C19.2129 5.12001 19.254 5.26519 19.254 5.41329C19.254 5.56138 19.2129 5.70657 19.1352 5.83268C19.0576 5.95879 18.9465 6.06088 18.8142 6.12757L10.6714 9.92757Z" stroke="#E24C4A" stroke-linecap="round" stroke-linejoin="round"/>
<path d="M19.2857 10.5703L10.5714 14.5846C10.3853 14.6695 10.1831 14.7134 9.97852 14.7134C9.77396 14.7134 9.57178 14.6695 9.38566 14.5846L0.714233 10.5703" stroke="#E24C4A" stroke-linecap="round" stroke-linejoin="round"/>
<path d="M19.2857 15.2129L10.5714 19.2272C10.3853 19.3121 10.1831 19.356 9.97852 19.356C9.77396 19.356 9.57178 19.3121 9.38566 19.2272L0.714233 15.2129" stroke="#E24C4A" stroke-linecap="round" stroke-linejoin="round"/>
</g>
<defs>
<clipPath id="clip0_72_654">
<rect width="20" height="20" fill="white" transform="translate(-6.10352e-05 0.0703125)"/>
</clipPath>
</defs>
</svg>
