<svg width="20" height="20" viewBox="0 0 20 20" fill="none" xmlns="http://www.w3.org/2000/svg">
<path d="M16.4286 2.85693H3.57144C1.99348 2.85693 0.714294 4.13612 0.714294 5.71408V14.2855C0.714294 15.8635 1.99348 17.1426 3.57144 17.1426H16.4286C18.0065 17.1426 19.2857 15.8635 19.2857 14.2855V5.71408C19.2857 4.13612 18.0065 2.85693 16.4286 2.85693Z" stroke="#E24C4A" stroke-linecap="round" stroke-linejoin="round"/>
<path d="M7.58572 13.3138V7.31377C7.58274 7.21247 7.60744 7.11228 7.65717 7.02398C7.7069 6.93568 7.77978 6.86261 7.86794 6.81265C7.95611 6.76269 8.05624 6.73772 8.15755 6.74043C8.25885 6.74315 8.3575 6.77344 8.44286 6.82806L13.5857 9.82805C13.6716 9.87847 13.7429 9.95048 13.7924 10.0369C13.8419 10.1234 13.868 10.2213 13.868 10.3209C13.868 10.4205 13.8419 10.5184 13.7924 10.6049C13.7429 10.6913 13.6716 10.7634 13.5857 10.8138L8.44286 13.8138C8.35562 13.8641 8.25661 13.8906 8.15586 13.8903C8.05512 13.8901 7.95622 13.8633 7.8692 13.8125C7.78218 13.7617 7.71012 13.6889 7.66034 13.6013C7.61056 13.5137 7.58481 13.4145 7.58572 13.3138V13.3138Z" stroke="#E24C4A" stroke-linecap="round" stroke-linejoin="round"/>
</svg>
