<svg width="51" height="51" viewBox="0 0 51 51" fill="none" xmlns="http://www.w3.org/2000/svg">
<path d="M16.5714 47.3956C24.4612 47.3956 30.8571 40.9997 30.8571 33.1099C30.8571 25.2202 24.4612 18.8242 16.5714 18.8242C8.68164 18.8242 2.28571 25.2202 2.28571 33.1099C2.28571 40.9997 8.68164 47.3956 16.5714 47.3956Z" stroke="#E24C4A" stroke-width="2" stroke-linecap="round" stroke-linejoin="round"/>
<path d="M34.4285 47.3956C42.3183 47.3956 48.7143 40.9997 48.7143 33.1099C48.7143 25.2202 42.3183 18.8242 34.4285 18.8242C26.5388 18.8242 20.1428 25.2202 20.1428 33.1099C20.1428 40.9997 26.5388 47.3956 34.4285 47.3956Z" stroke="#E24C4A" stroke-width="2" stroke-linecap="round" stroke-linejoin="round"/>
<path d="M25.5 33.11C33.3898 33.11 39.7857 26.7141 39.7857 18.8243C39.7857 10.9345 33.3898 4.53857 25.5 4.53857C17.6102 4.53857 11.2143 10.9345 11.2143 18.8243C11.2143 26.7141 17.6102 33.11 25.5 33.11Z" stroke="#E24C4A" stroke-width="2" stroke-linecap="round" stroke-linejoin="round"/>
</svg>
