<svg width="21" height="21" viewBox="0 0 21 21" fill="none" xmlns="http://www.w3.org/2000/svg">
<g clip-path="url(#clip0_72_765)">
<path d="M10.7832 20.5C16.2965 20.5 20.7832 16.0133 20.7832 10.5C20.7832 4.98668 16.2966 0.5 10.7832 0.5C5.26982 0.5 0.783203 4.98668 0.783203 10.5C0.783203 16.0133 5.26988 20.5 10.7832 20.5ZM10.7832 1.83331C15.5632 1.83331 19.4499 5.71996 19.4499 10.5C19.4499 15.28 15.5632 19.1667 10.7832 19.1667C6.00317 19.1667 2.11651 15.28 2.11651 10.5C2.11651 5.71996 6.00322 1.83331 10.7832 1.83331Z" fill="#E24C4A"/>
<path d="M13.6995 13.6867C13.8229 13.7866 13.9695 13.8333 14.1162 13.8333C14.3129 13.8333 14.5062 13.7467 14.6362 13.5833C14.8662 13.2967 14.8195 12.8767 14.5329 12.6467L11.4495 10.18V5.16666C11.4495 4.79998 11.1495 4.5 10.7829 4.5C10.4162 4.5 10.1162 4.79998 10.1162 5.16666V10.5C10.1162 10.7034 10.2096 10.8933 10.3662 11.02L13.6995 13.6867Z" fill="#E24C4A"/>
</g>
<defs>
<clipPath id="clip0_72_765">
<rect width="20" height="20" fill="white" transform="translate(0.783203 0.5)"/>
</clipPath>
</defs>
</svg>
