<svg width="42" height="31" viewBox="0 0 42 31" fill="none" xmlns="http://www.w3.org/2000/svg">
<path fill-rule="evenodd" clip-rule="evenodd" d="M33.141 8.72772C34.6606 6.59869 37.533 4.30674 41.4435 2.39871C42.4597 1.90286 42.0013 0.366004 40.8795 0.507904C32.6632 1.5472 27.3378 5.14562 24.4297 10.4969C23.3481 12.4872 22.6685 14.6056 22.3066 16.7682C22.068 18.194 22.005 19.2641 22.005 20.5C22.005 26.0228 26.4821 30.5 32.005 30.5C37.5278 30.5 42.005 26.0228 42.005 20.5C42.005 14.9772 37.4564 10.4969 32.2294 10.4969C32.5051 9.73974 32.5714 9.52577 33.141 8.72772ZM11.141 8.72772C12.6606 6.59869 15.533 4.30674 19.4435 2.39871C20.4597 1.90286 20.0013 0.366004 18.8795 0.507904C10.6632 1.5472 5.33779 5.14562 2.42967 10.4969C1.34806 12.4872 0.668511 14.6056 0.306622 16.7682C0.0680154 18.194 0.00500107 19.2641 0.00500107 20.5C0.00500107 26.0228 4.48215 30.5 10.005 30.5C15.5278 30.5 20.005 26.0228 20.005 20.5C20.005 14.9772 15.4564 10.4969 10.2294 10.4969C10.5051 9.73974 10.5714 9.52577 11.141 8.72772Z" fill="#E24C4A"/>
</svg>
